<?xml version="1.0" standalone="no"?>
<!DOCTYPE svg PUBLIC "-//W3C//DTD SVG 20010904//EN"
 "http://www.w3.org/TR/2001/REC-SVG-20010904/DTD/svg10.dtd">
<svg version="1.0" xmlns="http://www.w3.org/2000/svg"
 width="1024.000000pt" height="1024.000000pt" viewBox="0 0 1024.000000 1024.000000"
 preserveAspectRatio="xMidYMid meet">

<g transform="translate(0.000000,1024.000000) scale(0.100000,-0.100000)"
fill="#000000" stroke="none">
<path d="M4909 8257 c-37 -29 -39 -47 -39 -445 l0 -390 -59 58 c-175 171 -444
196 -670 63 -139 -82 -418 -383 -576 -622 -83 -127 -190 -331 -244 -467 -78
-198 -156 -526 -186 -783 -19 -159 -22 -1387 -4 -1473 30 -143 130 -271 260
-333 158 -75 311 -67 552 27 73 28 206 80 297 115 91 36 221 92 290 125 114
55 132 68 210 147 92 93 140 171 181 296 23 70 24 73 29 725 3 361 9 664 14
675 33 72 96 115 168 115 60 0 116 -35 153 -94 l30 -49 5 -656 c6 -726 3 -688
75 -831 66 -130 165 -235 290 -305 33 -19 148 -68 255 -110 603 -237 565 -225
697 -225 157 0 265 42 363 141 64 65 106 143 126 237 21 103 20 1333 -2 1522
-58 503 -243 981 -522 1348 -148 193 -354 396 -484 475 -124 75 -274 102 -408
73 -104 -22 -171 -58 -251 -134 l-69 -64 0 397 0 397 -29 29 c-40 40 -89 40
-133 0 l-33 -29 4 -724 c3 -676 5 -727 22 -785 29 -94 91 -175 229 -302 69
-63 178 -164 243 -224 l118 -110 -3 -711 c-3 -671 -2 -713 15 -744 35 -64 120
-77 168 -26 22 23 24 36 28 145 2 65 5 119 8 119 2 0 49 -40 104 -90 92 -84
101 -90 141 -90 66 1 108 44 108 111 0 28 -21 54 -180 214 l-180 182 0 151 c0
84 3 152 7 152 3 0 56 -49 117 -109 151 -147 285 -269 321 -292 36 -23 76 -24
113 -5 40 20 56 57 49 108 -5 39 -16 53 -146 176 -78 74 -141 138 -141 143 0
5 45 9 99 9 91 0 102 2 127 24 49 42 29 129 -37 163 -17 9 -84 13 -217 13
l-193 0 -50 47 -50 46 3 86 3 86 195 5 c107 3 203 9 212 14 27 13 48 52 48 91
0 84 -38 105 -190 105 -60 0 -110 4 -110 8 0 4 43 46 96 92 116 103 134 124
134 162 0 87 -89 135 -172 92 -17 -9 -68 -51 -115 -95 -46 -43 -88 -79 -93
-79 -5 0 -10 129 -12 308 -3 267 -5 311 -20 338 -24 43 -68 60 -117 45 -70
-21 -71 -23 -71 -361 0 -165 -1 -300 -2 -300 -2 0 -65 60 -140 133 -158 152
-158 150 -157 327 0 179 14 282 45 341 52 95 144 149 254 149 117 0 208 -57
401 -249 112 -113 152 -161 233 -283 213 -322 322 -605 398 -1028 l31 -175 5
-637 c3 -457 1 -652 -8 -692 -14 -70 -63 -144 -115 -174 -35 -20 -50 -22 -125
-19 -80 3 -100 9 -315 95 -532 210 -568 229 -644 342 -77 117 -74 86 -81 820
l-5 655 -23 58 c-70 173 -249 297 -432 297 -192 0 -370 -136 -430 -329 -19
-59 -20 -94 -21 -490 0 -234 -4 -529 -8 -656 -7 -226 -7 -231 -36 -290 -32
-68 -132 -178 -185 -205 -47 -24 -640 -262 -709 -285 -63 -20 -161 -24 -212
-7 -46 16 -92 64 -121 127 -23 49 -23 55 -26 498 -4 580 8 881 44 1087 94 548
340 1021 713 1372 148 139 217 173 335 166 114 -8 199 -67 248 -173 21 -46 23
-67 26 -249 3 -165 1 -205 -12 -241 -12 -30 -52 -76 -144 -166 l-127 -124 -5
301 c-5 314 -5 315 -50 351 -27 22 -96 16 -127 -11 l-28 -24 -5 -323 -5 -324
-97 88 c-115 104 -151 122 -204 104 -47 -15 -78 -56 -78 -102 0 -32 12 -48
114 -150 l115 -115 -123 0 c-139 0 -171 -10 -192 -60 -19 -47 -3 -99 39 -127
33 -22 42 -23 232 -23 l199 0 0 -83 0 -83 -53 -52 -53 -52 -194 0 c-166 0
-200 -3 -230 -18 -65 -32 -78 -119 -23 -162 22 -17 40 -20 130 -20 58 0 103
-4 101 -8 -1 -4 -63 -64 -136 -132 -140 -130 -162 -159 -162 -211 0 -44 56
-99 101 -99 56 0 90 28 368 290 72 69 136 127 141 128 6 2 10 -55 10 -151 l0
-155 -185 -178 c-181 -175 -185 -180 -185 -220 0 -68 64 -121 130 -107 27 5
170 119 209 166 7 9 17 17 22 17 5 0 9 -51 9 -114 0 -109 1 -116 26 -145 22
-27 33 -31 73 -31 52 0 85 22 102 67 5 14 9 315 9 732 l0 707 187 175 c289
270 317 299 357 381 65 132 66 139 66 874 0 364 -3 675 -6 693 -10 51 -46 81
-96 81 -24 0 -50 -6 -59 -13z"/>
<path d="M5080 4033 c-36 -14 -72 -48 -91 -86 -53 -103 24 -227 141 -227 87 0
160 73 160 160 0 84 -74 161 -154 159 -23 0 -48 -3 -56 -6z"/>
<path d="M3655 3047 c-95 -32 -149 -77 -192 -161 -36 -69 -39 -180 -6 -242 46
-85 119 -128 283 -165 116 -25 165 -71 138 -127 -44 -89 -188 -86 -272 7 -35
38 -140 20 -166 -28 -48 -90 70 -211 236 -242 225 -42 424 97 424 297 0 144
-90 236 -270 279 -134 32 -170 54 -170 106 0 20 10 40 29 60 48 47 132 38 210
-22 60 -47 151 0 151 78 0 53 -51 112 -122 143 -65 29 -210 37 -273 17z"/>
<path d="M4381 3047 c-50 -29 -50 -34 -51 -464 0 -432 1 -443 51 -469 73 -37
142 -3 154 77 3 24 5 216 3 426 l-3 383 -26 26 c-31 31 -93 41 -128 21z"/>
<path d="M5101 3038 c-22 -14 -41 -40 -52 -68 -152 -386 -290 -762 -291 -790
0 -73 98 -108 160 -55 16 13 39 47 51 75 l22 50 172 0 172 -1 27 -58 c31 -69
65 -96 121 -95 54 2 92 40 90 92 -1 20 -26 98 -56 172 -30 74 -92 236 -137
360 -115 315 -124 328 -202 337 -34 4 -50 0 -77 -19z m114 -463 c24 -61 45
-113 45 -117 0 -5 -43 -8 -96 -8 -53 0 -94 3 -92 8 2 4 23 58 47 120 24 62 45
111 47 109 2 -1 24 -52 49 -112z"/>
<path d="M5801 3046 c-50 -28 -50 -32 -51 -474 l0 -414 29 -29 c41 -41 98 -41
143 0 l33 29 0 422 0 422 -33 29 c-36 32 -80 38 -121 15z"/>
<path d="M6185 3026 l-25 -25 0 -421 0 -422 29 -29 c23 -23 38 -29 71 -29 90
0 110 38 110 205 l0 115 44 0 44 0 86 -139 c104 -165 121 -184 175 -184 50 0
84 22 101 63 16 38 6 59 -90 209 -33 52 -60 97 -60 100 0 3 20 17 45 30 156
83 177 328 40 463 -77 76 -104 83 -337 86 l-208 3 -25 -25z m349 -187 c46 -13
92 -55 102 -93 9 -37 -13 -85 -50 -107 -24 -15 -51 -19 -123 -19 l-93 0 0 115
0 115 63 0 c34 0 80 -5 101 -11z"/>
</g>
</svg>
