<?xml version="1.0" standalone="no"?>
<!DOCTYPE svg PUBLIC "-//W3C//DTD SVG 20010904//EN"
 "http://www.w3.org/TR/2001/REC-SVG-20010904/DTD/svg10.dtd">
<svg version="1.0" xmlns="http://www.w3.org/2000/svg"
 width="1092.000000pt" height="563.000000pt" viewBox="0 0 1092.000000 563.000000"
 preserveAspectRatio="xMidYMid meet">

<g transform="translate(0.000000,563.000000) scale(0.100000,-0.100000)"
fill="#000000" stroke="none">
<path d="M0 5300 l0 -330 435 0 435 0 0 330 0 330 -435 0 -435 0 0 -330z m460
30 c0 -113 -1 -120 -20 -120 -19 0 -20 7 -20 95 l0 95 -25 -6 c-38 -9 -32 19
8 39 57 28 57 28 57 -103z"/>
<path d="M920 5300 l0 -330 1695 0 1695 0 0 330 0 330 -1695 0 -1695 0 0 -330z
m1200 117 l0 -43 40 4 c57 6 80 -17 80 -77 0 -26 -7 -56 -16 -69 -13 -19 -24
-22 -75 -21 l-59 2 0 123 c0 104 2 124 15 124 11 0 15 -11 15 -43z m800 -82
c0 -104 -2 -125 -15 -125 -13 0 -15 21 -15 125 0 104 2 125 15 125 13 0 15
-21 15 -125z m-1010 105 c0 -5 -16 -10 -35 -10 l-35 0 0 -110 c0 -91 -3 -110
-15 -110 -12 0 -15 19 -15 110 l0 110 -35 0 c-19 0 -35 5 -35 10 0 6 35 10 85
10 50 0 85 -4 85 -10z m1420 -5 c0 -8 -9 -15 -20 -15 -11 0 -20 7 -20 15 0 8
9 15 20 15 11 0 20 -7 20 -15z m-1400 -114 c0 -41 5 -65 16 -75 36 -36 64 -4
64 75 0 46 3 59 15 59 12 0 15 -16 15 -83 l0 -84 -52 -1 c-75 -1 -88 13 -88
100 0 54 3 68 15 68 12 0 15 -13 15 -59z m456 51 c15 -10 34 -47 34 -66 0 -13
-12 -16 -60 -16 -33 0 -60 -4 -60 -10 0 -16 40 -52 53 -47 38 14 57 17 57 10
0 -20 -26 -33 -66 -33 -52 0 -74 25 -74 84 0 50 31 86 74 86 17 0 36 -4 42 -8z
m154 -7 c0 -8 -6 -12 -14 -9 -24 9 -46 -36 -46 -93 0 -40 -4 -53 -15 -53 -12
0 -15 16 -15 84 l0 83 45 1 c33 1 45 -3 45 -13z m138 -4 c4 -11 -2 -12 -23 -7
-41 10 -75 -16 -75 -59 0 -43 30 -67 73 -58 23 5 29 3 25 -8 -7 -22 -80 -23
-108 -1 -33 27 -33 92 0 127 20 21 32 25 64 23 23 -2 41 -9 44 -17z m62 -45
c0 -71 17 -99 48 -79 13 7 18 28 20 77 3 58 5 66 22 66 18 0 20 -7 20 -84 l0
-84 -59 -1 c-74 -1 -82 9 -89 99 -4 66 -4 70 17 70 19 0 21 -5 21 -64z m362
47 c25 -28 30 -60 18 -98 -29 -89 -160 -68 -160 25 0 57 31 90 84 90 28 0 48
-6 58 -17z m158 1 c0 -12 -6 -15 -24 -10 -27 7 -56 -1 -56 -15 0 -5 18 -20 40
-34 66 -42 51 -95 -27 -95 -36 0 -43 3 -43 20 0 17 4 18 25 10 28 -11 55 -4
55 14 0 6 -17 20 -38 31 -66 35 -48 95 29 95 29 0 39 -4 39 -16z m70 -69 c0
-69 -3 -85 -15 -85 -12 0 -15 16 -15 85 0 69 3 85 15 85 12 0 15 -16 15 -85z
m140 69 c0 -12 -6 -15 -21 -11 -26 7 -49 -1 -49 -17 0 -6 17 -20 38 -31 67
-36 53 -95 -24 -95 -38 0 -44 3 -44 20 0 18 3 19 20 10 24 -13 60 -4 60 13 0
7 -17 21 -38 32 -65 35 -53 95 19 95 29 0 39 -4 39 -16z"/>
<path d="M2142 5344 c-28 -19 -30 -74 -4 -97 25 -23 38 -21 56 5 20 29 20 72
0 92 -19 20 -24 20 -52 0z"/>
<path d="M2318 5338 l-23 -23 39 -3 c44 -4 54 3 40 25 -16 26 -31 26 -56 1z"/>
<path d="M3011 5341 c-12 -12 -21 -32 -21 -46 0 -35 35 -68 63 -59 28 9 37 22
37 59 0 37 -9 50 -37 59 -15 5 -28 1 -42 -13z"/>
<path d="M4360 5300 l0 -330 1070 0 1070 0 0 330 0 330 -1070 0 -1070 0 0
-330z m900 130 c24 -24 26 -53 5 -70 -13 -11 -12 -15 5 -37 25 -33 25 -54 -1
-87 -16 -20 -29 -26 -59 -26 -66 0 -100 59 -63 108 17 23 18 29 7 40 -34 32 3
92 56 92 17 0 39 -9 50 -20z m164 4 c20 -19 21 -68 2 -87 -12 -12 -12 -16 5
-30 25 -22 24 -62 -1 -87 -25 -25 -107 -29 -117 -5 -8 22 2 28 26 16 25 -14
67 -5 76 16 11 31 -5 53 -46 59 -49 8 -50 18 -1 30 30 7 38 14 40 36 4 33 -27
54 -57 38 -26 -13 -31 -13 -31 4 0 28 79 36 104 10z m166 -16 c13 -25 13 -31
0 -55 -21 -38 -71 -44 -94 -11 -9 12 -16 29 -16 38 0 9 7 26 16 38 23 33 73
27 94 -10z m100 27 c0 -19 -141 -231 -156 -234 -16 -3 -17 -1 -3 20 8 13 42
68 75 121 32 54 65 98 72 98 6 0 12 -2 12 -5z m28 -127 c15 -15 16 -63 2 -89
-7 -13 -21 -19 -45 -19 -37 0 -55 20 -55 61 0 47 66 79 98 47z"/>
<path d="M5186 5414 c-9 -8 -16 -19 -16 -24 0 -8 28 -40 35 -40 20 0 35 17 35
40 0 16 -7 30 -16 34 -21 8 -20 8 -38 -10z"/>
<path d="M5188 5319 c-25 -14 -24 -65 2 -79 14 -8 26 -8 40 0 27 14 27 65 1
80 -23 12 -22 12 -43 -1z"/>
<path d="M5522 5418 c-28 -28 3 -83 33 -58 8 7 15 20 15 29 0 17 -18 41 -30
41 -3 0 -11 -5 -18 -12z"/>
<path d="M5663 5303 c-12 -4 -19 -63 -9 -63 2 0 11 -3 19 -6 22 -8 41 30 27
56 -11 20 -16 22 -37 13z"/>
<path d="M6540 5300 l0 -330 1085 0 1085 0 0 330 0 330 -1085 0 -1085 0 0
-330z m920 130 c24 -24 26 -53 5 -70 -14 -11 -14 -15 -1 -29 46 -51 15 -121
-54 -121 -30 0 -43 6 -59 26 -26 33 -26 55 -2 85 16 19 16 25 5 37 -34 33 2
92 56 92 17 0 39 -9 50 -20z m190 4 c0 -12 -6 -15 -25 -10 -35 9 -61 -7 -74
-45 -14 -41 -14 -46 1 -31 21 21 75 15 92 -10 40 -56 6 -128 -59 -128 -29 0
-39 6 -55 33 -26 41 -26 107 0 156 22 44 30 49 83 50 28 1 37 -3 37 -15z m140
-16 c13 -25 13 -31 0 -55 -21 -38 -71 -44 -94 -11 -9 12 -16 29 -16 38 0 9 7
26 16 38 23 33 73 27 94 -10z m100 27 c0 -17 -145 -235 -157 -235 -11 0 -9 9
9 38 13 20 45 74 73 120 27 45 55 82 62 82 7 0 13 -2 13 -5z m28 -127 c15 -15
16 -63 2 -89 -14 -25 -68 -26 -86 -1 -18 24 -17 62 3 84 18 20 63 24 81 6z"/>
<path d="M7386 5414 c-9 -8 -16 -19 -16 -24 0 -10 29 -40 39 -40 29 0 42 64
15 74 -21 8 -20 8 -38 -10z"/>
<path d="M7388 5319 c-25 -14 -24 -65 2 -79 14 -8 26 -8 40 0 27 14 27 65 1
80 -23 12 -22 12 -43 -1z"/>
<path d="M7555 5316 c-18 -27 -7 -69 20 -80 22 -8 21 -8 39 10 30 30 10 94
-29 94 -8 0 -22 -11 -30 -24z"/>
<path d="M7722 5418 c-28 -28 3 -83 33 -58 8 7 15 20 15 29 0 17 -18 41 -30
41 -3 0 -11 -5 -18 -12z"/>
<path d="M7863 5303 c-12 -4 -19 -63 -9 -63 2 0 11 -3 19 -6 22 -8 41 30 27
56 -11 20 -16 22 -37 13z"/>
<path d="M8760 5300 l0 -330 1080 0 1080 0 0 330 0 330 -1080 0 -1080 0 0
-330z m919 131 c38 -38 35 -158 -5 -202 -22 -25 -69 -24 -93 0 -39 39 -39 163
0 202 24 24 73 25 98 0z m249 -6 c19 -24 20 -59 2 -70 -4 -3 0 -21 10 -40 30
-59 0 -105 -67 -105 -60 0 -96 68 -58 110 12 13 13 22 3 47 -26 70 64 117 110
58z m164 8 c22 -20 24 -66 3 -83 -14 -12 -13 -15 5 -35 25 -27 25 -46 -1 -79
-18 -23 -27 -27 -68 -24 -34 2 -47 7 -49 21 -3 15 0 16 23 7 60 -23 111 25 65
62 -12 10 -33 18 -46 18 -36 0 -29 17 10 24 49 9 64 56 25 77 -16 8 -28 8 -45
0 -19 -8 -24 -8 -24 3 0 7 3 16 7 19 13 13 77 7 95 -10z m-322 -203 c0 -11 -6
-20 -14 -20 -18 0 -29 16 -21 30 11 18 35 11 35 -10z"/>
<path d="M9607 5415 c-35 -35 -33 -156 3 -175 24 -13 26 -13 44 6 12 11 16 35
16 84 0 49 -4 73 -16 84 -19 20 -29 20 -47 1z"/>
<path d="M9850 5415 c-26 -31 13 -82 44 -56 19 16 21 42 4 59 -16 16 -33 15
-48 -3z"/>
<path d="M9846 5307 c-30 -45 8 -92 54 -67 24 13 26 52 4 74 -22 22 -41 20
-58 -7z"/>
<path d="M0 4590 l0 -330 435 0 435 0 0 330 0 330 -435 0 -435 0 0 -330z m472
123 c11 -10 18 -30 18 -51 0 -30 -8 -43 -50 -82 -27 -25 -50 -52 -50 -58 0 -8
19 -12 55 -12 30 0 55 -4 55 -10 0 -6 -32 -10 -75 -10 -70 0 -75 1 -75 22 0
12 22 42 55 74 57 55 66 81 39 108 -19 20 -18 20 -54 1 -24 -12 -30 -13 -30
-2 0 37 77 52 112 20z"/>
<path d="M920 4590 l0 -330 1695 0 1695 0 0 330 0 330 -1695 0 -1695 0 0 -330z
m1480 25 c0 -118 -1 -125 -20 -125 -19 0 -20 7 -20 125 0 118 1 125 20 125 19
0 20 -7 20 -125z m-373 -5 c23 -63 43 -116 43 -117 0 -2 -9 -3 -19 -3 -13 0
-23 11 -31 36 -12 34 -13 35 -58 32 -43 -3 -47 -6 -56 -35 -6 -23 -15 -33 -29
-33 -11 0 -17 5 -15 13 74 207 83 227 103 225 15 -2 29 -29 62 -118z m1183
105 c0 -8 -9 -15 -20 -15 -11 0 -20 7 -20 15 0 8 9 15 20 15 11 0 20 -7 20
-15z m-1080 -30 c0 -18 5 -25 20 -25 11 0 20 -4 20 -10 0 -5 -9 -10 -20 -10
-18 0 -20 -7 -20 -60 0 -57 5 -66 33 -61 4 0 7 -6 7 -15 0 -11 -8 -14 -32 -12
l-33 3 -3 73 c-2 55 -6 72 -17 72 -8 0 -15 5 -15 10 0 6 7 10 15 10 9 0 15 9
15 25 0 16 6 25 15 25 9 0 15 -9 15 -25z m680 0 c0 -18 5 -25 20 -25 11 0 20
-4 20 -10 0 -5 -9 -10 -20 -10 -19 0 -21 -5 -18 -62 3 -54 6 -63 21 -60 10 2
17 -3 17 -13 0 -23 -57 -20 -70 4 -5 11 -10 45 -10 75 0 43 -3 56 -15 56 -8 0
-15 5 -15 10 0 6 7 10 15 10 9 0 15 9 15 25 0 18 5 25 20 25 15 0 20 -7 20
-25z m-498 -42 c8 -10 18 -30 22 -45 l6 -28 -60 0 c-67 0 -80 -17 -36 -45 20
-13 29 -14 46 -5 25 13 35 8 27 -15 -9 -22 -89 -20 -109 3 -34 38 -29 110 9
140 24 18 77 15 95 -5z m250 0 c10 -9 18 -29 18 -45 0 -27 -1 -28 -55 -28 -48
0 -55 -2 -55 -20 0 -29 35 -44 71 -31 26 9 30 8 27 -7 -2 -13 -15 -18 -53 -20
-47 -3 -51 -1 -69 29 -21 36 -17 90 10 120 21 24 81 25 106 2z m168 1 c0 -12
-6 -15 -23 -10 -36 9 -67 -19 -67 -59 0 -40 31 -68 67 -59 17 5 23 2 23 -10 0
-12 -10 -16 -44 -16 -36 0 -48 5 -65 26 -25 31 -27 64 -6 104 17 33 27 38 78
39 28 1 37 -3 37 -15z m260 -3 c5 -11 10 -48 10 -84 l0 -63 -55 -2 c-58 -1
-85 14 -85 48 0 26 47 60 81 60 32 0 37 11 14 30 -12 10 -21 10 -42 1 -29 -13
-38 -9 -30 14 10 24 93 21 107 -4z m150 3 c0 -13 -7 -15 -28 -11 -33 7 -58 -6
-47 -23 4 -7 23 -18 41 -26 27 -11 34 -20 34 -42 0 -39 -17 -52 -67 -52 -36 0
-43 3 -43 20 0 23 4 24 30 10 21 -11 50 -3 50 14 0 6 -17 20 -38 31 -68 37
-50 95 30 95 28 0 38 -4 38 -16z m70 -69 c0 -69 -3 -85 -15 -85 -12 0 -15 16
-15 85 0 69 3 85 15 85 12 0 15 -16 15 -85z m140 69 c0 -12 -6 -15 -21 -11
-26 7 -49 -1 -49 -17 0 -6 17 -20 38 -31 67 -36 53 -95 -24 -95 -37 0 -44 3
-44 20 0 17 3 18 27 9 20 -7 30 -6 41 5 13 12 9 17 -27 40 -65 42 -53 96 21
96 28 0 38 -4 38 -16z"/>
<path d="M1947 4636 c-9 -27 -15 -51 -13 -53 2 -3 17 -3 33 -1 l30 3 -17 50
-17 50 -16 -49z"/>
<path d="M2237 4622 c-25 -27 -21 -32 23 -32 44 0 55 21 21 40 -25 13 -25 13
-44 -8z"/>
<path d="M2488 4626 c-30 -22 -21 -36 22 -36 43 0 49 9 24 34 -19 19 -24 19
-46 2z"/>
<path d="M2935 4571 c-20 -4 -31 -13 -33 -27 -5 -32 29 -41 50 -14 15 18 26
54 16 49 -2 -1 -16 -4 -33 -8z"/>
<path d="M4360 4590 l0 -330 273 0 c151 0 632 -3 1070 -7 l797 -6 0 336 0 337
-1070 0 -1070 0 0 -330z m904 118 c20 -28 20 -52 1 -68 -12 -10 -11 -16 7 -40
38 -51 5 -110 -62 -110 -62 0 -98 56 -67 104 13 19 14 30 5 54 -10 25 -9 35 5
56 23 35 88 37 111 4z m172 1 c15 -17 19 -36 19 -99 0 -92 -17 -120 -71 -120
-51 0 -74 37 -74 120 0 53 4 73 21 94 26 33 77 36 105 5z m154 -11 c13 -25 13
-31 0 -55 -19 -34 -63 -42 -91 -17 -23 21 -24 52 -3 82 23 33 73 27 94 -10z
m100 27 c0 -19 -145 -235 -157 -235 -13 0 -14 3 -1 23 8 12 41 66 74 119 32
54 65 98 72 98 6 0 12 -2 12 -5z m28 -127 c7 -7 12 -28 12 -48 0 -45 -15 -60
-57 -60 -35 0 -53 21 -53 61 0 47 66 79 98 47z"/>
<path d="M5186 4694 c-9 -8 -16 -19 -16 -24 0 -10 29 -40 39 -40 29 0 42 64
15 74 -21 8 -20 8 -38 -10z"/>
<path d="M5188 4599 c-25 -14 -24 -65 2 -79 14 -8 26 -8 40 0 27 14 27 65 1
80 -23 12 -22 12 -43 -1z"/>
<path d="M5361 4691 c-45 -45 -17 -197 33 -178 48 18 47 178 -1 194 -6 2 -21
-5 -32 -16z"/>
<path d="M5522 4698 c-28 -28 3 -83 33 -58 8 7 15 20 15 29 0 17 -18 41 -30
41 -3 0 -11 -5 -18 -12z"/>
<path d="M5663 4583 c-12 -4 -19 -63 -9 -63 2 0 11 -3 19 -6 22 -8 41 30 27
56 -11 20 -16 22 -37 13z"/>
<path d="M6542 4588 l3 -333 1083 -3 1082 -2 0 335 0 335 -1085 0 -1085 0 2
-332z m912 126 c22 -22 29 -56 24 -120 -6 -73 -36 -106 -92 -102 -22 2 -41 9
-44 17 -3 10 3 12 27 6 25 -5 35 -2 56 19 33 33 33 55 0 48 -39 -7 -71 5 -83
33 -17 37 -15 59 9 89 24 30 78 36 103 10z m181 -4 c20 -22 32 -111 21 -155
-17 -66 -87 -87 -126 -37 -19 23 -21 37 -18 99 2 52 8 77 22 92 25 27 77 28
101 1z m155 -12 c13 -25 13 -31 0 -55 -21 -38 -71 -44 -94 -11 -9 12 -16 29
-16 38 0 9 7 26 16 38 23 33 73 27 94 -10z m100 27 c0 -17 -145 -235 -157
-235 -11 0 -9 9 9 38 13 20 45 74 73 120 27 45 55 82 62 82 7 0 13 -2 13 -5z
m28 -127 c15 -15 16 -63 2 -89 -14 -25 -68 -26 -86 -1 -18 24 -17 62 3 84 18
20 63 24 81 6z"/>
<path d="M7388 4699 c-25 -14 -24 -75 1 -89 25 -13 27 -13 45 6 21 21 20 57
-2 77 -21 20 -21 20 -44 6z"/>
<path d="M7556 4688 c-23 -32 -22 -129 2 -159 36 -43 72 0 72 84 0 79 -42 121
-74 75z"/>
<path d="M7722 4698 c-28 -28 3 -83 33 -58 8 7 15 20 15 29 0 17 -18 41 -30
41 -3 0 -11 -5 -18 -12z"/>
<path d="M7863 4583 c-12 -4 -19 -63 -9 -63 2 0 11 -3 19 -6 22 -8 41 30 27
56 -11 20 -16 22 -37 13z"/>
<path d="M8760 4585 l0 -335 1080 0 1080 0 0 335 0 335 -1080 0 -1080 0 0
-335z m919 126 c38 -38 35 -158 -5 -202 -22 -25 -69 -24 -93 0 -39 39 -39 163
0 202 24 24 73 25 98 0z m237 11 c24 -16 33 -48 21 -72 -10 -20 -9 -31 4 -58
29 -56 -2 -102 -68 -102 -61 0 -96 68 -57 111 12 13 13 22 5 38 -16 29 -14 48
9 71 20 20 65 26 86 12z m193 -24 c13 -22 13 -30 2 -51 -11 -22 -11 -29 3 -48
37 -53 5 -109 -62 -109 -26 0 -45 7 -57 20 -22 24 -22 77 -1 98 13 13 13 17 0
38 -13 18 -13 27 -3 46 17 32 29 39 69 36 25 -2 38 -10 49 -30z m-339 -188 c0
-21 -24 -28 -35 -10 -8 14 3 30 21 30 8 0 14 -9 14 -20z"/>
<path d="M9607 4695 c-35 -35 -33 -156 3 -175 24 -13 26 -13 44 6 12 11 16 35
16 84 0 49 -4 73 -16 84 -19 20 -29 20 -47 1z"/>
<path d="M9858 4699 c-22 -12 -23 -42 -2 -60 31 -26 70 25 44 56 -14 17 -19
18 -42 4z"/>
<path d="M9844 4585 c-15 -23 -15 -27 0 -50 18 -28 28 -30 57 -15 23 13 25 53
3 74 -22 23 -41 20 -60 -9z"/>
<path d="M10033 4703 c-12 -4 -19 -63 -9 -63 2 0 11 -3 19 -6 14 -5 47 20 47
36 0 11 -29 40 -38 39 -4 0 -13 -3 -19 -6z"/>
<path d="M10028 4599 c-28 -16 -23 -67 7 -81 31 -14 55 3 55 41 0 44 -27 61
-62 40z"/>
<path d="M0 3875 l0 -335 433 2 432 3 3 333 2 332 -435 0 -435 0 0 -335z m479
114 c12 -22 12 -29 -1 -57 -14 -27 -14 -33 -2 -43 19 -16 18 -68 -3 -91 -21
-24 -111 -26 -120 -3 -8 22 0 27 30 16 48 -18 85 8 72 50 -4 11 -20 21 -41 25
-43 8 -43 18 -1 30 24 7 33 16 35 36 4 34 -28 54 -59 38 -24 -13 -34 -7 -25
15 4 12 17 15 53 13 39 -2 50 -8 62 -29z"/>
<path d="M920 3875 l0 -335 1693 2 1692 3 3 333 2 332 -1695 0 -1695 0 0 -335z
m1350 31 l0 -123 -59 -2 c-54 -1 -62 2 -81 26 -17 22 -21 37 -17 66 8 57 32
79 84 75 l43 -3 0 42 c0 32 4 43 15 43 13 0 15 -20 15 -124z m1150 -1 c0 -104
-2 -125 -15 -125 -13 0 -15 21 -15 125 0 104 2 125 15 125 13 0 15 -21 15
-125z m-1600 99 c0 -12 -7 -15 -27 -11 -47 9 -84 -4 -105 -37 -24 -38 -19
-100 11 -129 23 -24 88 -29 100 -8 11 17 25 -4 17 -24 -4 -11 -22 -15 -61 -15
-49 0 -60 4 -86 29 -25 26 -29 37 -29 86 0 51 3 60 34 91 31 31 40 34 90 34
45 0 56 -3 56 -16z m530 1 c0 -8 -9 -15 -20 -15 -11 0 -20 7 -20 15 0 8 9 15
20 15 11 0 20 -7 20 -15z m-386 -77 c10 -15 16 -44 16 -84 l0 -62 -57 -1 c-65
0 -83 10 -83 49 0 34 17 49 64 57 39 6 44 14 22 32 -10 8 -21 8 -40 1 -35 -13
-36 -13 -36 4 0 18 15 24 62 25 27 1 41 -5 52 -21z m146 5 c0 -9 -6 -13 -15
-9 -28 10 -45 -22 -45 -85 0 -52 -2 -59 -20 -59 -18 0 -20 7 -20 84 l0 84 50
0 c39 1 50 -3 50 -15z m240 -68 c0 -69 -3 -85 -15 -85 -12 0 -15 16 -15 85 0
69 3 85 15 85 12 0 15 -16 15 -85z m180 63 c28 -30 27 -94 -2 -125 -29 -31
-97 -32 -124 -2 -29 32 -26 105 5 130 33 27 94 25 121 -3z m176 11 c8 -7 14
-7 19 1 9 14 68 13 83 -2 7 -7 12 -42 12 -85 0 -58 -3 -73 -15 -73 -12 0 -15
14 -15 63 0 79 -20 106 -54 71 -11 -10 -16 -34 -16 -75 0 -46 -3 -59 -15 -59
-12 0 -15 13 -15 59 0 41 -5 65 -16 75 -34 35 -54 8 -54 -71 0 -56 -2 -63 -20
-63 -18 0 -20 7 -20 84 l0 84 57 1 c31 0 62 -4 69 -10z m276 -6 c10 -9 18 -29
18 -45 0 -27 -1 -28 -55 -28 -59 0 -70 -13 -39 -45 16 -16 28 -16 68 0 14 6
17 4 14 -11 -4 -25 -84 -31 -113 -9 -27 22 -28 104 -1 134 23 26 81 28 108 4z
m198 -83 c0 -84 -3 -101 -21 -124 -19 -24 -27 -27 -73 -24 -40 2 -52 7 -54 21
-3 16 0 18 20 11 29 -10 67 -9 78 3 5 4 12 22 16 38 5 25 4 28 -7 18 -7 -7
-28 -13 -45 -13 -46 0 -78 41 -71 93 8 61 30 77 99 76 l58 -2 0 -97z m160 74
c6 -14 10 -52 10 -84 l0 -59 -61 2 c-72 2 -90 18 -74 64 8 22 19 30 53 37 42
10 55 29 27 40 -8 3 -26 1 -40 -4 -19 -7 -25 -6 -25 4 0 21 11 26 57 26 37 0
45 -4 53 -26z m164 -42 l22 -64 23 66 c17 48 28 66 41 66 15 0 12 -14 -24
-109 -23 -60 -48 -116 -55 -125 -15 -17 -61 -22 -61 -6 0 6 7 10 15 10 8 0 21
13 29 29 14 27 13 34 -14 105 -35 89 -36 99 -13 94 10 -2 24 -27 37 -66z"/>
<path d="M2166 3914 c-30 -30 -12 -114 25 -114 5 0 18 9 29 20 27 27 26 75 -2
94 -28 20 -33 20 -52 0z"/>
<path d="M1880 3845 c-10 -12 -10 -18 0 -30 7 -8 16 -15 21 -15 13 0 39 30 39
46 0 19 -44 18 -60 -1z"/>
<path d="M2442 3914 c-51 -35 -7 -134 47 -105 37 20 38 91 1 111 -24 13 -22
13 -48 -6z"/>
<path d="M2908 3919 c-33 -19 -21 -39 22 -39 43 0 49 9 24 34 -18 19 -23 19
-46 5z"/>
<path d="M3076 3914 c-23 -23 -21 -91 3 -104 55 -29 101 68 49 104 -28 20 -33
20 -52 0z"/>
<path d="M3250 3844 c-11 -12 -11 -18 2 -30 20 -20 58 -3 58 26 0 25 -41 28
-60 4z"/>
<path d="M4362 3878 l3 -333 1068 -3 1067 -2 0 335 0 335 -1070 0 -1070 0 2
-332z m898 122 c24 -24 26 -53 5 -70 -13 -11 -12 -15 5 -37 25 -33 25 -54 -1
-87 -16 -20 -29 -26 -59 -26 -69 0 -102 61 -61 111 16 19 16 25 5 37 -34 33 2
92 56 92 17 0 39 -9 50 -20z m172 3 c19 -17 25 -68 8 -78 -7 -4 -5 -14 5 -28
23 -33 19 -83 -7 -101 -29 -21 -87 -20 -110 1 -22 20 -24 71 -3 100 10 14 12
24 5 28 -16 10 -12 62 6 79 20 21 73 20 96 -1z m158 -15 c13 -25 13 -31 0 -55
-19 -34 -63 -42 -91 -17 -23 21 -24 52 -3 82 23 33 73 27 94 -10z m100 27 c0
-18 -141 -231 -155 -233 -15 -3 -15 -1 -3 20 48 88 135 218 146 218 6 0 12 -2
12 -5z m28 -127 c15 -15 16 -63 2 -89 -7 -13 -21 -19 -45 -19 -37 0 -55 20
-55 61 0 47 66 79 98 47z"/>
<path d="M5186 3984 c-9 -8 -16 -19 -16 -24 0 -10 29 -40 39 -40 29 0 42 64
15 74 -21 8 -20 8 -38 -10z"/>
<path d="M5188 3889 c-25 -14 -24 -65 2 -79 14 -8 26 -8 40 0 27 14 27 65 1
80 -23 12 -22 12 -43 -1z"/>
<path d="M5365 3986 c-20 -15 -17 -44 7 -59 12 -8 21 -7 32 2 36 30 -1 85 -39
57z"/>
<path d="M5355 3880 c-20 -23 -14 -64 11 -74 22 -8 64 20 64 43 0 19 -29 51
-47 51 -5 0 -18 -9 -28 -20z"/>
<path d="M5522 3988 c-28 -28 3 -83 33 -58 8 7 15 20 15 29 0 17 -18 41 -30
41 -3 0 -11 -5 -18 -12z"/>
<path d="M5663 3873 c-12 -4 -19 -63 -9 -63 2 0 11 -3 19 -6 22 -8 41 30 27
56 -11 20 -16 22 -37 13z"/>
<path d="M6542 3878 l3 -333 1083 -3 1082 -2 0 335 0 335 -1085 0 -1085 0 2
-332z m918 122 c24 -24 26 -53 5 -70 -13 -11 -12 -15 5 -37 25 -33 25 -54 -1
-87 -16 -20 -29 -26 -59 -26 -30 0 -43 6 -59 26 -12 15 -21 34 -21 44 0 10 9
29 21 44 11 14 16 26 10 26 -20 0 -24 49 -7 75 21 32 77 34 106 5z m175 -4
c36 -54 31 -151 -10 -192 -29 -29 -105 -35 -105 -8 0 11 6 14 20 9 33 -10 61
5 76 41 17 41 18 52 2 36 -21 -21 -75 -15 -92 10 -22 31 -20 84 4 108 29 29
85 27 105 -4z m155 -8 c13 -25 13 -31 0 -55 -21 -38 -71 -44 -94 -11 -9 12
-16 29 -16 38 0 9 7 26 16 38 23 33 73 27 94 -10z m100 26 c0 -18 -145 -234
-157 -234 -13 0 -13 3 -1 23 8 12 41 66 74 119 32 54 65 98 72 98 6 0 12 -3
12 -6z m28 -126 c15 -15 16 -63 2 -89 -13 -23 -62 -26 -84 -3 -21 20 -20 63 1
86 18 20 63 24 81 6z"/>
<path d="M7386 3984 c-9 -8 -16 -19 -16 -24 0 -10 29 -40 39 -40 29 0 42 64
15 74 -21 8 -20 8 -38 -10z"/>
<path d="M7388 3889 c-25 -14 -24 -65 2 -79 14 -8 26 -8 40 0 27 14 27 65 1
80 -23 12 -22 12 -43 -1z"/>
<path d="M7556 3984 c-30 -29 -10 -94 28 -94 38 0 51 81 17 100 -25 13 -27 13
-45 -6z"/>
<path d="M7722 3988 c-28 -28 3 -83 33 -58 8 7 15 20 15 29 0 17 -18 41 -30
41 -3 0 -11 -5 -18 -12z"/>
<path d="M7863 3873 c-12 -4 -19 -63 -9 -63 2 0 11 -3 19 -6 22 -8 41 30 27
56 -11 20 -16 22 -37 13z"/>
<path d="M8760 3875 l0 -335 1080 0 1080 0 0 335 0 335 -1080 0 -1080 0 0
-335z m919 126 c10 -10 22 -40 25 -67 15 -109 -43 -182 -114 -144 -51 27 -53
179 -3 218 25 18 70 15 92 -7z m246 -1 c40 -44 27 -175 -20 -206 -28 -18 -86
-15 -93 5 -3 10 3 12 27 6 25 -5 35 -2 56 19 14 14 25 35 25 48 0 17 -3 19
-12 10 -19 -19 -66 -14 -88 8 -44 44 -8 130 54 130 20 0 40 -8 51 -20z m169 5
c25 -25 28 -53 10 -90 -9 -19 -19 -35 -23 -35 -11 0 -71 -58 -71 -69 0 -7 25
-11 60 -11 33 0 60 -4 60 -10 0 -6 -32 -10 -75 -10 -73 0 -75 1 -75 24 0 16
17 41 50 72 53 51 65 89 34 115 -14 11 -21 11 -45 -3 -28 -16 -29 -16 -29 2 0
10 6 21 13 23 26 11 76 6 91 -8z m-324 -205 c0 -21 -24 -28 -35 -10 -8 14 3
30 21 30 8 0 14 -9 14 -20z"/>
<path d="M9613 3993 c-37 -14 -38 -164 -2 -183 23 -13 25 -13 43 6 12 11 16
35 16 84 0 81 -17 110 -57 93z"/>
<path d="M9846 3984 c-30 -30 -10 -94 29 -94 19 0 45 28 45 48 0 24 -28 62
-45 62 -7 0 -21 -7 -29 -16z"/>
<path d="M0 3165 l0 -335 435 0 435 0 0 335 0 335 -435 0 -435 0 0 -335z m480
65 c0 -64 3 -80 15 -80 8 0 15 -4 15 -10 0 -5 -7 -10 -15 -10 -10 0 -15 -10
-15 -30 0 -23 -4 -30 -20 -30 -16 0 -20 7 -20 30 0 29 -1 30 -50 30 -27 0 -50
4 -50 10 0 23 106 169 123 170 15 0 17 -10 17 -80z"/>
<path d="M408 3195 l-27 -45 29 0 c29 0 30 2 30 45 0 25 -1 45 -2 45 -2 0 -15
-21 -30 -45z"/>
<path d="M920 3165 l0 -335 1695 0 1695 0 0 335 0 335 -1695 0 -1695 0 0 -335z
m830 30 c0 -104 -2 -125 -15 -125 -13 0 -15 21 -15 125 0 104 2 125 15 125 13
0 15 -21 15 -125z m710 0 c0 -104 -2 -125 -15 -125 -13 0 -15 21 -15 125 0
104 2 125 15 125 13 0 15 -21 15 -125z m390 115 c0 -5 -7 -10 -15 -10 -14 0
-35 -29 -35 -49 0 -6 16 -11 35 -11 27 0 35 4 35 18 0 29 29 62 56 62 29 0 32
-16 4 -25 -13 -4 -20 -15 -20 -31 0 -17 5 -24 20 -24 11 0 20 -4 20 -10 0 -5
-9 -10 -20 -10 -18 0 -20 -7 -20 -75 0 -68 -2 -75 -20 -75 -18 0 -20 7 -20 75
l0 75 -35 0 -35 0 0 -75 c0 -60 -3 -75 -15 -75 -12 0 -15 15 -15 75 0 60 -3
75 -15 75 -8 0 -15 5 -15 10 0 6 7 10 15 10 9 0 15 9 15 24 0 14 7 32 16 40
17 18 64 22 64 6z m-1182 -16 c52 -36 13 -124 -55 -124 -33 0 -33 0 -33 -50 0
-43 -3 -50 -20 -50 -19 0 -20 7 -20 120 l0 120 53 0 c31 0 61 -6 75 -16z
m1052 6 c0 -5 -20 -10 -45 -10 l-45 0 0 -45 0 -45 45 0 c25 0 45 -4 45 -10 0
-5 -20 -10 -45 -10 l-45 0 0 -46 0 -46 50 4 c35 2 50 -1 50 -9 0 -9 -20 -13
-65 -13 l-65 0 0 120 0 120 60 0 c33 0 60 -4 60 -10z m600 -5 c0 -8 -9 -15
-20 -15 -11 0 -20 7 -20 15 0 8 9 15 20 15 11 0 20 -7 20 -15z m-1396 -77 c9
-12 16 -33 16 -45 0 -21 -4 -23 -60 -23 -64 0 -72 -8 -39 -41 19 -19 29 -19
78 -1 9 3 12 -1 9 -14 -5 -30 -89 -32 -117 -3 -26 28 -27 80 -4 120 15 25 24
29 60 29 32 0 46 -5 57 -22z m76 -43 c0 -52 3 -66 19 -74 22 -12 54 7 51 30
-1 7 -2 35 -1 62 1 40 4 47 21 47 18 0 20 -7 20 -84 l0 -85 -62 2 c-56 2 -64
5 -75 27 -7 14 -13 51 -13 83 0 50 2 57 20 57 18 0 20 -7 20 -65z m250 48 c0
-9 -6 -13 -15 -9 -28 10 -45 -22 -45 -85 0 -52 -2 -59 -20 -59 -18 0 -20 7
-20 84 l0 84 50 0 c39 1 50 -3 50 -15z m128 5 c7 -7 12 -41 12 -84 l0 -72 -62
1 c-59 2 -63 4 -73 31 -8 25 -6 31 18 52 16 14 41 24 58 24 33 0 35 5 15 26
-11 11 -21 12 -42 4 -30 -12 -39 -8 -31 15 8 18 87 21 105 3z m622 -51 c0 -79
20 -106 54 -71 11 10 16 34 16 75 0 52 2 59 20 59 18 0 20 -7 20 -84 l0 -84
-60 -1 c-76 -1 -90 16 -90 106 0 56 2 63 20 63 18 0 20 -7 20 -63z m250 47 c0
-12 -6 -15 -26 -10 -27 7 -58 -9 -48 -25 3 -5 21 -16 40 -24 27 -11 34 -19 34
-42 0 -40 -17 -53 -67 -53 -36 0 -43 3 -43 20 0 23 4 24 30 10 21 -11 50 -3
50 14 0 6 -17 20 -38 31 -39 21 -53 55 -32 81 18 21 100 19 100 -2z m70 -69
c0 -69 -3 -85 -15 -85 -12 0 -15 16 -15 85 0 69 3 85 15 85 12 0 15 -16 15
-85z m181 63 c25 -31 24 -89 -2 -122 -16 -21 -29 -26 -63 -26 -56 0 -81 26
-81 85 0 60 25 85 82 85 34 0 49 -5 64 -22z m184 0 c9 -15 15 -45 15 -85 0
-56 -2 -63 -20 -63 -18 0 -20 7 -20 63 0 79 -20 106 -54 71 -11 -10 -16 -34
-16 -75 0 -52 -2 -59 -20 -59 -18 0 -20 7 -20 84 l0 84 60 1 c50 0 62 -3 75
-21z"/>
<path d="M1580 3240 c0 -53 10 -61 51 -40 42 23 16 90 -35 90 -12 0 -16 -11
-16 -50z"/>
<path d="M1848 3209 c-33 -19 -21 -39 22 -39 43 0 49 9 24 34 -18 19 -23 19
-46 5z"/>
<path d="M2325 3151 c-34 -7 -47 -44 -20 -55 18 -6 55 26 55 49 0 8 -1 14 -2
14 -2 -1 -16 -4 -33 -8z"/>
<path d="M3412 3204 c-22 -15 -30 -66 -14 -90 15 -24 50 -26 71 -5 27 27 27
65 1 91 -24 24 -29 24 -58 4z"/>
<path d="M4360 3165 l0 -335 1070 0 1070 0 0 335 0 335 -1070 0 -1070 0 0
-335z m894 129 c22 -22 29 -56 24 -120 -6 -73 -36 -106 -92 -102 -22 2 -41 9
-44 17 -3 10 3 12 27 6 25 -5 35 -2 56 19 33 33 33 55 0 48 -39 -7 -71 5 -83
33 -17 37 -15 59 9 89 24 30 78 36 103 10z m170 0 c20 -19 21 -68 2 -87 -12
-12 -12 -16 5 -30 25 -22 24 -62 -1 -87 -25 -25 -107 -29 -117 -5 -8 22 2 28
26 16 25 -14 67 -5 76 16 11 31 -5 53 -46 59 -49 8 -50 18 -1 30 30 7 38 14
40 36 4 34 -27 54 -59 38 -24 -13 -34 -8 -26 15 8 20 80 20 101 -1z m166 -16
c13 -25 13 -31 0 -55 -21 -38 -71 -44 -94 -11 -9 12 -16 29 -16 38 0 9 7 26
16 38 23 33 73 27 94 -10z m100 26 c0 -19 -145 -234 -157 -234 -12 0 -10 8 8
38 13 21 46 75 73 120 28 45 56 82 63 82 7 0 13 -3 13 -6z m28 -126 c7 -7 12
-28 12 -48 0 -45 -15 -60 -57 -60 -22 0 -36 6 -43 19 -15 29 -12 67 6 85 18
19 65 21 82 4z"/>
<path d="M5188 3279 c-25 -14 -24 -75 1 -89 25 -13 27 -13 45 6 21 21 20 57
-2 77 -21 20 -21 20 -44 6z"/>
<path d="M5522 3278 c-28 -28 3 -83 33 -58 8 7 15 20 15 29 0 17 -18 41 -30
41 -3 0 -11 -5 -18 -12z"/>
<path d="M5663 3163 c-12 -4 -19 -63 -9 -63 2 0 11 -3 19 -6 22 -8 41 30 27
56 -11 20 -16 22 -37 13z"/>
<path d="M6540 3165 l0 -335 1085 0 1085 0 0 335 0 335 -1085 0 -1085 0 0
-335z m914 129 c22 -22 29 -56 24 -120 -6 -73 -36 -106 -92 -102 -22 2 -41 9
-44 17 -3 10 3 12 27 6 25 -5 35 -2 56 19 33 33 33 55 0 48 -81 -15 -123 67
-67 131 19 21 75 22 96 1z m196 0 c0 -12 -6 -15 -25 -10 -35 9 -61 -7 -74 -45
-14 -41 -14 -46 1 -31 21 21 75 15 92 -10 39 -56 5 -128 -61 -128 -27 0 -37 6
-53 33 -34 54 -24 143 20 187 26 26 100 29 100 4z m140 -16 c13 -25 13 -31 0
-55 -21 -38 -71 -44 -94 -11 -9 12 -16 29 -16 38 0 9 7 26 16 38 23 33 73 27
94 -10z m100 27 c0 -17 -145 -235 -157 -235 -11 0 -9 9 9 38 13 20 45 74 73
120 27 45 55 82 62 82 7 0 13 -2 13 -5z m28 -127 c15 -15 16 -63 2 -89 -13
-23 -62 -26 -84 -3 -21 20 -20 63 1 86 18 20 63 24 81 6z"/>
<path d="M7388 3279 c-25 -14 -24 -75 1 -89 44 -23 77 29 47 75 -18 28 -23 29
-48 14z"/>
<path d="M7555 3176 c-18 -27 -7 -69 20 -80 22 -8 21 -8 39 10 30 30 10 94
-29 94 -8 0 -22 -11 -30 -24z"/>
<path d="M7722 3278 c-28 -28 3 -83 33 -58 8 7 15 20 15 29 0 17 -18 41 -30
41 -3 0 -11 -5 -18 -12z"/>
<path d="M7863 3163 c-12 -4 -19 -63 -9 -63 2 0 11 -3 19 -6 22 -8 41 30 27
56 -11 20 -16 22 -37 13z"/>
<path d="M8760 3165 l0 -335 1080 0 1080 0 0 335 0 335 -1080 0 -1080 0 0
-335z m910 135 c44 -24 49 -153 9 -204 -27 -34 -81 -36 -103 -4 -35 49 -32
157 5 197 21 23 59 27 89 11z m254 -9 c38 -42 32 -156 -9 -197 -29 -29 -105
-35 -105 -8 0 12 7 14 28 9 36 -7 68 18 78 60 5 25 4 28 -7 18 -20 -19 -67
-15 -89 7 -44 44 -8 130 54 130 20 0 40 -8 50 -19z m203 7 c-3 -7 -22 -49 -41
-93 -20 -44 -36 -92 -36 -107 0 -21 -5 -28 -20 -28 -11 0 -20 4 -20 8 0 15 47
147 64 180 l17 32 -61 0 c-33 0 -60 4 -60 10 0 6 34 10 81 10 61 0 80 -3 76
-12z m-357 -208 c0 -21 -24 -28 -35 -10 -8 14 3 30 21 30 8 0 14 -9 14 -20z"/>
<path d="M9613 3283 c-37 -14 -39 -164 -3 -183 24 -13 26 -13 44 6 12 11 16
35 16 84 0 81 -17 110 -57 93z"/>
<path d="M9847 3272 c-21 -23 -22 -56 -1 -76 20 -21 37 -20 57 2 21 23 21 41
1 70 -18 27 -36 28 -57 4z"/>
<path d="M0 2455 l0 -335 435 0 435 0 -2 333 -3 332 -432 3 -433 2 0 -335z
m490 135 c0 -5 -20 -10 -45 -10 -45 0 -45 0 -45 -35 0 -32 2 -35 29 -35 35 0
71 -40 71 -77 0 -13 -11 -35 -25 -49 -20 -20 -33 -25 -68 -22 -32 2 -43 8 -45
22 -3 15 0 17 14 11 28 -12 65 -9 75 7 5 7 9 25 9 39 0 20 -7 30 -29 39 -16 6
-35 10 -43 8 -17 -4 -18 0 -18 62 l0 50 60 0 c33 0 60 -4 60 -10z"/>
<path d="M920 2455 l0 -335 1695 0 1695 0 0 335 0 335 -1695 0 -1695 0 0 -335z
m812 30 c-3 -101 -6 -125 -18 -125 -11 0 -14 23 -14 125 0 112 2 125 18 125
15 0 17 -11 14 -125z m1548 0 c0 -104 -2 -125 -15 -125 -8 0 -15 5 -15 12 0 9
-3 9 -12 0 -7 -7 -27 -12 -44 -12 -46 0 -78 41 -71 93 8 57 32 79 84 75 l43
-3 0 42 c0 32 4 43 15 43 13 0 15 -21 15 -125z m-1801 84 c29 -52 -7 -109 -70
-109 l-39 0 0 -50 c0 -38 -4 -50 -15 -50 -13 0 -15 20 -15 120 l0 121 62 -3
c55 -3 64 -6 77 -29z m1621 21 c0 -5 -20 -10 -45 -10 l-45 0 0 -45 0 -45 40 0
c22 0 40 -4 40 -10 0 -5 -18 -10 -40 -10 l-40 0 0 -45 0 -45 45 0 c25 0 45 -4
45 -10 0 -6 -28 -10 -65 -10 l-65 0 0 120 0 120 65 0 c37 0 65 -4 65 -10z
m-1550 -124 c0 -73 14 -95 49 -76 18 9 21 20 21 75 0 58 2 65 20 65 18 0 20
-7 20 -84 l0 -85 -62 2 c-56 2 -64 5 -75 27 -7 14 -13 51 -13 83 0 50 2 57 20
57 18 0 20 -7 20 -64z m356 54 c8 -8 14 -8 19 0 7 11 54 14 79 4 23 -9 24
-164 1 -164 -12 0 -15 13 -15 59 0 41 -5 65 -16 75 -8 9 -17 16 -19 16 -2 0
-11 -7 -19 -16 -11 -10 -16 -34 -16 -75 0 -52 -2 -59 -20 -59 -18 0 -20 7 -20
69 0 55 -3 70 -17 75 -28 11 -46 -19 -51 -84 -3 -42 -8 -60 -18 -60 -11 0 -14
19 -14 84 l0 83 56 2 c32 0 63 -4 70 -9z m280 2 c37 -24 44 -96 13 -136 -16
-20 -29 -26 -62 -26 -55 0 -87 30 -87 80 0 56 31 90 83 90 23 0 47 -4 53 -8z
m94 -4 c0 -9 3 -9 12 0 14 14 67 16 86 3 8 -5 16 -38 19 -84 6 -74 5 -77 -16
-77 -19 0 -21 5 -21 58 0 43 -5 63 -17 75 -16 13 -21 14 -37 1 -15 -10 -21
-30 -24 -74 -3 -42 -8 -60 -18 -60 -11 0 -14 19 -14 85 0 69 3 85 15 85 8 0
15 -5 15 -12z m270 -7 c5 -11 10 -49 10 -84 l0 -65 -57 -1 c-65 0 -83 10 -83
49 0 34 17 49 64 57 37 6 48 26 21 37 -8 3 -26 1 -39 -4 -18 -6 -26 -5 -29 5
-8 20 2 25 54 25 38 0 51 -4 59 -19z m205 -33 c10 -29 21 -57 25 -61 3 -4 15
20 25 53 14 45 23 60 37 60 10 0 18 -2 18 -4 0 -12 -73 -192 -87 -217 -13 -21
-25 -29 -45 -29 -32 0 -38 15 -8 23 11 3 25 16 31 30 10 21 7 37 -16 99 -30
79 -45 104 -45 73 0 -14 -3 -16 -12 -7 -22 22 -48 -25 -48 -85 0 -40 -4 -53
-15 -53 -12 0 -15 16 -15 84 l0 83 69 2 69 1 17 -52z m693 30 c6 -13 14 -33
17 -45 6 -22 4 -23 -54 -23 -47 0 -61 -3 -61 -15 0 -26 44 -47 74 -35 24 9 27
8 24 -7 -5 -28 -88 -30 -112 -4 -24 27 -26 90 -3 124 14 22 25 27 61 27 34 0
45 -4 54 -22z m168 11 c8 -7 14 -7 19 1 3 5 21 10 40 10 48 0 65 -29 65 -107
0 -56 -2 -63 -20 -63 -18 0 -20 7 -20 64 0 46 -4 67 -16 77 -27 22 -54 -21
-54 -87 0 -41 -4 -54 -15 -54 -12 0 -15 13 -15 61 0 33 -4 58 -9 55 -5 -3 -8
2 -7 11 2 22 -19 27 -38 8 -11 -12 -16 -34 -16 -76 0 -46 -3 -59 -15 -59 -12
0 -15 16 -15 84 l0 83 52 2 c28 0 57 -4 64 -10z m274 -8 c5 -11 10 -49 10 -84
l0 -64 -54 -2 c-38 0 -60 4 -70 15 -39 38 2 94 68 94 29 0 33 12 11 30 -12 10
-21 10 -42 1 -21 -10 -28 -9 -34 1 -11 18 9 28 58 28 32 0 45 -5 53 -19z"/>
<path d="M3177 2492 c-24 -26 -22 -88 2 -102 55 -29 101 68 49 104 -28 20 -31
20 -51 -2z"/>
<path d="M1370 2529 l0 -51 32 6 c72 14 62 96 -11 96 -19 0 -21 -6 -21 -51z"/>
<path d="M2119 2503 c-27 -6 -42 -52 -29 -84 14 -34 32 -41 66 -29 22 9 25 15
22 51 -3 44 -28 70 -59 62z"/>
<path d="M2461 2426 c-9 -11 -8 -18 4 -30 21 -20 55 -5 55 24 0 24 -41 28 -59
6z"/>
<path d="M3366 2494 c-25 -25 -19 -34 24 -34 44 0 55 21 21 40 -25 13 -27 13
-45 -6z"/>
<path d="M3835 2441 c-34 -7 -47 -44 -20 -55 18 -6 55 26 55 49 0 8 -1 14 -2
14 -2 -1 -16 -4 -33 -8z"/>
<path d="M4360 2455 l0 -335 1070 0 1070 0 0 335 0 335 -1070 0 -1070 0 0
-335z m906 113 c25 -47 16 -149 -16 -183 -20 -21 -32 -25 -64 -23 -22 2 -41 9
-44 17 -3 10 3 12 27 6 25 -5 35 -2 56 19 33 33 33 55 0 48 -39 -7 -71 5 -83
33 -17 37 -15 59 9 89 16 20 29 26 59 26 34 0 42 -4 56 -32z m174 -48 c0 -64
3 -80 15 -80 8 0 15 -4 15 -10 0 -5 -7 -10 -15 -10 -10 0 -15 -10 -15 -30 0
-23 -4 -30 -20 -30 -16 0 -20 7 -20 30 0 30 0 30 -56 30 -31 0 -54 3 -52 8 2
4 28 45 58 90 73 110 90 110 90 2z m150 48 c22 -40 -2 -82 -49 -86 -54 -5 -79
48 -45 96 23 33 73 27 94 -10z m100 27 c0 -19 -145 -235 -157 -235 -13 0 -14
3 -1 23 8 12 41 66 73 120 33 53 65 97 72 97 7 0 13 -2 13 -5z m28 -127 c7 -7
12 -28 12 -48 0 -45 -15 -60 -57 -60 -22 0 -36 6 -43 19 -15 29 -12 67 6 85
18 19 65 21 82 4z"/>
<path d="M5188 2569 c-25 -14 -24 -75 1 -89 25 -13 27 -13 45 6 21 21 20 57
-2 77 -21 20 -21 20 -44 6z"/>
<path d="M5369 2493 c-13 -21 -25 -41 -27 -45 -2 -5 10 -8 27 -8 30 0 31 1 31
45 0 25 -2 45 -4 45 -2 0 -15 -17 -27 -37z"/>
<path d="M5522 2568 c-28 -28 3 -83 33 -58 8 7 15 20 15 29 0 17 -18 41 -30
41 -3 0 -11 -5 -18 -12z"/>
<path d="M5663 2453 c-12 -4 -19 -63 -9 -63 2 0 11 -3 20 -6 20 -8 38 34 24
59 -9 18 -14 19 -35 10z"/>
<path d="M6547 2784 c-4 -4 -6 -155 -6 -335 l0 -329 1084 0 1085 0 0 335 0
335 -1078 0 c-593 0 -1082 -3 -1085 -6z m913 -204 c24 -24 26 -53 5 -70 -13
-11 -12 -15 5 -37 25 -33 25 -54 -1 -87 -16 -20 -29 -26 -59 -26 -67 0 -100
59 -61 111 12 16 17 29 11 29 -19 0 -23 49 -6 75 21 32 77 34 106 5z m200 13
c0 -3 -14 -35 -30 -70 -17 -36 -36 -87 -42 -114 -9 -37 -16 -49 -30 -49 -15 0
-17 5 -12 28 11 44 46 136 60 157 22 31 17 35 -41 35 -30 0 -55 5 -55 10 0 6
32 10 75 10 41 0 75 -3 75 -7z m130 -25 c13 -25 13 -31 0 -55 -21 -38 -71 -44
-94 -11 -9 12 -16 29 -16 38 0 9 7 26 16 38 23 33 73 27 94 -10z m100 27 c0
-19 -145 -235 -157 -235 -13 0 -14 3 -1 23 8 12 41 66 74 119 32 54 65 98 72
98 6 0 12 -2 12 -5z m28 -127 c15 -15 16 -63 2 -89 -13 -23 -62 -26 -84 -3
-21 20 -20 63 1 86 18 20 63 24 81 6z"/>
<path d="M7386 2564 c-9 -8 -16 -19 -16 -24 0 -8 28 -40 35 -40 20 0 35 17 35
40 0 16 -7 30 -16 34 -21 8 -20 8 -38 -10z"/>
<path d="M7388 2469 c-25 -14 -24 -65 2 -79 14 -8 26 -8 40 0 27 14 27 65 1
80 -23 12 -22 12 -43 -1z"/>
<path d="M7722 2568 c-28 -28 3 -83 33 -58 8 7 15 20 15 29 0 17 -18 41 -30
41 -3 0 -11 -5 -18 -12z"/>
<path d="M7863 2453 c-12 -4 -19 -63 -9 -63 2 0 11 -3 20 -6 20 -8 38 34 24
59 -9 18 -14 19 -35 10z"/>
<path d="M8760 2455 l0 -335 1080 0 1080 0 0 335 0 335 -1080 0 -1080 0 0
-335z m910 135 c44 -24 49 -153 9 -204 -27 -34 -81 -36 -103 -4 -34 49 -32
162 5 199 21 21 60 25 89 9z m254 -9 c38 -42 32 -156 -9 -197 -29 -29 -105
-35 -105 -8 0 12 7 14 28 9 36 -7 68 18 78 60 5 25 4 28 -7 18 -20 -19 -67
-15 -89 7 -44 44 -8 130 54 130 20 0 40 -8 50 -19z m168 2 c22 -20 24 -66 3
-83 -14 -12 -13 -15 5 -35 27 -28 25 -56 -4 -84 -30 -28 -109 -27 -114 2 -3
15 0 16 23 7 36 -14 72 -3 79 23 7 27 -25 57 -60 57 -36 0 -29 17 10 24 49 9
64 56 25 77 -16 8 -28 8 -45 0 -19 -8 -24 -8 -24 3 0 7 3 16 7 19 13 13 77 7
95 -10z m-322 -203 c0 -21 -24 -28 -35 -10 -8 14 3 30 21 30 8 0 14 -9 14 -20z"/>
<path d="M9613 2573 c-37 -14 -39 -164 -3 -183 24 -13 26 -13 44 6 12 11 16
35 16 84 0 81 -17 110 -57 93z"/>
<path d="M9847 2562 c-21 -23 -22 -56 -1 -76 20 -21 37 -20 57 2 21 23 21 41
1 70 -18 27 -36 28 -57 4z"/>
<path d="M0 1740 l0 -330 435 0 435 0 0 330 0 330 -435 0 -435 0 0 -330z m490
124 c0 -12 -6 -15 -25 -10 -19 5 -32 0 -50 -18 -33 -33 -33 -55 0 -48 42 8 72
-6 83 -37 21 -60 -10 -111 -69 -111 -28 0 -42 6 -53 22 -37 52 -32 138 10 188
21 24 34 30 65 30 29 0 39 -4 39 -16z"/>
<path d="M408 1759 c-32 -18 -14 -99 22 -99 37 0 54 82 21 100 -23 12 -22 12
-43 -1z"/>
<path d="M920 1740 l0 -330 1695 0 1695 0 0 330 0 330 -1695 0 -1695 0 0 -330z
m1770 27 l0 -124 -52 -1 c-29 -1 -60 1 -69 4 -24 7 -42 58 -35 97 9 49 36 70
86 65 l40 -4 0 43 c0 32 4 43 15 43 13 0 15 -20 15 -123z m260 -2 c0 -104 -2
-125 -15 -125 -13 0 -15 21 -15 125 0 104 2 125 15 125 13 0 15 -21 15 -125z
m-737 23 l57 -93 0 93 c0 75 3 92 15 92 13 0 15 -20 15 -120 0 -109 -2 -120
-18 -120 -19 0 -45 31 -77 93 -11 20 -22 37 -26 37 -4 0 -10 10 -15 23 -5 15
-9 -5 -11 -65 -3 -80 -6 -88 -23 -88 -19 0 -20 7 -20 120 0 119 0 120 24 120
19 0 34 -18 79 -92z m275 2 c29 -27 30 -88 1 -124 -17 -21 -29 -26 -68 -26
-42 0 -49 3 -65 31 -21 36 -17 91 10 120 24 27 93 26 122 -1z m282 -44 c0 -73
14 -95 49 -76 18 9 21 20 21 75 0 58 2 65 20 65 18 0 20 -7 20 -84 l0 -84 -60
-1 c-76 -1 -90 16 -90 106 0 56 2 63 20 63 18 0 20 -7 20 -64z m348 47 c5 -10
12 -30 16 -45 l6 -28 -60 0 c-67 0 -80 -17 -36 -45 20 -13 29 -14 46 -5 25 13
35 8 27 -15 -5 -10 -20 -15 -50 -15 -58 0 -80 24 -80 85 0 61 23 85 79 85 31
0 46 -5 52 -17z"/>
<path d="M2587 1772 c-23 -25 -21 -75 2 -96 48 -44 98 47 51 94 -25 25 -32 25
-53 2z"/>
<path d="M2397 1772 c-23 -25 -21 -68 3 -92 25 -25 34 -25 60 2 23 25 25 40 9
71 -22 41 -47 47 -72 19z"/>
<path d="M3037 1772 c-25 -27 -21 -32 23 -32 44 0 55 21 21 40 -25 13 -25 13
-44 -8z"/>
<path d="M4360 1740 l0 -330 738 -1 c405 0 886 -1 1067 -2 l330 -2 3 333 2
332 -1070 0 -1070 0 0 -330z m930 137 c0 -2 -13 -31 -29 -64 -17 -34 -37 -86
-46 -117 -10 -34 -22 -56 -31 -56 -8 0 -14 6 -14 13 0 18 25 96 49 150 12 27
21 51 21 53 0 2 -25 4 -55 4 -30 0 -55 5 -55 10 0 6 33 10 80 10 44 0 80 -1
80 -3z m142 -14 c19 -17 25 -68 8 -78 -7 -4 -5 -14 5 -28 23 -33 19 -83 -7
-101 -29 -21 -87 -20 -110 1 -22 20 -24 71 -3 100 10 14 12 24 5 28 -16 10
-12 62 6 79 20 21 73 20 96 -1z m158 -15 c13 -25 13 -31 0 -55 -19 -34 -63
-42 -91 -17 -23 21 -24 52 -3 82 23 33 73 27 94 -10z m100 26 c0 -18 -144
-234 -156 -234 -17 0 -16 2 71 143 32 53 65 97 72 97 7 0 13 -3 13 -6z m28
-126 c7 -7 12 -28 12 -48 0 -45 -15 -60 -57 -60 -22 0 -36 6 -43 19 -15 29
-12 67 6 85 18 19 65 21 82 4z"/>
<path d="M5362 1848 c-30 -30 0 -78 37 -58 32 17 21 70 -14 70 -6 0 -16 -5
-23 -12z"/>
<path d="M5355 1740 c-20 -23 -14 -64 11 -74 23 -9 64 20 64 44 0 17 -34 50
-51 50 -3 0 -14 -9 -24 -20z"/>
<path d="M5522 1848 c-28 -28 3 -83 33 -58 8 7 15 20 15 29 0 17 -18 41 -30
41 -3 0 -11 -5 -18 -12z"/>
<path d="M5663 1733 c-12 -4 -19 -63 -9 -63 2 0 11 -3 19 -6 22 -8 41 30 27
56 -11 20 -16 22 -37 13z"/>
<path d="M6543 1738 l2 -333 1083 -3 1082 -2 0 335 0 335 -1085 0 -1085 0 3
-332z m917 122 c24 -24 26 -53 5 -70 -13 -11 -12 -15 5 -37 25 -33 25 -54 -1
-87 -16 -20 -29 -26 -59 -26 -66 0 -100 57 -65 106 11 17 12 27 3 52 -25 66
60 114 112 62z m180 10 c0 -5 -18 -10 -40 -10 -39 0 -40 -1 -40 -35 0 -30 3
-35 23 -35 41 0 67 -27 67 -71 0 -55 -28 -81 -83 -77 -30 2 -43 8 -45 21 -3
15 0 16 24 7 21 -8 32 -7 50 5 49 32 16 95 -49 95 -28 0 -29 2 -23 31 3 17 6
42 6 55 0 22 4 24 55 24 30 0 55 -4 55 -10z m150 -22 c13 -25 13 -31 0 -55
-21 -38 -71 -44 -94 -11 -9 12 -16 29 -16 38 0 9 7 26 16 38 23 33 73 27 94
-10z m100 27 c0 -18 -145 -235 -156 -235 -12 0 -10 8 8 38 13 20 45 74 73 120
27 45 55 82 62 82 7 0 13 -2 13 -5z m28 -127 c15 -15 16 -63 2 -89 -13 -23
-62 -26 -84 -3 -21 20 -20 63 1 86 18 20 63 24 81 6z"/>
<path d="M7386 1844 c-9 -8 -16 -19 -16 -24 0 -10 29 -40 39 -40 29 0 42 64
15 74 -21 8 -20 8 -38 -10z"/>
<path d="M7388 1749 c-25 -14 -24 -65 2 -79 14 -8 26 -8 40 0 27 14 27 65 1
80 -23 12 -22 12 -43 -1z"/>
<path d="M7722 1848 c-28 -28 3 -83 33 -58 8 7 15 20 15 29 0 17 -18 41 -30
41 -3 0 -11 -5 -18 -12z"/>
<path d="M7863 1733 c-12 -4 -19 -63 -9 -63 2 0 11 -3 20 -6 20 -8 38 34 24
59 -9 18 -14 19 -35 10z"/>
<path d="M8760 1735 l0 -335 1080 0 1080 0 0 335 0 335 -1080 0 -1080 0 0
-335z m910 135 c44 -24 49 -153 9 -204 -27 -34 -81 -36 -103 -4 -34 49 -32
162 5 199 21 21 60 25 89 9z m246 2 c6 -4 17 -17 23 -30 10 -19 10 -28 -1 -44
-12 -18 -12 -26 3 -55 29 -57 -1 -103 -68 -103 -61 0 -96 68 -57 111 12 13 13
22 5 38 -15 28 -14 52 6 73 16 18 68 24 89 10z m202 -11 c3 -10 -3 -12 -25 -7
-37 8 -69 -16 -79 -59 -5 -25 -4 -28 7 -17 37 34 109 -3 109 -57 0 -73 -86
-110 -129 -55 -37 46 -26 149 19 194 24 24 90 25 98 1z m-348 -201 c0 -21 -24
-28 -35 -10 -8 14 3 30 21 30 8 0 14 -9 14 -20z"/>
<path d="M9613 1853 c-37 -14 -39 -164 -3 -183 24 -13 26 -13 44 6 12 11 16
35 16 84 0 81 -17 110 -57 93z"/>
<path d="M9850 1845 c-26 -31 13 -82 44 -56 19 16 21 42 4 59 -16 16 -33 15
-48 -3z"/>
<path d="M9844 1735 c-15 -23 -15 -27 0 -50 18 -28 28 -30 57 -15 23 13 25 53
3 74 -22 23 -41 20 -60 -9z"/>
<path d="M10026 1754 c-21 -20 -20 -47 2 -74 25 -30 58 -20 67 21 5 22 2 36
-11 50 -21 23 -37 24 -58 3z"/>
<path d="M0 1025 l0 -335 435 0 435 0 0 335 0 335 -435 0 -435 0 0 -335z m500
136 c0 -4 -13 -38 -30 -73 -16 -36 -34 -86 -41 -112 -8 -34 -16 -46 -30 -46
-17 0 -17 3 -3 53 9 28 26 76 40 106 13 29 24 55 24 57 0 2 -25 4 -55 4 -30 0
-55 5 -55 10 0 6 32 10 75 10 41 0 75 -4 75 -9z"/>
<path d="M920 1025 l0 -335 1695 0 1695 0 0 335 0 335 -1695 0 -1695 0 0 -335z
m1423 88 c14 -32 32 -73 39 -92 l14 -34 39 91 c33 78 43 92 62 92 23 0 23 -2
23 -120 0 -113 -1 -120 -20 -120 -18 0 -20 7 -20 83 l-1 82 -36 -82 c-20 -46
-42 -83 -48 -83 -6 0 -27 37 -46 83 l-34 82 -3 -82 c-3 -75 -5 -83 -22 -83
-19 0 -20 7 -20 120 0 119 0 120 24 120 19 0 28 -11 49 -57z m335 -25 c7 -7
12 -41 12 -84 l0 -73 -62 2 c-59 2 -63 4 -72 30 -14 39 2 60 52 71 42 10 55
29 27 40 -8 3 -26 1 -40 -4 -19 -7 -25 -6 -25 4 0 7 3 16 7 19 11 12 88 8 101
-5z m152 -4 c0 -12 -7 -14 -28 -9 -19 4 -33 1 -41 -8 -13 -17 -2 -30 42 -46
21 -8 27 -17 27 -39 0 -39 -17 -52 -67 -52 -36 0 -43 3 -43 20 0 23 4 24 30
10 21 -11 50 -3 50 14 0 6 -17 20 -38 31 -39 21 -53 55 -32 81 18 20 100 19
100 -2z m130 0 c0 -12 -6 -15 -21 -11 -26 7 -49 -1 -49 -17 0 -6 17 -20 38
-31 67 -36 53 -95 -24 -95 -37 0 -44 3 -44 20 0 17 3 18 26 10 19 -8 31 -7 41
2 13 11 12 15 -7 30 -12 10 -28 18 -35 18 -25 0 -36 74 -12 83 6 3 29 6 50 6
28 1 37 -3 37 -15z"/>
<path d="M2591 997 c-12 -12 3 -47 20 -47 6 0 8 4 5 9 -3 5 2 8 12 7 10 0 18
7 20 20 2 17 -2 22 -22 22 -13 0 -29 -5 -35 -11z"/>
<path d="M4360 1025 l0 -335 1070 0 1070 0 0 335 0 335 -1070 0 -1070 0 0
-335z m904 123 c20 -28 20 -52 1 -68 -13 -11 -12 -15 5 -37 25 -33 25 -54 -1
-87 -16 -20 -29 -26 -59 -26 -66 0 -100 57 -65 106 11 17 12 27 3 52 -10 25
-9 34 5 56 23 35 88 37 111 4z m186 6 c0 -12 -6 -15 -21 -11 -32 8 -67 -12
-79 -46 -13 -39 -13 -44 2 -29 17 17 68 15 90 -5 25 -23 24 -87 -2 -113 -27
-27 -81 -26 -105 0 -29 32 -32 117 -6 167 23 46 31 51 84 52 28 1 37 -3 37
-15z m141 -15 c10 -27 10 -36 -2 -58 -18 -32 -63 -40 -90 -15 -22 20 -24 42
-7 79 9 20 18 25 48 25 33 0 39 -4 51 -31z m99 25 c0 -19 -144 -234 -156 -234
-17 0 -17 2 71 143 32 53 65 97 72 97 7 0 13 -3 13 -6z m28 -126 c7 -7 12 -28
12 -48 0 -45 -15 -60 -57 -60 -22 0 -36 6 -43 19 -15 29 -12 67 6 85 18 19 65
21 82 4z"/>
<path d="M5186 1134 c-9 -8 -16 -19 -16 -24 0 -10 29 -40 39 -40 29 0 42 64
15 74 -21 8 -20 8 -38 -10z"/>
<path d="M5188 1039 c-25 -14 -24 -65 2 -79 14 -8 26 -8 40 0 27 14 27 65 1
80 -23 12 -22 12 -43 -1z"/>
<path d="M5372 1053 c-23 -9 -34 -41 -21 -65 12 -23 28 -38 41 -38 15 0 38 33
38 55 0 13 -7 31 -16 39 -16 17 -21 18 -42 9z"/>
<path d="M5522 1138 c-28 -28 3 -83 33 -58 8 7 15 20 15 29 0 17 -18 41 -30
41 -3 0 -11 -5 -18 -12z"/>
<path d="M5663 1023 c-12 -4 -19 -63 -9 -63 2 0 11 -3 20 -6 20 -8 38 34 24
59 -9 18 -14 19 -35 10z"/>
<path d="M6541 1025 l1 -335 1084 0 1084 0 0 335 0 335 -1086 0 -1085 0 2
-335z m913 129 c37 -37 35 -158 -4 -199 -28 -30 -110 -37 -110 -9 0 12 7 14
30 9 23 -5 35 -1 55 19 33 33 33 55 0 48 -39 -7 -71 5 -83 33 -17 37 -15 59 9
89 24 30 78 36 103 10z m186 -64 c0 -64 3 -80 15 -80 8 0 15 -4 15 -10 0 -5
-7 -10 -15 -10 -10 0 -15 -10 -15 -30 0 -23 -4 -30 -20 -30 -16 0 -20 7 -20
30 0 30 0 30 -56 30 -31 0 -54 3 -52 8 2 4 28 45 58 90 73 110 90 110 90 2z
m149 49 c34 -60 -53 -124 -93 -67 -9 12 -16 29 -16 38 0 9 7 26 16 38 22 32
73 27 93 -9z m101 26 c0 -18 -145 -235 -157 -235 -12 0 -10 8 8 38 13 21 46
75 74 120 27 45 55 82 62 82 7 0 13 -2 13 -5z m28 -127 c15 -15 16 -63 2 -89
-13 -23 -62 -26 -84 -3 -21 20 -20 63 1 86 18 20 63 24 81 6z"/>
<path d="M7388 1139 c-25 -14 -24 -75 1 -89 25 -13 27 -13 45 6 21 21 20 57
-2 77 -21 20 -21 20 -44 6z"/>
<path d="M7566 1060 c-14 -22 -26 -42 -26 -45 0 -3 14 -5 30 -5 29 0 30 2 30
45 0 25 -2 45 -4 45 -2 0 -15 -18 -30 -40z"/>
<path d="M7722 1138 c-28 -28 3 -83 33 -58 8 7 15 20 15 29 0 17 -18 41 -30
41 -3 0 -11 -5 -18 -12z"/>
<path d="M7862 1021 c-19 -12 -11 -65 10 -69 24 -5 42 32 28 58 -12 22 -18 24
-38 11z"/>
<path d="M8760 1025 l0 -335 1080 0 1080 0 0 335 0 335 -1080 0 -1080 0 0
-335z m919 126 c38 -38 35 -158 -5 -202 -26 -28 -80 -25 -100 6 -34 52 -30
154 7 193 25 27 72 29 98 3z m246 -1 c40 -44 27 -175 -20 -206 -28 -18 -86
-15 -93 5 -3 10 3 12 25 7 34 -8 67 14 78 51 5 20 3 21 -33 16 -32 -4 -44 -1
-61 16 -45 45 -10 131 53 131 20 0 40 -8 51 -20z m167 3 c22 -20 24 -66 3 -83
-14 -12 -13 -15 5 -35 25 -27 25 -46 -1 -79 -18 -23 -27 -27 -68 -24 -34 2
-47 7 -49 21 -3 15 0 16 24 7 38 -15 83 3 84 33 0 16 -42 47 -65 47 -37 0 -30
17 9 24 49 9 64 56 25 77 -16 8 -28 8 -45 0 -19 -8 -24 -8 -24 3 0 7 3 16 7
19 13 13 77 7 95 -10z m-322 -203 c0 -11 -6 -20 -14 -20 -18 0 -29 16 -21 30
11 18 35 11 35 -10z"/>
<path d="M9607 1135 c-32 -32 -33 -138 0 -170 18 -19 28 -19 47 1 12 11 16 35
16 84 0 49 -4 73 -16 84 -19 20 -29 20 -47 1z"/>
<path d="M9847 1132 c-22 -25 -21 -55 2 -76 43 -39 90 18 57 69 -20 30 -37 32
-59 7z"/>
<path d="M0 325 l0 -325 435 0 435 0 0 325 0 325 -435 0 -435 0 0 -325z m485
104 c15 -27 15 -33 1 -53 -13 -21 -13 -25 1 -39 22 -21 21 -72 -2 -97 -22 -24
-81 -27 -113 -4 -27 19 -30 69 -5 96 13 14 14 21 5 30 -17 17 -15 64 4 82 9 9
32 16 54 16 34 0 42 -4 55 -31z"/>
<path d="M406 427 c-21 -16 -15 -51 11 -61 33 -13 57 36 31 62 -15 15 -20 15
-42 -1z"/>
<path d="M412 333 c-7 -2 -17 -13 -22 -23 -22 -41 27 -85 61 -54 23 21 24 47
3 68 -16 17 -21 18 -42 9z"/>
<path d="M920 325 l0 -325 1695 0 1695 0 0 325 0 325 -1695 0 -1695 0 0 -325z
m810 25 l0 -110 45 0 c25 0 45 -4 45 -10 0 -6 -28 -10 -65 -10 l-65 0 0 120
c0 113 1 120 20 120 19 0 20 -7 20 -110z m921 100 c10 -6 26 -24 34 -40 30
-58 11 -155 -34 -180 -11 -5 -41 -10 -66 -10 -40 0 -52 5 -76 31 -24 26 -29
40 -29 81 0 53 19 101 47 117 23 14 99 14 124 1z m624 1 c3 -5 1 -13 -5 -16
-15 -9 -43 3 -35 15 8 13 32 13 40 1z m85 -36 c0 -18 5 -25 20 -25 11 0 20 -4
20 -10 0 -5 -9 -10 -20 -10 -19 0 -21 -5 -18 -62 3 -53 6 -63 21 -62 9 1 17
-5 17 -13 0 -10 -9 -13 -32 -11 l-33 3 -3 73 c-2 55 -6 72 -17 72 -8 0 -15 5
-15 10 0 6 7 10 15 10 9 0 15 9 15 25 0 16 6 25 15 25 9 0 15 -9 15 -25z
m-1490 -84 c0 -41 5 -65 16 -75 19 -20 23 -20 46 1 13 12 18 31 18 75 0 45 3
58 15 58 12 0 15 -16 15 -84 l0 -83 -52 -2 c-74 -1 -88 14 -88 101 0 54 3 68
15 68 12 0 15 -13 15 -59z m286 41 c19 -24 19 -152 0 -152 -10 0 -15 18 -18
66 -4 60 -15 83 -40 84 -23 0 -38 -36 -38 -91 0 -46 -3 -59 -15 -59 -12 0 -15
16 -15 83 l0 83 57 2 c43 1 59 -3 69 -16z m202 -89 c-3 -96 -6 -107 -27 -124
-30 -24 -109 -26 -118 -4 -8 23 1 27 30 14 22 -10 31 -9 52 5 14 9 25 24 25
34 0 14 -8 17 -44 14 -36 -3 -46 0 -60 19 -23 33 -21 104 4 129 15 15 32 19
81 19 l61 -1 -4 -105z m517 85 c22 -32 19 -90 -6 -123 -18 -22 -28 -26 -60
-23 l-39 4 0 -43 c0 -36 -3 -43 -20 -43 -19 0 -20 7 -20 124 l0 124 65 1 c55
1 66 -2 80 -21z m165 3 c5 -11 10 -49 10 -85 l0 -65 -62 2 c-59 2 -63 4 -72
30 -14 39 2 60 52 71 43 10 55 29 26 40 -8 3 -25 1 -36 -5 -23 -12 -33 -6 -25
16 10 24 93 21 107 -4z m170 5 c0 -10 -11 -14 -36 -13 -42 1 -64 -21 -64 -64
0 -37 33 -60 73 -52 23 5 29 3 25 -8 -6 -20 -75 -23 -102 -5 -42 27 -41 112 1
144 24 17 103 16 103 -2z m60 -71 c0 -69 -3 -85 -15 -85 -12 0 -15 16 -15 85
0 69 3 85 15 85 12 0 15 -16 15 -85z m194 17 l22 -64 23 66 c17 50 28 66 42
66 18 0 18 -1 -1 -50 -11 -27 -29 -74 -41 -102 -30 -77 -46 -98 -74 -98 -14 0
-25 5 -25 10 0 6 7 10 15 10 8 0 21 13 29 29 14 26 13 33 -14 102 -34 86 -36
102 -13 97 10 -2 24 -27 37 -66z"/>
<path d="M2560 427 c-68 -34 -61 -160 10 -182 31 -10 70 13 86 50 34 83 -27
167 -96 132z"/>
<path d="M2250 350 c-29 -29 -26 -76 5 -96 24 -16 27 -16 45 1 27 25 28 90 1
105 -26 13 -28 13 -51 -10z"/>
<path d="M2786 354 c-29 -29 -12 -114 23 -114 18 0 41 28 47 56 5 25 1 37 -15
53 -25 25 -35 26 -55 5z"/>
<path d="M2950 284 c-11 -12 -11 -18 2 -30 20 -20 58 -3 58 26 0 25 -41 28
-60 4z"/>
<path d="M4360 325 l0 -325 1070 0 1070 0 0 325 0 325 -1070 0 -1070 0 0 -325z
m904 113 c20 -28 20 -52 1 -68 -13 -11 -12 -15 5 -37 25 -33 25 -54 -1 -87
-16 -20 -29 -26 -59 -26 -66 0 -100 57 -65 106 11 17 12 27 3 52 -10 25 -9 34
5 56 23 35 88 37 111 4z m170 0 c31 -43 21 -77 -39 -132 -30 -28 -55 -54 -55
-58 0 -5 27 -8 60 -8 33 0 60 -4 60 -10 0 -6 -32 -10 -75 -10 -72 0 -75 1 -75
23 0 24 19 49 62 83 33 26 48 56 42 82 -8 28 -31 35 -65 18 -27 -13 -29 -13
-29 4 0 22 13 28 62 29 27 1 41 -5 52 -21z m156 -10 c13 -25 13 -31 0 -55 -19
-34 -63 -42 -91 -17 -23 21 -24 52 -3 82 23 33 73 27 94 -10z m33 -88 c-42
-66 -82 -120 -90 -120 -16 0 -15 3 72 143 38 62 66 97 76 97 13 0 -1 -29 -58
-120z m95 -12 c7 -7 12 -28 12 -48 0 -43 -14 -60 -51 -60 -36 0 -59 24 -59 60
0 16 7 36 16 44 18 19 65 21 82 4z"/>
<path d="M5186 424 c-9 -8 -16 -19 -16 -24 0 -10 29 -40 39 -40 29 0 42 64 15
74 -21 8 -20 8 -38 -10z"/>
<path d="M5188 329 c-25 -14 -24 -65 2 -79 14 -8 26 -8 40 0 27 14 27 65 1 80
-23 12 -22 12 -43 -1z"/>
<path d="M5522 428 c-28 -28 3 -83 33 -58 8 7 15 20 15 29 0 17 -18 41 -30 41
-3 0 -11 -5 -18 -12z"/>
<path d="M5662 311 c-19 -12 -11 -65 11 -69 21 -4 39 36 25 61 -10 19 -17 21
-36 8z"/>
<path d="M6542 325 l-4 -325 1086 0 1086 0 0 325 0 325 -1082 0 -1083 0 -3
-325z m918 115 c24 -24 26 -47 6 -69 -13 -14 -11 -20 9 -45 l22 -28 54 81 c72
109 89 109 89 1 0 -64 3 -80 15 -80 8 0 15 -4 15 -10 0 -5 -7 -10 -15 -10 -10
0 -15 -10 -15 -30 0 -23 -4 -30 -20 -30 -16 0 -20 7 -20 30 0 30 -1 30 -53 30
-48 0 -56 -3 -75 -30 -31 -41 -90 -43 -121 -4 -26 33 -26 55 -2 85 16 19 16
25 5 37 -34 33 2 92 56 92 17 0 39 -9 50 -20z m330 -12 c13 -25 13 -31 0 -55
-21 -38 -71 -44 -94 -11 -9 12 -16 29 -16 38 0 9 7 26 16 38 23 33 73 27 94
-10z m100 27 c0 -17 -145 -235 -157 -235 -16 0 -15 3 72 143 32 53 65 97 72
97 7 0 13 -2 13 -5z m28 -127 c15 -15 16 -63 2 -89 -13 -23 -62 -26 -84 -3 -9
8 -16 28 -16 44 0 16 7 36 16 44 18 19 65 21 82 4z"/>
<path d="M7386 424 c-9 -8 -16 -19 -16 -24 0 -10 29 -40 39 -40 29 0 42 64 15
74 -21 8 -20 8 -38 -10z"/>
<path d="M7568 351 c-16 -22 -28 -42 -28 -45 0 -3 14 -6 30 -6 29 0 30 2 30
45 0 25 -1 45 -2 45 -2 0 -15 -18 -30 -39z"/>
<path d="M7388 329 c-25 -14 -24 -65 2 -79 14 -8 26 -8 40 0 27 14 27 65 1 80
-23 12 -22 12 -43 -1z"/>
<path d="M7722 428 c-28 -28 3 -83 33 -58 8 7 15 20 15 29 0 17 -18 41 -30 41
-3 0 -11 -5 -18 -12z"/>
<path d="M7863 313 c-12 -4 -19 -63 -9 -63 2 0 11 -3 19 -6 22 -8 41 30 27 56
-11 20 -16 22 -37 13z"/>
<path d="M8760 325 l0 -325 1080 0 1080 0 0 325 0 325 -1080 0 -1080 0 0 -325z
m910 125 c44 -24 49 -153 9 -204 -28 -36 -82 -36 -105 -1 -33 51 -30 159 7
196 21 21 59 25 89 9z m246 2 c6 -4 17 -17 23 -30 10 -19 10 -28 -1 -44 -12
-18 -12 -26 3 -55 29 -57 -1 -103 -68 -103 -61 0 -96 68 -57 111 12 13 13 22
5 38 -15 28 -14 52 6 73 16 18 68 24 89 10z m214 4 c0 -2 -16 -37 -35 -78 -19
-41 -37 -94 -41 -117 -5 -32 -11 -41 -26 -41 -25 0 -21 19 26 138 l33 82 -58
0 c-33 0 -59 4 -59 10 0 6 33 10 80 10 44 0 80 -2 80 -4z m-357 -202 c9 -10
-4 -34 -18 -34 -17 0 -28 17 -20 30 7 11 28 13 38 4z"/>
<path d="M9607 425 c-32 -32 -33 -138 0 -170 18 -19 28 -19 47 1 12 11 16 35
16 84 0 49 -4 73 -16 84 -19 20 -29 20 -47 1z"/>
<path d="M9858 429 c-24 -14 -23 -46 3 -59 37 -20 67 28 37 58 -14 14 -18 14
-40 1z"/>
<path d="M9846 317 c-30 -45 8 -92 54 -67 24 13 26 52 4 74 -22 22 -41 20 -58
-7z"/>
</g>
</svg>
