<?xml version="1.0" standalone="no"?>
<!DOCTYPE svg PUBLIC "-//W3C//DTD SVG 20010904//EN"
 "http://www.w3.org/TR/2001/REC-SVG-20010904/DTD/svg10.dtd">
<svg version="1.0" xmlns="http://www.w3.org/2000/svg"
 width="1200.000000pt" height="1581.000000pt" viewBox="0 0 1200.000000 1581.000000"
 preserveAspectRatio="xMidYMid meet">

<g transform="translate(0.000000,1581.000000) scale(0.100000,-0.100000)"
fill="#000000" stroke="none">
<path d="M0 7905 l0 -7905 6000 0 6000 0 0 7905 0 7905 -6000 0 -6000 0 0
-7905z m758 7238 l-3 -198 -29 90 c-52 164 -68 267 -63 400 5 129 19 182 65
249 l27 39 3 -191 c1 -105 1 -280 0 -389z m10558 449 c15 -45 19 -86 18 -197
0 -145 -18 -244 -73 -395 l-20 -55 0 385 0 385 28 -33 c16 -19 37 -59 47 -90z
m-5318 -54 c5 -7 15 -49 22 -93 12 -81 42 -192 75 -275 l17 -45 -27 -42 c-16
-23 -31 -40 -35 -38 -4 2 -19 34 -34 70 -16 36 -33 65 -38 65 -5 0 -24 -32
-42 -72 l-33 -72 -31 46 -31 45 28 69 c35 87 62 191 68 269 5 54 20 85 44 85
3 0 11 -6 17 -12z m-5658 -590 c-1 -426 0 -420 -60 -240 -45 134 -61 224 -67
367 -8 190 16 255 92 255 l35 0 0 -382z m11409 363 c34 -34 44 -95 37 -236 -6
-138 -28 -253 -72 -381 -54 -160 -53 -166 -54 254 l0 382 35 0 c21 0 43 -8 54
-19z m-5720 -269 c43 -88 44 -91 27 -116 -15 -23 -23 -26 -76 -26 -51 0 -61 3
-79 26 l-20 26 46 93 c26 52 49 92 52 90 4 -2 26 -44 50 -93z m-172 24 c32
-46 32 -48 16 -81 -15 -31 -15 -36 1 -59 l16 -26 -38 0 c-28 0 -51 9 -82 31
l-42 31 20 21 c29 32 52 82 52 112 0 37 19 28 57 -29z m340 -72 l22 -31 -22
-20 c-32 -30 -62 -43 -97 -43 l-31 0 16 30 c14 27 14 32 -1 55 -19 30 -13 51
31 103 l28 33 16 -48 c9 -27 26 -62 38 -79z m-27 -124 c66 -18 123 -63 155
-121 26 -48 30 -66 33 -157 l4 -103 -38 -34 c-22 -19 -42 -34 -46 -35 -5 0 -8
53 -8 118 0 95 -4 124 -18 151 -25 47 -74 71 -144 71 l-58 0 0 -170 c0 -103
-4 -170 -10 -170 -5 0 -20 18 -32 40 -26 45 -43 51 -52 18 -3 -13 -15 -34 -26
-48 l-20 -25 0 178 0 177 -60 0 c-71 0 -109 -17 -142 -62 -20 -29 -24 -48 -28
-156 l-5 -122 -37 30 -38 31 0 102 c0 86 4 110 24 152 55 117 122 144 351 145
88 0 176 -5 195 -10z m-280 -312 l0 -183 -21 25 c-11 14 -29 42 -40 63 -10 20
-24 37 -29 37 -5 0 -17 -15 -26 -32 -26 -50 -56 -88 -66 -82 -12 8 -9 234 5
274 17 48 67 80 128 80 l49 0 0 -182z m295 166 c54 -25 65 -62 65 -215 l0
-132 -24 22 c-13 12 -31 40 -41 62 -21 46 -38 50 -54 11 -6 -15 -22 -41 -36
-57 l-24 -30 -1 178 0 177 41 0 c23 0 56 -7 74 -16z m-544 -304 c77 -66 75
-110 -5 -110 -58 0 -81 18 -72 56 4 16 10 44 13 62 3 17 7 32 10 32 3 0 27
-18 54 -40z m197 -12 c24 -36 32 -57 28 -74 -6 -22 -12 -24 -59 -24 -53 0 -77
12 -77 37 0 14 61 112 70 112 3 0 20 -23 38 -51z m180 1 c19 -28 32 -60 30
-72 -3 -20 -10 -22 -65 -25 -54 -3 -63 0 -73 18 -9 17 -8 26 4 43 9 12 26 37
39 54 12 18 24 33 27 32 3 0 20 -23 38 -50z m177 -5 c50 -72 43 -89 -40 -89
-83 0 -90 17 -40 89 21 31 39 56 40 56 1 0 19 -25 40 -56z m189 -76 c-14 -15
-29 -18 -68 -16 -46 3 -51 5 -54 29 -2 20 9 36 49 74 l52 49 19 -58 c18 -56
18 -59 2 -78z m-6225 35 c21 -18 21 -22 19 -328 l-3 -310 -37 65 c-50 90 -83
188 -103 309 -26 156 -10 234 56 268 32 17 43 16 68 -4z m11778 -19 c38 -42
47 -97 33 -202 -16 -131 -44 -222 -98 -327 l-47 -90 -3 310 c-2 309 -2 310 20
328 27 23 65 16 95 -19z m-11450 -36 c44 -38 48 -46 53 -95 3 -29 4 -53 3 -53
-1 0 -18 24 -37 54 -40 62 -79 136 -72 136 3 0 26 -19 53 -42z m11073 24 c0
-7 -99 -172 -103 -172 -1 0 0 24 1 52 3 48 8 57 45 90 42 37 57 45 57 30z
m-5941 -56 c8 -10 6 -19 -9 -39 -25 -32 -25 -33 5 -73 l26 -33 -25 -7 c-13 -3
-35 -3 -48 1 -26 8 -88 64 -88 79 0 6 17 27 37 48 39 40 81 50 102 24z m129 1
c8 -9 5 -19 -8 -37 -25 -32 -25 -41 1 -74 11 -14 17 -30 14 -36 -16 -27 -91 2
-123 48 l-20 28 35 42 c36 44 79 56 101 29z m128 -2 c3 -8 -3 -26 -15 -41 -21
-26 -21 -26 -1 -54 25 -35 25 -47 1 -55 -27 -8 -64 9 -95 45 -29 35 -29 35 23
93 27 30 78 37 87 12z m177 -27 l35 -42 -20 -28 c-27 -38 -73 -61 -107 -53
-27 7 -91 62 -91 79 0 6 17 27 37 48 30 31 44 38 74 38 32 0 43 -6 72 -42z
m123 5 c39 -42 40 -45 18 -79 -23 -34 -68 -56 -99 -48 -30 7 -30 12 -5 44 25
32 25 39 -1 66 -28 30 -19 54 22 54 23 0 40 -9 65 -37z m126 0 c21 -20 38 -42
38 -48 0 -17 -50 -65 -78 -76 -14 -6 -37 -8 -49 -4 l-23 5 26 40 27 41 -21 22
c-25 26 -28 43 -9 50 30 13 54 5 89 -30z m145 -10 l34 -42 -33 -36 c-35 -38
-90 -55 -118 -36 -12 9 -11 13 6 33 34 38 35 45 9 76 -24 29 -24 31 -8 41 35
21 74 8 110 -36z m-5343 -19 c7 -19 2 -18 -19 6 -16 17 -16 20 -3 15 9 -4 19
-13 22 -21z m9816 12 c0 -2 -7 -9 -15 -16 -13 -11 -14 -10 -9 4 5 14 24 23 24
12z m-8386 -39 l20 -27 -27 -55 c-18 -38 -34 -56 -51 -61 -26 -6 -66 10 -66
27 0 28 78 151 92 147 7 -3 21 -16 32 -31z m7017 -37 c41 -69 44 -95 14 -106
-34 -13 -65 6 -90 56 -14 27 -25 53 -25 58 0 13 40 62 50 62 5 0 28 -31 51
-70z m-3846 -83 c-8 -13 -28 -32 -43 -44 l-29 -21 -31 25 c-18 13 -32 33 -32
44 0 17 8 19 75 19 l75 0 -15 -23z m235 18 c0 -6 -91 -75 -99 -75 -3 0 -21 18
-39 40 l-33 40 85 0 c47 0 86 -2 86 -5z m220 -152 c12 -16 20 -38 18 -52 -3
-23 -8 -26 -50 -29 l-48 -3 0 40 c0 36 -5 44 -46 76 -26 19 -52 35 -58 35 -6
0 -33 -19 -59 -41 -41 -36 -48 -46 -45 -73 3 -31 2 -31 -42 -31 -42 0 -45 2
-48 28 -4 30 33 72 143 163 l49 40 83 -63 c45 -35 92 -76 103 -90z m20 153 c0
-3 -15 -21 -34 -42 l-33 -37 -46 34 c-26 19 -46 37 -47 42 0 4 36 7 80 7 44 0
80 -2 80 -4z m200 -14 c0 -10 -14 -31 -30 -47 l-30 -29 -40 39 c-22 22 -40 43
-40 47 0 4 32 8 70 8 61 0 70 -2 70 -18z m-80 -95 c0 -3 -13 -25 -29 -49 -16
-24 -32 -53 -35 -65 -12 -39 -36 -28 -36 17 0 29 -7 48 -30 73 -16 19 -30 39
-30 44 0 6 16 26 35 46 l35 36 45 -48 c25 -26 45 -51 45 -54z m-511 58 c30
-35 39 -55 24 -55 -18 0 -53 -69 -53 -103 0 -51 -24 -48 -51 6 -12 23 -30 54
-40 68 -18 25 -18 25 24 72 23 26 47 47 53 47 7 0 26 -16 43 -35z m-188 -42
c86 -89 123 -163 82 -163 -10 0 -28 -3 -40 -6 -18 -5 -24 1 -41 39 -11 25 -38
63 -61 86 l-40 40 17 31 c9 16 19 30 22 30 3 0 31 -26 61 -57z m849 3 c0 -4
-20 -30 -44 -57 -25 -28 -50 -65 -56 -84 -11 -34 -13 -35 -53 -29 -23 4 -44 9
-47 11 -11 10 49 101 103 157 l58 61 19 -25 c11 -14 20 -29 20 -34z m-422 -53
c25 -19 32 -31 30 -51 -3 -26 -5 -27 -80 -30 -72 -3 -77 -1 -84 20 -5 18 1 29
36 60 23 21 47 35 54 31 6 -3 26 -17 44 -30z m-517 6 c31 -22 79 -96 79 -121
0 -9 -18 -19 -51 -26 -66 -16 -64 -16 -77 12 -6 13 -24 39 -41 58 l-30 35 42
31 c23 17 44 31 45 32 2 0 17 -9 33 -21z m1009 -9 l39 -31 -42 -60 c-33 -48
-46 -59 -62 -55 -11 4 -37 9 -57 12 -21 4 -38 11 -38 16 0 31 89 148 113 148
5 0 26 -14 47 -30z m-4891 -147 c-1 -149 -1 -156 -16 -124 -24 56 -28 159 -9
224 9 31 19 57 21 57 3 0 5 -71 4 -157z m8777 29 c4 -51 1 -82 -14 -127 l-20
-60 -1 155 c0 144 1 153 15 127 8 -16 18 -58 20 -95z m-5013 49 c65 -72 69
-93 17 -105 -21 -5 -30 1 -59 44 -31 46 -33 53 -21 75 7 14 17 25 21 25 3 0
23 -18 42 -39z m1234 13 c11 -23 8 -30 -24 -72 -19 -26 -36 -48 -37 -50 -2 -1
-17 3 -34 9 -31 11 -31 11 -17 39 17 33 78 100 91 100 5 0 14 -12 21 -26z
m-1298 -81 c17 -21 31 -41 31 -44 0 -19 -187 -62 -245 -57 l-40 3 100 67 c55
37 105 67 112 68 6 0 25 -17 42 -37z m906 11 c118 -17 209 -38 366 -87 129
-40 261 -61 314 -51 19 3 35 4 35 0 0 -3 -27 -35 -60 -72 -42 -46 -64 -80 -71
-110 l-11 -44 -45 41 c-92 84 -224 127 -499 159 -97 11 -188 26 -202 33 -15 6
-39 31 -55 55 l-29 44 -25 -41 c-13 -23 -37 -48 -54 -56 -16 -9 -106 -24 -206
-35 -268 -31 -394 -70 -501 -157 -24 -20 -44 -34 -46 -32 -1 2 -8 23 -15 46
-7 27 -32 64 -66 102 -30 32 -55 60 -55 62 0 2 37 5 83 6 82 2 128 12 396 88
106 30 234 53 386 69 64 6 251 -4 360 -20z m509 -19 c39 -24 85 -56 101 -69
l30 -25 -44 -1 c-61 0 -221 39 -228 56 -6 16 42 84 59 84 5 0 42 -20 82 -45z
m-685 -148 c84 -94 103 -126 103 -174 0 -49 -23 -76 -89 -107 -32 -15 -66 -35
-75 -43 -16 -15 -20 -15 -35 0 -10 8 -40 25 -68 37 -93 40 -122 91 -91 163 13
31 162 206 176 205 3 0 38 -36 79 -81z m-228 -44 c-22 -27 -44 -60 -50 -75
-10 -27 -12 -28 -91 -28 l-80 0 0 34 c0 22 9 45 24 62 20 24 35 29 112 40 136
18 130 20 85 -33z m379 32 c89 -8 114 -22 130 -70 19 -58 11 -65 -79 -65 -75
0 -79 1 -85 24 -3 13 -25 48 -47 76 -38 48 -40 52 -18 47 13 -3 58 -9 99 -12z
m-1109 -107 c26 -50 24 -104 -5 -164 -13 -27 -29 -75 -36 -106 -6 -32 -16 -58
-21 -58 -5 0 -9 6 -9 13 0 6 -7 89 -15 182 -8 94 -15 188 -15 210 l0 39 41
-39 c22 -22 49 -57 60 -77z m1844 -99 c-9 -112 -18 -210 -20 -216 -10 -28 -23
-10 -28 39 -4 29 -20 81 -37 115 -32 64 -34 105 -8 158 12 23 100 116 105 111
2 -2 -3 -95 -12 -207z m-1970 150 c7 -22 33 -343 28 -348 -2 -3 -16 8 -32 23
-27 26 -29 34 -35 134 -4 59 -9 135 -13 170 l-5 63 26 -12 c14 -7 28 -20 31
-30z m630 24 c-4 -10 -10 -37 -12 -61 -5 -36 -10 -43 -32 -48 -14 -2 -50 -11
-78 -18 -29 -7 -55 -11 -58 -8 -3 3 -5 20 -5 37 0 57 44 94 130 108 55 9 62 8
55 -10z m873 -11 c18 -8 39 -24 47 -36 14 -20 21 -77 10 -88 -3 -3 -29 1 -58
8 -28 7 -64 16 -79 19 -22 4 -28 11 -28 31 0 13 -7 40 -15 60 l-14 35 52 -7
c29 -3 67 -13 85 -22z m547 -147 l-10 -165 -30 -24 c-16 -14 -31 -21 -33 -17
-1 3 4 83 12 176 12 140 17 171 32 182 38 28 39 19 29 -152z m-2127 97 c9 -17
24 -232 17 -232 -3 0 -20 24 -39 53 -31 46 -36 62 -42 141 l-7 88 31 -16 c17
-9 35 -24 40 -34z m511 16 c-6 -12 -11 -41 -11 -65 1 -42 0 -44 -48 -68 -27
-13 -51 -29 -55 -35 -11 -17 -22 -11 -34 18 -23 55 14 117 89 151 60 28 74 27
59 -1z m1206 -3 c47 -19 85 -70 85 -114 0 -59 -14 -63 -78 -25 -31 19 -58 34
-61 34 -3 0 -6 21 -6 48 -1 26 -5 55 -9 66 -8 16 -6 17 15 11 13 -4 38 -13 54
-20z m505 -57 c-5 -84 -25 -135 -66 -169 -15 -13 -16 -5 -10 96 7 100 9 112
32 133 43 39 50 30 44 -60z m-5612 -211 l-3 -82 -23 42 c-42 79 -39 227 6 277
16 17 17 13 20 -68 1 -48 1 -124 0 -169z m9019 210 c26 -48 23 -177 -5 -239
-11 -27 -23 -48 -26 -48 -3 0 -6 75 -6 166 0 171 4 183 37 121z m-8538 -84
c-1 -65 -4 -89 -9 -73 -14 43 -9 170 6 170 2 0 4 -44 3 -97z m3252 69 c-15
-28 -14 -58 4 -92 14 -27 13 -30 -24 -77 -39 -48 -81 -158 -81 -212 l-1 -26
-16 30 c-8 17 -24 40 -35 51 -16 18 -18 30 -13 68 4 25 10 46 13 46 3 0 16
-10 29 -22 27 -25 33 -5 6 24 -36 40 -4 122 80 201 42 39 56 42 38 9z m1532
-30 c77 -83 98 -150 57 -187 -11 -10 -17 -22 -14 -27 3 -5 16 0 28 11 12 12
26 18 29 14 13 -12 7 -96 -7 -112 -8 -9 -21 -29 -29 -44 l-15 -29 -7 44 c-12
70 -45 150 -82 196 -35 43 -35 43 -18 77 12 27 14 43 6 70 -5 19 -6 35 -2 35
5 0 29 -22 54 -48z m3255 -37 c0 -22 -4 -51 -8 -65 -5 -16 -8 6 -8 65 0 59 3
81 8 65 4 -14 8 -43 8 -65z m-4255 38 c3 -16 8 -35 11 -43 5 -13 -4 -14 -59
-12 -89 5 -229 -15 -288 -40 -26 -11 -62 -38 -80 -58 -27 -31 -40 -38 -84 -43
-61 -7 -66 1 -30 51 79 106 237 170 428 171 l97 1 5 -27z m662 12 c102 -22
204 -75 260 -137 25 -28 44 -56 42 -62 -2 -7 -23 -10 -52 -7 -42 3 -55 9 -91
46 -57 60 -138 84 -302 92 -118 6 -122 7 -116 27 3 12 8 29 10 39 5 14 18 17
92 17 48 0 119 -7 157 -15z m-1548 -153 c20 -24 71 -73 115 -109 87 -72 108
-103 108 -161 0 -49 -19 -75 -51 -70 -18 2 -24 9 -23 26 0 12 -5 22 -12 22
-15 0 -25 -25 -18 -44 6 -15 47 -36 73 -36 41 0 81 71 81 143 0 16 5 49 11 74
l12 45 24 -31 c14 -17 30 -31 37 -31 9 0 12 -25 11 -97 -3 -133 -25 -180 -99
-214 -119 -54 -244 6 -262 126 -14 94 50 185 119 171 20 -4 27 -2 25 7 -7 20
-61 19 -96 -3 -20 -12 -41 -37 -50 -60 -10 -22 -19 -40 -22 -40 -6 0 -91 387
-90 411 1 36 16 26 43 -28 15 -32 44 -77 64 -101z m2249 -83 c-26 -111 -48
-205 -50 -207 -2 -2 -7 10 -11 27 -15 69 -116 125 -153 86 -16 -16 -15 -17 15
-10 41 8 88 -15 108 -55 20 -38 19 -133 -1 -176 -34 -72 -145 -105 -231 -69
-85 36 -107 78 -109 213 -1 81 2 102 13 102 8 0 22 13 31 30 9 16 20 30 24 30
5 0 16 -57 34 -179 6 -40 44 -81 76 -81 35 0 70 28 66 53 -4 29 -29 35 -26 5
2 -18 -2 -24 -23 -26 -35 -4 -52 20 -52 73 0 57 16 80 117 164 90 76 144 141
178 217 19 45 22 47 31 28 7 -16 -3 -75 -37 -225z m-6711 190 c14 -22 -3 -18
-26 7 -23 25 -23 26 -2 15 12 -6 25 -16 28 -22z m11175 6 c-23 -25 -40 -32
-40 -17 0 7 49 41 59 42 3 0 -6 -11 -19 -25z m-9270 -91 c52 -28 180 -26 238
4 23 12 42 19 42 16 0 -4 -11 -26 -25 -50 -14 -23 -26 -58 -27 -78 -3 -32 -6
-37 -37 -42 -44 -9 -172 11 -214 32 -61 31 -67 41 -67 117 l0 71 28 -26 c15
-14 43 -34 62 -44z m7419 -81 c-41 -49 -208 -88 -286 -67 -18 5 -23 14 -23 38
0 17 -11 52 -25 78 -14 26 -25 49 -25 51 0 3 19 -5 43 -17 33 -16 60 -21 122
-20 86 0 140 19 180 64 l20 22 3 -67 c2 -42 -2 -72 -9 -82z m-9515 117 l26
-10 0 -227 0 -227 -31 30 c-48 46 -127 170 -144 226 -25 85 -17 157 22 200 18
20 85 24 127 8z m11670 -23 c17 -23 21 -42 21 -100 -1 -60 -6 -83 -33 -137
-18 -36 -50 -86 -72 -110 l-39 -45 -1 206 c0 113 3 209 7 213 4 4 27 6 52 4
35 -2 48 -9 65 -31z m-9161 -196 c-2 -3 -22 9 -46 26 -31 22 -41 36 -39 52 3
27 -21 24 -26 -3 -5 -24 13 -43 88 -91 61 -40 144 -115 126 -115 -18 0 -145
55 -193 83 -83 49 -94 106 -42 207 l32 60 52 -108 c29 -59 50 -109 48 -111z
m6677 61 c0 -46 -19 -75 -72 -108 -42 -27 -187 -88 -194 -82 -8 8 80 88 124
114 62 35 92 63 92 86 0 20 -26 36 -38 23 -4 -4 -1 -10 6 -12 6 -3 12 -9 12
-14 0 -10 -78 -69 -91 -69 -4 0 16 49 44 109 l52 109 32 -59 c21 -38 33 -73
33 -97z m-4045 6 c19 -17 28 -37 33 -73 6 -38 13 -52 30 -61 13 -6 29 -17 35
-23 13 -13 57 -15 57 -2 0 5 -10 11 -22 13 -19 2 -24 10 -26 47 -3 39 -1 43
15 36 10 -4 67 -16 126 -26 128 -22 163 -40 187 -93 18 -39 18 -39 -8 -87
l-27 -47 -25 18 c-60 42 -167 49 -348 24 -40 -6 -45 -4 -88 40 l-46 45 7 61
c7 58 6 60 -18 69 -25 10 -47 38 -47 60 0 11 32 17 97 20 31 1 49 -5 68 -21z
m1375 2 c0 -22 -28 -60 -44 -60 -28 0 -38 -26 -26 -68 15 -48 -2 -87 -55 -128
-29 -22 -41 -25 -77 -20 -90 13 -209 18 -252 12 -25 -4 -61 -18 -80 -31 l-36
-24 -15 32 c-8 18 -20 39 -26 48 -17 23 17 88 58 112 17 10 78 26 135 36 57
11 113 22 126 26 19 7 22 4 22 -23 0 -43 -9 -62 -30 -62 -11 0 -22 -4 -25 -10
-4 -6 7 -10 25 -10 18 0 33 6 36 15 4 8 12 15 19 15 25 0 45 31 45 71 0 29 7
47 25 65 23 23 31 25 100 22 59 -2 75 -6 75 -18z m-4283 -56 l91 -1 32 -36
c17 -20 40 -39 51 -42 36 -12 19 -23 -51 -35 -117 -20 -286 9 -314 53 -8 12
-17 43 -20 69 l-7 46 63 -26 c50 -21 81 -26 155 -28z m7271 -19 c-11 -42 -19
-53 -49 -67 -55 -28 -183 -41 -268 -29 -74 10 -98 20 -71 29 8 3 33 23 55 44
l39 40 91 2 c69 2 104 8 150 27 35 14 61 20 63 14 1 -5 -4 -32 -10 -60z
m-7770 -137 l-3 -43 -13 55 c-11 45 -11 60 -1 85 l13 30 4 -42 c2 -24 2 -62 0
-85z m8082 54 c0 -31 -5 -64 -10 -72 -7 -10 -10 9 -10 63 0 50 4 76 10 72 6
-3 10 -32 10 -63z m-4018 -34 c99 -59 128 -99 128 -177 0 -57 -19 -107 -105
-273 l-76 -147 -83 162 c-138 266 -133 338 29 435 28 17 51 31 52 31 2 1 26
-13 55 -31z m-4512 -158 c0 -76 -4 -130 -10 -130 -5 0 -22 21 -37 47 -48 82
-31 213 27 213 19 0 20 -7 20 -130z m9009 109 c26 -28 34 -80 21 -131 -12 -44
-49 -108 -62 -108 -5 0 -8 59 -8 130 0 107 3 130 15 130 8 0 23 -9 34 -21z
m-4833 -60 c20 -16 17 -48 -6 -87 -60 -98 -219 -70 -220 38 0 39 7 54 30 63
24 10 180 -1 196 -14z m780 -4 c35 -48 -6 -128 -72 -141 -49 -9 -82 2 -121 41
-25 25 -33 42 -33 69 0 31 4 36 28 42 15 3 32 7 37 10 6 2 41 2 79 1 54 -2 71
-7 82 -22z m-1034 -25 c-6 -45 4 -74 40 -109 59 -57 147 -54 210 9 31 30 38
45 38 75 0 37 0 38 20 20 26 -23 26 -69 0 -111 -29 -47 -91 -68 -178 -62 -106
8 -156 43 -169 121 -8 49 3 87 25 87 15 0 18 -6 14 -30z m1106 -25 c7 -97 -44
-144 -160 -153 -74 -5 -141 13 -173 48 -22 25 -31 91 -15 121 13 23 13 22 26
-20 40 -135 202 -164 275 -49 15 25 18 43 14 71 -5 33 -3 38 12 35 14 -2 19
-15 21 -53z m-4301 -17 c-2 -13 -4 -5 -4 17 -1 22 1 32 4 23 2 -10 2 -28 0
-40z m7510 10 c-3 -7 -5 -2 -5 12 0 14 2 19 5 13 2 -7 2 -19 0 -25z m-4499
-540 c57 -233 180 -353 376 -365 76 -5 87 -9 101 -29 28 -43 70 -56 199 -61
161 -7 229 6 276 52 31 30 42 35 85 35 163 1 285 78 355 225 55 117 62 160 67
428 3 136 8 247 12 247 3 -1 17 -10 30 -21 l24 -20 -6 -217 c-5 -224 -17 -308
-57 -414 -60 -161 -199 -269 -364 -284 -92 -8 -106 -12 -106 -32 0 -20 -31
-52 -70 -73 -18 -9 -74 -13 -195 -14 -200 0 -244 12 -273 74 -15 32 -22 36
-57 38 -222 14 -360 118 -429 325 -32 95 -46 228 -46 434 0 160 1 166 23 184
l22 18 6 -221 c5 -178 10 -239 27 -309z m-98 467 c0 -11 -7 -14 -25 -9 -40 10
-71 -3 -85 -36 -13 -32 -7 -65 10 -55 6 4 8 11 4 16 -9 15 24 59 44 59 51 0
57 -72 11 -124 -29 -34 -97 -82 -103 -75 -2 2 -11 45 -21 95 -23 121 -17 132
68 137 34 2 70 4 80 5 9 1 17 -5 17 -13z m1798 0 c6 -3 12 -19 12 -37 0 -48
-23 -188 -31 -188 -4 0 -28 15 -55 33 -81 55 -109 148 -49 163 31 8 55 -11 55
-42 0 -13 5 -24 10 -24 18 0 11 56 -10 75 -14 13 -29 16 -55 12 -25 -4 -35 -2
-35 7 0 10 17 12 73 9 39 -3 78 -6 85 -8z m-768 -50 c0 -11 9 -39 20 -63 24
-52 75 -79 121 -63 23 8 27 7 22 -6 -3 -8 -20 -21 -37 -28 l-31 -13 29 -8 c44
-11 79 6 99 48 14 29 28 40 57 49 34 10 43 9 75 -10 20 -11 43 -21 51 -21 8 0
14 -10 14 -24 0 -45 -10 -56 -51 -56 -28 0 -41 -5 -49 -19 -12 -23 5 -40 23
-22 6 6 17 11 24 11 21 0 9 -119 -16 -168 -23 -46 -46 -63 -105 -82 -61 -20
-109 -77 -169 -202 -35 -73 -66 -124 -87 -141 -31 -27 -32 -27 -198 -27 -215
0 -211 -2 -286 154 -63 132 -116 197 -174 214 -86 26 -131 94 -132 195 0 58
11 72 38 45 16 -16 29 -1 16 20 -6 9 -26 18 -45 20 -38 4 -49 15 -49 52 0 20
10 29 51 48 35 16 60 21 78 17 31 -8 61 -33 61 -52 0 -25 39 -53 74 -53 19 0
38 5 41 10 3 6 1 10 -6 10 -14 0 -49 29 -49 41 0 4 12 3 28 -3 20 -8 36 -7 64
5 41 17 62 53 73 120 3 20 9 37 13 37 4 -1 21 -32 39 -70 31 -68 31 -71 19
-120 -7 -28 -26 -64 -41 -80 -34 -35 -84 -49 -96 -27 -12 20 -52 29 -83 17
-33 -12 -43 -52 -22 -85 9 -13 16 -35 16 -49 0 -31 16 -42 36 -25 12 10 21 6
51 -22 47 -45 61 -80 73 -186 8 -76 13 -91 35 -110 14 -13 39 -23 56 -23 33 0
36 6 15 29 -13 14 -13 20 0 46 8 17 35 52 59 80 l43 49 41 -44 c60 -67 79
-106 63 -130 -17 -28 -16 -30 17 -30 54 0 71 25 87 134 8 54 23 115 34 136 24
48 76 88 93 71 17 -17 24 -13 29 17 3 15 13 44 22 65 16 37 16 38 -9 63 -28
28 -64 27 -97 -3 -14 -12 -23 -13 -52 -3 -43 14 -71 50 -87 113 -11 44 -10 51
22 121 32 71 48 81 49 31z m-4150 -82 c0 -50 -4 -83 -9 -77 -24 26 -42 140
-24 157 3 4 12 7 20 7 10 0 13 -21 13 -87z m7950 72 c15 -18 7 -93 -14 -133
-14 -26 -15 -22 -16 61 0 86 6 101 30 72z m-4830 -154 c0 -46 -2 -48 -26 -48
-39 0 -60 -49 -26 -61 8 -3 12 3 10 14 -4 26 29 30 37 4 10 -32 -4 -78 -32
-100 -49 -38 -54 -33 -73 78 l-14 74 55 48 c30 26 57 46 62 43 4 -2 7 -26 7
-52z m1723 -4 c31 -20 35 -55 16 -150 -9 -45 -16 -57 -30 -57 -39 0 -75 59
-67 111 4 31 38 39 38 10 0 -12 5 -21 10 -21 6 0 10 11 10 25 0 25 -26 46 -47
38 -10 -3 -13 11 -13 53 l0 58 28 -25 c15 -14 39 -33 55 -42z m-6464 18 l41
-25 0 -70 c0 -56 -3 -70 -15 -70 -8 0 -15 -7 -15 -15 0 -9 7 -18 15 -21 12 -5
15 -26 15 -106 l0 -100 -40 32 c-88 70 -172 212 -187 316 -5 37 -2 46 22 69
24 25 32 27 75 22 27 -3 67 -17 89 -32z m1941 -27 c0 -45 -3 -59 -10 -48 -17
26 -12 110 7 110 2 0 3 -28 3 -62z m9381 43 c20 -16 24 -27 22 -72 -3 -71 -55
-179 -121 -249 l-51 -55 -1 183 0 183 33 14 c45 20 91 18 118 -4z m-2082 -34
c0 -18 -4 -41 -9 -52 -6 -14 -9 -4 -9 38 -1 36 3 56 9 52 6 -3 10 -21 9 -38z
m-8051 -111 c2 -127 1 -138 -13 -126 -9 8 -28 37 -43 64 -20 40 -26 66 -27
119 0 74 10 89 55 85 l25 -3 3 -139z m8860 114 c18 -35 8 -112 -23 -176 -49
-99 -55 -93 -55 58 0 74 3 138 7 142 15 15 58 0 71 -24z m-9725 -10 c33 0 37
-3 37 -25 0 -31 -8 -31 -70 0 -53 27 -66 41 -27 31 12 -3 39 -6 60 -6z m10586
-5 c-3 -2 -21 -11 -41 -19 -34 -14 -36 -14 -41 4 -4 16 1 19 37 22 42 3 53 1
45 -7z m-5644 -105 c9 -28 -23 -90 -47 -90 -4 0 -8 8 -8 18 0 9 -7 26 -15 36
-21 28 -19 45 7 55 30 11 56 3 63 -19z m646 20 c23 -13 24 -29 2 -75 -20 -43
-28 -44 -48 -5 -20 38 -19 67 3 79 21 13 20 13 43 1z m-4161 -160 c0 -44 -2
-80 -5 -80 -15 0 -45 70 -45 106 0 45 5 54 32 54 16 0 18 -9 18 -80z m3000 50
c0 -19 -5 -30 -14 -30 -16 0 -31 -34 -21 -50 9 -14 26 -12 23 3 -2 6 2 14 7
17 12 6 19 -53 11 -86 -4 -13 -20 -31 -36 -39 -29 -15 -30 -15 -30 7 0 12 -5
48 -12 81 l-12 58 39 34 c22 19 41 34 43 35 1 0 2 -13 2 -30z m4708 -14 c4
-41 -11 -88 -34 -107 -12 -10 -14 2 -14 70 0 80 1 82 23 79 18 -2 23 -10 25
-42z m-3013 -51 c-3 -16 -9 -54 -12 -82 -3 -29 -9 -53 -14 -53 -4 0 -20 10
-34 23 -32 28 -43 84 -21 112 15 20 15 20 16 -2 0 -26 15 -31 24 -7 3 9 -4 24
-17 37 -13 12 -21 29 -19 39 3 14 9 12 43 -10 36 -24 40 -30 34 -57z m-4347
-77 l-3 -23 -13 23 c-10 18 -10 26 0 45 l13 22 3 -22 c2 -13 2 -33 0 -45z
m6982 22 c0 -16 -4 -32 -10 -35 -6 -4 -10 10 -10 35 0 25 4 39 10 35 6 -3 10
-19 10 -35z m-4670 -45 c31 -16 60 -51 60 -73 0 -12 -5 -11 -26 3 -14 9 -38
17 -53 17 -58 2 -87 -32 -136 -159 -33 -86 -68 -123 -123 -130 -32 -4 -44 -1
-61 16 -11 11 -21 32 -21 45 0 34 -33 42 -80 21 -29 -13 -43 -14 -56 -6 -15 8
-16 10 -4 11 9 0 36 20 60 45 41 42 90 61 90 35 0 -5 11 -12 25 -16 33 -8 61
16 87 76 47 110 151 160 238 115z m2464 -19 c20 -15 48 -51 62 -79 45 -89 84
-118 114 -82 22 27 56 18 89 -24 20 -25 47 -45 73 -53 31 -11 38 -16 25 -21
-9 -3 -17 -2 -17 4 0 5 -11 7 -24 3 -16 -4 -34 0 -48 10 -26 19 -64 21 -74 4
-4 -6 -10 -25 -13 -41 -8 -40 -48 -54 -102 -38 -46 14 -58 31 -104 142 -43
103 -75 139 -125 139 -19 0 -46 -7 -58 -16 -18 -13 -22 -13 -22 -1 0 20 39 67
64 78 40 17 122 5 160 -25z m-2084 15 c0 -5 3 -16 6 -24 3 -9 -3 -16 -15 -20
-22 -5 -28 -31 -11 -42 6 -3 10 1 10 10 0 28 35 13 38 -17 2 -18 -7 -37 -28
-62 -18 -20 -35 -36 -39 -36 -7 0 -31 95 -31 124 0 10 12 31 28 46 29 29 42
36 42 21z m1609 -61 c1 -18 -26 -120 -33 -127 -3 -3 -19 9 -36 27 -33 36 -43
100 -15 100 8 0 15 -7 15 -15 0 -8 5 -15 10 -15 16 0 11 38 -6 48 -11 6 -14
16 -9 31 7 22 7 22 40 -6 18 -15 34 -35 34 -43z m-4999 -131 c0 -83 -4 -128
-10 -124 -5 3 -21 26 -36 50 -31 53 -44 146 -23 171 12 15 43 32 62 33 4 1 7
-58 7 -130z m3040 101 c16 -11 40 -45 55 -75 50 -106 115 -155 189 -141 37 7
81 49 91 86 4 14 21 42 39 62 l33 37 23 -30 c19 -26 21 -39 16 -77 -9 -69 -47
-126 -103 -154 -41 -19 -62 -23 -138 -22 -159 3 -230 36 -259 120 -19 56 -42
84 -68 84 -27 0 -32 23 -13 60 37 71 82 88 135 50z m2337 -2 c28 -31 55 -86
48 -98 -3 -6 -14 -10 -24 -10 -25 0 -51 -32 -75 -93 -28 -68 -73 -94 -189
-107 -163 -19 -258 19 -293 117 -19 55 -17 101 7 134 l20 29 33 -43 c17 -23
38 -57 46 -76 7 -18 27 -42 44 -52 80 -49 173 2 225 124 37 85 115 122 158 75z
m3047 0 c30 -42 11 -143 -39 -203 l-24 -30 -1 128 0 127 24 0 c14 0 32 -10 40
-22z m-7874 -128 c0 -38 -4 -70 -9 -70 -5 0 -21 14 -35 31 -19 22 -25 38 -20
53 6 22 40 56 55 56 5 0 9 -31 9 -70z m1738 0 c-2 -17 -10 -26 -25 -28 -22 -3
-41 21 -57 76 l-7 22 46 -22 c39 -19 45 -26 43 -48z m3852 16 c-16 -39 -24
-47 -42 -44 -16 2 -24 11 -26 28 -2 21 4 29 40 47 24 11 44 20 46 18 1 -1 -7
-23 -18 -49z m1708 38 c29 -20 29 -70 0 -101 -12 -13 -25 -23 -30 -23 -4 0 -8
32 -8 70 0 39 3 70 8 70 4 0 18 -7 30 -16z m-6883 -74 c0 -63 -10 -78 -22 -32
-9 36 -7 61 8 78 6 8 12 14 13 14 0 0 1 -27 1 -60z m6455 2 c0 -20 -5 -44 -10
-52 -7 -11 -10 2 -10 43 0 36 4 56 10 52 6 -3 10 -23 10 -43z m-3890 -23 c0
-93 -41 -149 -109 -149 l-35 0 35 25 c44 33 77 88 85 142 8 57 24 45 24 -18z
m1315 -72 c10 -16 34 -39 54 -53 l36 -24 -38 0 c-26 0 -46 8 -69 29 -27 24
-32 36 -36 89 -6 87 7 112 22 42 7 -30 20 -68 31 -83z m-2477 107 c46 -18 51
-37 9 -42 -25 -3 -67 27 -67 48 0 14 7 13 58 -6z m3682 6 c0 -5 -9 -19 -20
-30 -21 -21 -55 -26 -80 -10 -11 7 -4 13 30 29 51 22 70 25 70 11z m-3800 -63
c0 -4 -14 -35 -31 -69 -64 -128 -127 -363 -145 -545 -3 -40 -10 -73 -15 -73
-4 0 -19 10 -33 23 -25 22 -25 23 -15 115 18 169 96 428 166 550 24 42 24 42
48 25 13 -10 25 -22 25 -26z m3951 -39 c73 -146 138 -383 152 -556 4 -48 2
-54 -23 -72 -16 -11 -30 -20 -33 -20 -3 0 -8 30 -12 68 -19 182 -76 401 -141
539 -19 39 -34 74 -34 78 0 6 40 44 47 45 2 0 21 -37 44 -82z m-3877 47 c11
-8 32 -15 47 -15 28 0 42 -20 33 -45 -6 -15 -18 -20 -76 -30 -36 -7 -37 -6
-49 34 -10 32 -9 43 1 56 15 18 20 18 44 0z m199 -24 c5 -5 -10 -13 -33 -19
-33 -8 -43 -7 -55 5 -18 17 -19 25 -3 41 8 8 20 7 47 -4 20 -8 40 -19 44 -23z
m3404 28 c13 -13 6 -46 -13 -53 -7 -3 -30 1 -51 8 l-38 13 40 21 c47 25 48 25
62 11z m153 -4 c10 -13 11 -24 1 -56 l-12 -41 -47 7 c-56 8 -74 21 -70 49 2
15 13 22 41 27 21 3 43 11 50 18 15 15 22 14 37 -4z m-7160 -115 c0 -47 -5
-89 -12 -100 -11 -17 -10 -22 0 -29 9 -5 12 -30 10 -85 l-3 -78 -65 43 c-150
102 -207 271 -106 315 17 7 64 13 104 14 l72 0 0 -80z m10695 64 c71 -33 66
-128 -13 -232 -24 -32 -99 -92 -114 -92 -4 0 -8 77 -8 170 l0 170 51 0 c28 0
66 -7 84 -16z m-7298 -62 c39 5 40 12 -5 -105 -57 -149 -112 -397 -112 -509 0
-27 -4 -48 -10 -48 -5 0 -30 12 -56 28 l-46 27 6 80 c14 168 79 422 138 539
l20 40 15 -28 c13 -24 20 -27 50 -24z m144 38 c5 0 -2 -22 -15 -49 -65 -127
-139 -407 -151 -574 -4 -40 -8 -87 -11 -105 l-5 -32 -31 16 -31 16 6 92 c19
280 147 660 215 640 8 -2 18 -4 23 -4z m3554 -119 c62 -147 125 -432 125 -565
0 -40 -3 -47 -30 -61 -16 -8 -31 -15 -33 -15 -2 0 -7 44 -10 99 -11 181 -73
435 -147 598 -25 54 -26 62 -12 65 34 8 71 -34 107 -121z m143 16 c44 -112 74
-234 97 -384 22 -146 22 -147 -29 -183 -25 -16 -49 -30 -54 -30 -5 0 -12 37
-16 83 -10 127 -52 313 -97 439 -22 62 -43 120 -45 129 -4 12 2 14 30 11 30
-4 37 0 47 22 7 14 15 23 20 21 4 -3 25 -51 47 -108z m-3246 36 c8 -10 25 -37
38 -60 26 -47 63 -68 103 -57 24 5 27 3 27 -20 0 -44 -63 -61 -120 -31 -37 19
-140 150 -140 179 0 15 78 5 92 -11z m194 5 c14 -15 -21 -83 -50 -97 -25 -12
-31 -11 -53 5 -13 11 -36 39 -50 63 l-25 43 85 -3 c47 -2 89 -7 93 -11z m2314
5 c0 -5 -10 -26 -23 -48 -28 -50 -59 -67 -99 -53 -28 10 -40 29 -54 83 l-6 25
91 0 c50 0 91 -3 91 -7z m116 -9 c-3 -8 -23 -41 -43 -71 -65 -98 -145 -137
-201 -97 -12 8 -22 24 -22 34 0 15 7 18 44 17 49 -2 77 17 103 68 27 52 43 65
86 65 32 0 38 -3 33 -16z m-301 -46 c30 -103 9 -198 -46 -198 -23 0 -26 -32
-4 -50 38 -31 1 -152 -64 -214 -26 -25 -42 -30 -91 -34 -60 -4 -60 -5 -60 -36
0 -49 -31 -89 -98 -124 -67 -36 -138 -50 -169 -34 -17 10 -23 6 -44 -26 -29
-45 -73 -68 -158 -81 -48 -8 -72 -7 -102 3 -35 12 -41 12 -52 -4 -17 -24 -51
-40 -86 -40 l-30 0 24 36 c14 20 25 46 25 58 0 20 9 23 113 38 248 37 430 113
556 234 127 121 174 235 170 413 l-2 96 44 6 c24 3 47 7 51 7 4 1 14 -21 23
-50z m-2028 36 l30 -6 0 -96 c-2 -234 114 -412 343 -527 109 -55 280 -102 432
-120 52 -6 59 -9 64 -33 4 -15 17 -41 30 -59 34 -46 36 -44 -39 -28 -15 3 -37
15 -48 26 -17 17 -26 19 -62 12 -55 -11 -149 1 -203 28 -32 15 -47 30 -56 55
-12 33 -31 44 -43 24 -13 -21 -83 -10 -153 26 -84 42 -112 72 -112 124 l0 38
-60 4 c-52 4 -65 9 -96 39 -20 19 -45 52 -55 74 -23 49 -25 118 -4 135 25 21
18 48 -15 55 -17 4 -35 16 -42 28 -16 30 -13 126 5 170 17 39 27 42 84 31z
m188 -68 c-19 -175 78 -347 243 -430 83 -41 120 -53 230 -75 l87 -17 -26 -26
-26 -26 38 -38 c21 -21 37 -39 35 -41 -7 -7 -168 29 -247 56 -315 106 -469
289 -469 556 0 50 3 95 7 98 3 4 35 7 70 7 l65 0 -7 -64z m97 -29 c3 -59 12
-96 29 -132 69 -144 239 -224 482 -225 87 0 88 0 81 -22 -4 -13 -7 -30 -8 -38
-1 -8 -12 -18 -26 -22 -14 -3 -39 -12 -57 -19 -66 -27 -286 32 -399 107 -70
47 -138 137 -161 213 -19 65 -22 193 -5 214 7 8 23 12 36 10 22 -5 24 -10 28
-86z m1602 77 c12 -30 6 -170 -9 -229 -50 -189 -214 -339 -460 -418 -68 -22
-216 -57 -242 -57 -4 0 10 18 32 40 l39 40 -28 29 -28 30 38 6 c248 38 414
138 487 292 28 61 32 80 35 176 l4 107 63 0 c48 0 64 -4 69 -16z m-3884 -41
l-1 -48 -15 28 c-11 20 -12 32 -4 47 16 30 20 25 20 -27z m3725 -53 c0 -85 -3
-102 -31 -160 -57 -120 -153 -197 -306 -245 -131 -41 -194 -48 -260 -28 -47
15 -58 22 -58 40 0 12 -3 28 -6 37 -5 14 4 16 67 16 169 1 305 37 398 105 47
35 66 57 92 111 29 59 34 78 34 146 l0 79 35 -3 35 -3 0 -95z m-4135 9 c0 -60
-3 -80 -12 -77 -20 7 -58 68 -58 94 0 21 41 64 61 64 5 0 9 -36 9 -81z m6805
56 c31 -30 31 -53 3 -95 -39 -58 -48 -51 -48 39 0 88 6 96 45 56z m-7345 -106
c0 -120 0 -120 -21 -105 -72 50 -84 157 -22 206 14 11 30 20 34 20 5 0 9 -54
9 -121z m6907 84 c-3 -10 -5 -4 -5 12 0 17 2 24 5 18 2 -7 2 -21 0 -30z m993
-1 c14 -17 20 -40 20 -74 0 -43 -5 -54 -40 -91 l-39 -42 -1 122 c0 117 1 121
20 116 11 -3 29 -17 40 -31z m-1060 -93 c0 -5 -4 -9 -10 -9 -5 0 -10 7 -10 16
0 8 5 12 10 9 6 -3 10 -10 10 -16z m-5610 -151 c0 -81 -18 -84 -27 -4 -5 40 6
76 23 76 2 0 4 -32 4 -72z m5407 -1 c-8 -83 -27 -82 -27 2 0 66 2 72 16 60 12
-10 15 -25 11 -62z m-3765 0 c16 -24 4 -42 -25 -39 -20 3 -34 -5 -55 -26 -60
-65 -81 -95 -76 -104 10 -16 87 -48 117 -48 32 0 67 16 83 39 10 13 14 13 28
2 23 -20 20 -39 -14 -73 -29 -29 -34 -30 -99 -26 -56 3 -84 11 -156 47 l-87
43 35 29 c20 16 46 46 58 67 32 54 60 83 94 98 33 15 85 11 97 -9z m2175 12
c37 -14 78 -54 108 -105 14 -24 39 -54 56 -67 l32 -25 -87 -43 c-125 -62 -227
-67 -262 -13 -14 20 -15 30 -5 50 l11 26 31 -26 c37 -31 77 -33 135 -7 54 25
59 34 32 67 -57 69 -87 94 -112 94 -46 0 -25 59 21 60 6 0 24 -5 40 -11z
m-4187 -114 l0 -85 -25 16 c-33 21 -35 88 -4 128 11 14 22 26 25 26 2 0 4 -38
4 -85z m6154 53 c25 -35 20 -90 -9 -118 l-25 -23 0 81 c0 85 8 98 34 60z
m-4142 -20 c8 -7 21 -28 28 -46 12 -30 11 -35 -10 -57 -13 -14 -34 -25 -47
-25 -26 0 -93 25 -93 35 0 4 13 26 30 50 38 55 62 67 92 43z m2145 -3 c20 -14
63 -75 63 -89 0 -10 -66 -36 -90 -36 -12 0 -32 11 -46 25 l-25 25 20 39 c18
34 31 47 51 50 3 1 15 -6 27 -14z m-4697 -135 c0 -66 -4 -120 -8 -120 -14 0
-60 54 -71 83 -20 52 -13 87 23 123 19 19 39 34 45 34 7 0 11 -39 11 -120z
m3644 78 c56 -65 44 -132 -19 -108 -20 8 -37 8 -59 0 -35 -12 -46 -2 -46 46 0
22 10 41 35 67 20 21 40 37 45 37 5 0 25 -19 44 -42z m3617 6 c45 -48 23 -160
-39 -193 -16 -8 -17 1 -14 105 3 124 9 134 53 88z m-8626 -169 c0 -80 -2 -145
-5 -145 -9 0 -84 52 -113 79 -103 94 -58 207 83 210 l35 1 0 -145z m2545 88
c-1 -53 -2 -56 -15 -39 -18 24 -19 68 -3 84 7 7 13 12 15 12 2 0 3 -26 3 -57z
m7474 46 c118 -33 114 -138 -8 -231 -83 -62 -81 -65 -81 99 l0 143 25 0 c14 0
42 -5 64 -11z m-2613 -56 c-9 -15 -10 -12 -10 17 0 29 1 32 10 18 7 -12 7 -24
0 -35z m-2529 -42 c4 -4 4 -22 -2 -40 -6 -20 -5 -42 1 -58 26 -69 -65 -69
-130 0 -21 23 -22 28 -9 46 16 23 56 55 78 64 16 6 50 -1 62 -12z m143 -24
c22 -31 18 -65 -10 -92 -47 -48 -115 -19 -115 48 0 68 87 98 125 44z m148 -6
l42 -40 -29 -30 c-35 -36 -78 -55 -109 -47 -22 5 -23 9 -21 78 1 40 3 74 3 76
1 1 17 2 36 2 28 0 45 -9 78 -39z m-2965 -118 l-3 -48 -27 27 c-22 21 -28 37
-28 68 0 31 6 47 28 68 l27 27 3 -47 c2 -27 2 -69 0 -95z m5572 97 c23 -43 8
-110 -30 -130 -19 -10 -20 -7 -20 80 0 87 1 90 20 80 11 -6 24 -19 30 -30z
m-470 9 c0 -5 -4 -9 -10 -9 -5 0 -10 7 -10 16 0 8 5 12 10 9 6 -3 10 -10 10
-16z m-3131 -26 c8 -14 4 -22 -15 -38 -18 -15 -29 -38 -39 -85 -8 -36 -14 -68
-15 -72 0 -12 85 -9 117 3 41 15 73 49 73 77 0 18 4 23 16 18 9 -3 20 -6 25
-6 16 0 9 -74 -10 -106 -11 -18 -40 -41 -67 -55 -40 -19 -64 -23 -144 -23
-112 0 -126 5 -105 38 9 13 20 52 25 87 16 101 37 149 74 165 42 18 53 17 65
-3z m1660 -6 c21 -18 39 -67 51 -142 6 -37 18 -81 26 -97 9 -17 13 -32 10 -35
-11 -11 -184 -7 -229 6 -57 16 -103 64 -113 117 -5 30 -3 40 11 51 26 18 30
17 40 -19 15 -47 54 -71 126 -76 l61 -5 -5 29 c-3 16 -9 48 -12 71 -5 29 -15
49 -32 62 -21 17 -23 23 -13 41 9 17 17 20 38 15 15 -4 33 -12 41 -18z m-3039
-64 c0 -35 -3 -44 -10 -33 -16 25 -11 80 7 80 2 0 3 -21 3 -47z m4360 9 c0
-15 -5 -34 -10 -42 -7 -11 -10 -2 -10 33 0 30 4 46 10 42 6 -3 10 -18 10 -33z
m-2915 1 c70 -33 31 -110 -61 -121 l-47 -5 6 33 c4 18 7 41 7 51 0 20 33 59
50 59 5 0 25 -8 45 -17z m1514 0 c15 -13 23 -34 28 -70 6 -52 5 -53 -21 -53
-60 0 -116 41 -116 83 0 15 54 55 76 56 7 1 21 -7 33 -16z m-796 -33 c15 0 37
5 48 10 16 9 21 7 30 -14 16 -35 3 -74 -38 -115 l-36 -36 -38 44 c-28 31 -39
53 -39 75 0 37 18 62 34 46 5 -5 23 -10 39 -10z m-3253 -120 c0 -109 0 -110
-21 -98 -28 17 -59 80 -59 118 0 31 45 90 69 90 7 0 11 -38 11 -110z m6556 92
c33 -26 47 -60 40 -98 -7 -33 -50 -94 -67 -94 -5 0 -9 47 -9 105 0 58 3 105 8
105 4 0 17 -8 28 -18z m-3743 -58 c3 -3 -4 -21 -15 -40 -18 -31 -19 -38 -7
-104 7 -38 18 -70 23 -70 5 0 29 9 53 21 59 29 83 62 83 115 0 24 4 44 9 44
31 0 59 -75 47 -125 -16 -62 -137 -147 -243 -170 l-33 -7 0 49 c0 27 -5 76
-11 108 -6 32 -8 74 -4 93 9 51 75 109 98 86z m935 -10 c42 -29 55 -71 46
-143 -4 -37 -8 -92 -8 -123 -1 -35 -5 -58 -12 -58 -16 0 -116 36 -152 54 -92
48 -135 122 -111 194 20 61 49 71 49 17 0 -66 48 -122 121 -140 25 -6 26 -4
37 51 16 79 15 97 -8 126 -29 38 -5 52 38 22z m-2420 -56 c-4 -22 -5 -22 -18
4 -11 23 -11 30 1 44 13 16 14 16 17 -4 2 -12 2 -32 0 -44z m-553 -87 c-11
-10 -45 39 -45 64 0 12 10 35 23 51 l22 29 3 -69 c2 -38 0 -71 -3 -75z m4438
125 c3 -8 -1 -22 -8 -33 -13 -17 -14 -16 -15 15 0 33 13 43 23 18z m577 -59
c0 -25 -26 -67 -41 -67 -5 0 -9 33 -9 73 l1 72 24 -28 c14 -15 25 -38 25 -50z
m-2879 53 c24 -13 26 -66 3 -98 -15 -22 -63 -52 -83 -52 -5 0 -14 23 -20 51
-11 51 -4 84 23 101 16 11 54 10 77 -2z m785 -15 c17 -25 14 -93 -5 -124 -20
-32 -111 39 -111 87 0 44 18 60 72 61 19 1 33 -7 44 -24z m-4960 -323 c-11
-11 -68 23 -101 59 -39 43 -46 89 -21 137 19 35 65 78 96 90 l25 9 3 -145 c1
-80 0 -147 -2 -150z m4633 272 c76 -64 55 -151 -73 -299 l-34 -40 -36 40
c-125 140 -148 223 -84 293 29 30 53 30 37 1 -17 -32 -5 -77 37 -147 22 -34
41 -62 44 -62 9 0 78 125 85 153 4 15 0 37 -9 56 -20 38 -8 40 33 5z m-66 7
c4 -1 12 -13 18 -28 8 -23 5 -37 -22 -90 -18 -35 -35 -63 -38 -63 -12 0 -71
108 -71 129 0 45 38 63 113 52z m4551 -21 c61 -54 83 -131 50 -178 -17 -25
-91 -82 -106 -82 -4 0 -8 65 -8 145 0 163 3 168 64 115z m-6297 -97 c-4 -17
-4 -17 -12 0 -4 9 -4 25 0 35 8 16 8 16 12 0 3 -10 3 -26 0 -35z m3414 0 c-9
-15 -10 -12 -10 17 0 29 1 32 10 18 7 -12 7 -24 0 -35z m-3941 -73 c0 -69 -14
-78 -36 -24 -14 32 -13 38 1 60 25 38 35 28 35 -36z m4488 48 c15 -15 16 -63
2 -89 -19 -35 -30 -20 -30 41 0 60 6 70 28 48z m-5218 -98 c0 -99 0 -101 -21
-90 -24 14 -49 67 -49 108 0 33 34 82 56 82 11 0 14 -20 14 -100z m5969 74
c12 -15 21 -40 21 -56 0 -41 -25 -94 -49 -108 -21 -11 -21 -9 -21 90 0 110 10
124 49 74z m-4939 -174 c0 -61 -11 -76 -30 -41 -20 39 -7 101 22 101 4 0 8
-27 8 -60z m3888 48 c15 -15 16 -63 2 -89 -19 -35 -30 -20 -30 41 0 60 6 70
28 48z m-3136 -208 c269 -226 603 -277 975 -151 l112 38 -18 -26 c-10 -14 -21
-35 -25 -47 -5 -16 -27 -27 -94 -47 -137 -41 -210 -50 -371 -44 -184 6 -301
35 -456 111 -83 41 -129 71 -182 120 -77 72 -78 73 -88 155 l-7 55 44 -55 c24
-30 74 -79 110 -109z m2502 94 c-6 -49 -13 -65 -48 -102 -91 -99 -264 -195
-431 -238 -135 -35 -359 -44 -487 -20 -150 28 -217 53 -229 84 -6 15 -18 36
-27 46 -20 23 -21 23 110 -23 194 -67 416 -81 592 -37 191 49 386 174 491 314
17 22 31 39 33 38 1 -2 -1 -29 -4 -62z m-3974 -56 l0 -91 -21 19 c-25 22 -49
66 -49 89 0 15 51 75 64 75 3 0 6 -41 6 -92z m5356 47 c13 -20 14 -31 5 -57
-12 -33 -38 -68 -53 -68 -4 0 -8 38 -8 85 0 83 1 85 20 75 11 -6 27 -22 36
-35z m-4371 -113 c-9 -9 -25 20 -25 46 0 13 6 33 13 45 11 20 12 17 15 -32 2
-29 0 -56 -3 -59z m3355 53 c0 -12 -7 -30 -15 -41 -13 -17 -14 -14 -14 41 0
55 1 58 14 41 8 -11 15 -29 15 -41z m-5700 -65 c0 -105 -1 -110 -19 -101 -10
6 -32 26 -50 46 -48 55 -38 119 24 153 42 24 45 18 45 -98z m8086 76 c19 -19
34 -44 34 -57 0 -32 -32 -82 -69 -108 l-31 -22 0 110 c0 127 7 136 66 77z
m-5346 -86 c0 -4 -11 -5 -25 -2 -19 3 -25 11 -25 30 l0 25 25 -23 c14 -13 25
-27 25 -30z m2588 23 c-2 -10 -14 -20 -28 -22 -25 -3 -25 -3 -6 18 23 26 39
27 34 4z m-3658 -133 c0 -57 -4 -100 -10 -100 -32 0 -69 85 -56 128 6 18 53
72 62 72 2 0 4 -45 4 -100z m4746 10 c4 -26 0 -43 -18 -69 -41 -61 -48 -53
-48 60 l0 104 30 -31 c18 -17 33 -45 36 -64z m-3628 53 c28 -17 24 -35 -9 -43
-21 -6 -24 -11 -21 -43 2 -28 -1 -37 -12 -37 -16 0 -46 83 -46 127 0 20 4 22
33 17 17 -4 42 -13 55 -21z m1276 -20 c56 -57 75 -107 54 -149 -10 -22 -19
-28 -38 -25 -14 1 -45 3 -70 3 -25 0 -56 -2 -69 -3 -34 -5 -56 34 -47 83 7 39
87 138 111 138 7 0 34 -21 59 -47z m1256 23 c0 -47 -40 -155 -61 -167 -20 -10
-21 -9 -13 33 12 70 11 82 -11 86 -49 9 -39 45 19 61 53 16 66 13 66 -13z
m1530 -55 c0 -5 -7 -11 -15 -15 -9 -3 -15 0 -15 9 0 8 7 15 15 15 8 0 15 -4
15 -9z m-3969 -11 c19 -5 46 -20 59 -32 22 -21 22 -22 4 -29 -10 -4 -32 -8
-48 -8 -21 -1 -27 -5 -22 -17 24 -63 14 -84 -33 -64 -32 13 -49 44 -58 105 -5
37 -3 44 13 48 31 8 47 7 85 -3z m2328 3 c21 -5 23 -10 17 -50 -8 -59 -31
-101 -61 -109 -44 -11 -52 9 -29 70 5 12 -1 16 -22 17 -74 2 -76 26 -4 58 49
22 62 24 99 14z m-1339 -91 c0 -13 -9 -18 -40 -18 -22 -1 -51 -9 -64 -18 -14
-8 -32 -13 -40 -10 -23 9 -19 24 7 25 12 0 45 9 72 19 64 23 65 24 65 2z m430
-29 c2 -2 -2 -8 -10 -13 -8 -5 -24 -3 -41 6 -16 8 -46 14 -68 14 -33 0 -38 3
-34 19 4 18 7 18 76 -2 40 -11 74 -22 77 -24z m-1214 20 c16 -16 16 -18 0 -28
-50 -29 -50 -29 -32 -62 14 -28 14 -32 0 -37 -50 -19 -101 10 -134 75 -11 21
-20 43 -20 48 0 12 30 18 107 20 46 1 66 -3 79 -16z m2021 3 c11 -11 -38 -97
-69 -119 -20 -15 -35 -18 -62 -13 l-36 7 15 29 c18 36 19 50 2 50 -7 0 -21 6
-31 13 -18 13 -18 14 0 31 15 16 30 18 96 14 43 -3 81 -8 85 -12z m-4617 -131
c0 -74 -2 -135 -5 -135 -17 0 -66 33 -89 60 -34 41 -36 105 -4 145 20 26 74
65 91 65 4 0 7 -61 7 -135z m1500 40 c0 -47 -4 -85 -8 -85 -19 0 -44 40 -49
77 -4 29 0 44 17 66 12 15 26 27 31 27 5 0 9 -38 9 -85z m1157 79 c-3 -3 -12
-4 -19 -1 -8 3 -5 6 6 6 11 1 17 -2 13 -5z m2923 -26 c11 -18 20 -42 20 -53 0
-22 -35 -85 -47 -85 -5 0 -8 38 -8 85 0 47 3 85 8 85 4 0 16 -15 27 -32z
m1546 -12 c38 -38 45 -86 19 -136 -14 -27 -51 -60 -67 -60 -5 0 -8 52 -8 115
0 77 4 115 11 115 6 0 26 -15 45 -34z m-4343 -7 c18 -22 17 -23 -10 -45 -25
-20 -26 -24 -15 -48 17 -38 15 -45 -12 -57 -37 -17 -91 14 -134 78 -41 62 -38
69 35 89 62 17 113 11 136 -17z m1585 20 c28 -5 58 -16 68 -24 17 -12 16 -16
-18 -67 -43 -65 -92 -94 -133 -78 -28 11 -28 10 -8 72 3 10 -4 22 -21 33 -21
14 -24 20 -15 37 10 18 41 36 66 37 7 1 34 -4 61 -10z m-1530 -20 c-19 -13
-28 -11 -28 5 0 9 7 12 21 9 16 -4 17 -8 7 -14z m384 2 c5 -4 -12 -26 -36 -50
l-44 -44 49 -51 c27 -28 49 -56 49 -62 0 -7 -16 -19 -35 -29 -29 -13 -42 -14
-70 -5 -34 11 -88 65 -115 115 -13 24 -11 28 25 65 66 67 144 94 177 61z m175
4 c20 -14 20 -16 5 -59 -15 -40 -15 -47 0 -85 16 -40 16 -41 -5 -56 -40 -28
-90 -19 -146 25 -70 55 -79 75 -49 107 69 76 145 103 195 68z m351 1 c15 -8
47 -35 71 -60 l45 -46 -52 -50 c-56 -54 -101 -72 -144 -58 -39 14 -52 32 -39
57 14 26 14 87 0 113 -24 45 59 75 119 44z m177 -16 c17 -10 45 -35 64 -54 32
-33 34 -37 21 -61 -27 -50 -81 -104 -115 -115 -28 -9 -41 -8 -70 5 -19 10 -35
21 -35 25 0 5 24 31 53 59 l52 50 -42 43 c-49 49 -53 65 -20 71 29 5 55 -1 92
-23z m-1604 -1 c98 -70 419 -191 606 -229 125 -25 330 -43 399 -34 48 6 52 4
56 -18 3 -12 9 -32 13 -42 8 -18 4 -19 -81 -12 -209 17 -442 63 -642 128 -159
51 -333 137 -367 182 -39 51 -33 60 16 25z m742 -3 c-26 -22 -30 -23 -45 -9
-25 22 -13 33 33 33 l40 0 -28 -24z m506 10 c31 -17 51 -54 51 -97 0 -41 -56
-99 -96 -99 -44 0 -90 33 -104 74 -10 31 -9 42 7 73 28 59 85 78 142 49z m461
6 c0 -5 -8 -16 -18 -25 -17 -16 -20 -15 -42 8 l-23 25 41 0 c23 0 42 -4 42 -8z
m190 -2 c0 -5 -4 -10 -9 -10 -6 0 -13 5 -16 10 -3 6 1 10 9 10 9 0 16 -4 16
-10z m525 -19 c-19 -38 -51 -60 -166 -116 -211 -103 -549 -186 -858 -211 -80
-7 -84 -6 -76 12 4 10 10 29 12 42 5 21 10 22 112 22 272 1 580 77 843 210 73
36 136 67 141 68 4 1 1 -11 -8 -27z m-1755 -7 l31 -27 -22 -23 c-21 -23 -21
-33 3 -66 20 -27 -25 -68 -74 -68 -32 0 -47 8 -88 46 -59 55 -68 78 -43 106
54 60 142 74 193 32z m1188 6 c20 -11 48 -29 60 -40 l24 -20 -21 -28 c-11 -16
-38 -45 -61 -65 -51 -47 -103 -51 -140 -12 -20 22 -22 29 -12 43 24 33 24 43
3 66 l-22 23 31 27 c38 32 86 34 138 6z m452 -10 c0 -5 -4 -10 -10 -10 -5 0
-10 5 -10 10 0 6 5 10 10 10 6 0 10 -4 10 -10z m-2022 -72 c21 -21 13 -27 -18
-15 -16 6 -30 15 -30 19 0 12 35 9 48 -4z m1862 4 c0 -4 -13 -13 -30 -19 -31
-12 -39 -6 -18 15 13 13 48 16 48 4z m-2710 -87 c0 -65 -10 -81 -30 -46 -14
26 -13 67 2 91 21 34 28 23 28 -45z m3560 -5 c0 -15 -9 -35 -20 -45 -20 -18
-20 -17 -20 51 l1 69 19 -24 c11 -13 20 -36 20 -51z m-2505 20 c20 -22 11 -25
-33 -14 -18 5 -20 9 -11 20 15 19 23 18 44 -6z m1442 3 c4 -10 -37 -26 -45
-18 -3 3 1 12 8 20 14 17 31 16 37 -2z m-1182 -71 c-2 -2 -25 -1 -50 3 l-47 6
24 23 23 22 27 -25 c15 -13 26 -27 23 -29z m964 15 c-2 -2 -24 -7 -49 -11
l-45 -7 30 31 c29 30 29 30 49 10 11 -10 18 -21 15 -23z m-409 -17 c7 -16 10
-40 6 -53 -8 -33 -68 -110 -100 -126 -24 -13 -28 -12 -52 10 -38 34 -84 109
-84 135 0 13 5 35 12 49 10 22 16 25 37 20 56 -14 97 -15 121 -2 29 16 43 9
60 -33z m-291 10 c23 0 41 -4 41 -9 0 -10 -138 -27 -146 -18 -3 3 3 14 13 25
12 13 23 16 35 10 9 -4 35 -8 57 -8z m441 -5 c11 -13 4 -15 -53 -15 -39 0 -69
5 -73 11 -5 8 0 10 17 6 14 -4 38 -2 54 2 42 13 41 13 55 -4z m-3390 -120 c0
-70 -4 -125 -9 -125 -5 0 -23 11 -39 25 -36 30 -62 91 -55 128 5 26 73 97 93
97 6 0 10 -49 10 -125z m1700 69 c0 -34 -4 -53 -10 -49 -16 10 -10 105 6 105
2 0 4 -25 4 -56z m2880 -4 c0 -14 -5 -32 -10 -40 -7 -11 -10 1 -10 40 0 39 3
51 10 40 5 -8 10 -26 10 -40z m1759 4 c12 -16 21 -41 21 -62 0 -38 -31 -97
-61 -112 -18 -10 -19 -6 -19 105 0 111 1 115 19 105 11 -5 29 -22 40 -36z
m-1029 -15 c0 -5 -4 -9 -10 -9 -5 0 -10 7 -10 16 0 8 5 12 10 9 6 -3 10 -10
10 -16z m-392 -127 c2 -7 -3 -12 -12 -12 -9 0 -16 7 -16 16 0 17 22 14 28 -4z
m-4508 -188 l0 -136 -32 19 c-18 11 -39 30 -45 44 -17 32 -16 102 1 143 13 31
49 66 68 66 5 0 8 -61 8 -136z m5515 70 c34 -71 3 -184 -49 -184 -3 0 -6 54
-6 120 0 118 0 120 20 108 11 -7 27 -27 35 -44z m-1365 -39 c10 -12 10 -15 -4
-15 -9 0 -16 7 -16 15 0 8 2 15 4 15 2 0 9 -7 16 -15z m-3735 -343 c-10 -10
-65 51 -76 86 -15 46 1 100 44 144 l32 33 3 -129 c1 -71 0 -131 -3 -134z
m4686 161 c14 -43 0 -100 -31 -128 -20 -18 -20 -18 -20 90 0 107 0 108 20 90
10 -9 24 -33 31 -52z m-4283 -240 l-3 -58 -19 28 c-30 45 -32 124 -4 167 l23
35 3 -57 c2 -32 2 -84 0 -115z m3832 135 c23 -39 26 -95 6 -142 -28 -67 -36
-53 -36 63 0 61 2 111 5 111 3 0 14 -15 25 -32z m-2926 -222 c41 -98 102 -142
182 -130 37 5 45 3 50 -12 69 -207 249 -321 537 -340 98 -6 102 -8 103 -30 2
-20 -3 -24 -28 -24 -16 0 -43 -7 -60 -16 -87 -45 -392 45 -503 147 -50 46 -70
79 -89 143 -11 37 -15 41 -55 48 -23 4 -57 16 -75 28 -53 32 -125 116 -153
177 l-26 56 18 56 c9 31 24 67 33 81 16 25 16 24 33 -60 9 -47 24 -103 33
-124z m2087 113 l21 -68 -25 -53 c-47 -103 -150 -193 -236 -207 -31 -5 -36
-11 -51 -58 -43 -132 -169 -219 -389 -269 -121 -27 -175 -30 -211 -9 -14 8
-37 14 -52 15 -23 0 -28 5 -28 23 0 23 3 24 103 30 255 16 432 110 507 269 17
35 30 68 30 75 0 8 20 11 63 10 55 -2 69 2 99 25 57 44 91 124 113 271 5 32 9
37 21 26 8 -6 24 -42 35 -80z m-2643 -211 l-3 -53 -22 25 c-15 15 -23 36 -23
57 0 19 10 53 23 76 l22 42 3 -47 c2 -26 2 -71 0 -100z m3132 100 c26 -58 25
-91 -5 -125 l-24 -28 -1 98 c0 53 2 97 5 97 4 0 15 -19 25 -42z m-2602 -141
c51 -53 127 -97 166 -97 19 0 26 -7 31 -32 33 -152 214 -269 478 -310 42 -6
77 -14 77 -18 0 -3 -14 -19 -30 -35 l-30 -29 42 -44 43 -44 -95 7 c-226 16
-389 78 -478 180 -36 40 -62 96 -62 131 0 35 -26 54 -76 54 -56 0 -90 17 -137
69 -45 50 -63 84 -82 157 l-15 57 31 54 32 55 29 -54 c16 -29 50 -75 76 -101z
m2177 107 c34 -58 31 -114 -9 -194 -51 -101 -110 -148 -197 -154 -54 -4 -69
-15 -69 -55 0 -41 -39 -109 -88 -152 -57 -51 -142 -92 -243 -118 -86 -22 -277
-47 -286 -37 -4 4 10 23 30 44 l37 38 -30 29 c-36 34 -38 45 -7 45 54 0 245
52 315 86 105 51 185 130 207 207 14 47 20 57 39 57 68 0 193 103 246 203 14
26 26 47 27 47 0 0 13 -21 28 -46z m-2346 -144 c32 -113 117 -202 209 -221 82
-16 82 -16 82 -41 0 -61 70 -157 157 -217 79 -54 240 -95 431 -111 172 -14
186 -18 190 -57 1 -21 -2 -33 -10 -33 -123 1 -378 38 -488 70 -191 57 -350
185 -350 282 0 21 -9 26 -70 42 -54 14 -80 27 -118 61 -50 45 -95 123 -111
194 -8 39 -7 42 22 66 36 28 39 26 56 -35z m2436 35 l33 -26 -13 -47 c-38
-144 -127 -233 -257 -257 -28 -5 -38 -12 -38 -26 0 -36 -49 -116 -97 -159
-124 -109 -339 -173 -660 -196 l-93 -6 0 35 c0 40 -1 40 180 57 350 33 548
132 591 294 14 53 24 72 38 69 35 -8 113 22 157 60 49 43 114 160 114 204 0
29 4 29 45 -2z m-2553 -37 c27 -22 30 -73 7 -102 -31 -40 -72 -56 -137 -56
-67 0 -129 19 -186 57 l-40 26 58 17 57 18 50 -25 c60 -31 130 -36 156 -11 24
24 12 31 -23 13 -31 -16 -70 -13 -117 12 -34 17 -31 21 31 44 56 21 122 24
144 7z m2744 -4 c27 -9 56 -18 64 -21 23 -8 -58 -42 -102 -43 -20 0 -40 5 -43
10 -3 6 -13 10 -22 10 -14 0 -14 -3 2 -20 26 -29 99 -27 159 5 46 25 48 25 99
9 29 -9 56 -17 61 -18 19 -4 -84 -56 -140 -71 -97 -25 -175 -16 -219 25 -20
19 -22 26 -12 63 5 23 17 48 25 55 21 16 68 15 128 -4z m-1325 -60 c42 -21 79
-102 79 -171 l0 -53 -38 0 c-30 0 -41 5 -54 28 -9 15 -35 45 -58 67 l-41 40
-65 -67 c-59 -63 -67 -68 -105 -68 l-41 0 4 63 c5 76 31 133 72 158 41 25 201
27 247 3z m-2071 -39 c0 -12 -29 -25 -57 -25 -21 0 -15 28 9 44 23 16 48 6 48
-19z m3984 3 c14 -24 4 -30 -37 -23 -28 6 -34 10 -30 26 7 25 51 22 67 -3z
m-3841 -80 c34 -175 122 -308 249 -373 44 -23 59 -37 64 -57 9 -43 84 -138
145 -185 106 -81 220 -123 337 -123 63 0 65 -1 120 -51 67 -59 208 -133 287
-149 31 -6 83 -10 116 -8 66 3 65 4 53 -74 l-7 -38 -52 0 c-174 0 -487 116
-510 189 -5 18 -12 20 -44 15 -52 -8 -173 34 -286 101 -145 85 -189 124 -226
202 -37 77 -49 89 -100 97 -64 10 -163 141 -227 299 -16 40 -26 91 -31 153
l-6 94 50 0 50 0 18 -92z m89 -43 c2 -74 2 -135 1 -135 -9 0 -48 95 -64 157
-27 109 -27 113 20 113 l40 0 3 -135z m3532 126 c8 -13 -21 -146 -39 -179 -13
-25 -14 -20 -15 74 0 55 3 104 7 107 9 10 41 8 47 -2z m125 -78 c-8 -98 -25
-157 -75 -253 -65 -125 -146 -210 -199 -210 -30 0 -51 -24 -88 -100 -26 -53
-44 -74 -101 -116 -141 -107 -340 -193 -413 -179 -29 5 -35 3 -40 -14 -6 -25
-58 -60 -153 -105 -96 -46 -212 -76 -321 -83 l-86 -6 -6 39 c-13 75 -14 74 59
74 129 0 288 64 395 158 52 47 56 49 119 50 135 4 265 58 363 151 66 62 117
134 118 165 0 16 16 29 60 49 138 66 238 223 264 415 l7 52 52 0 51 0 -6 -87z
m-2161 -45 l3 -58 -45 0 c-56 0 -76 8 -76 29 1 44 54 93 95 88 17 -2 20 -11
23 -59z m505 51 c28 -12 57 -58 57 -88 0 -18 -7 -21 -40 -23 -22 -1 -48 -2
-57 -2 -15 -1 -19 10 -23 56 -6 68 9 82 63 57z m-236 -51 c65 -70 78 -112 48
-155 -14 -20 -17 -21 -46 -6 -26 13 -38 14 -71 4 -51 -16 -68 -3 -68 51 0 32
8 47 46 88 26 28 50 50 53 50 4 0 21 -15 38 -32z m-1241 10 c4 -7 1 -14 -7
-16 -8 -3 -41 -31 -74 -63 l-60 -58 30 -11 c93 -36 178 -20 201 37 13 30 17
32 35 22 16 -8 19 -17 14 -37 -14 -59 -95 -111 -171 -112 -53 0 -180 33 -235
60 l-42 22 39 17 c22 10 68 43 104 73 36 30 74 60 85 66 26 15 72 15 81 0z
m2497 -10 c18 -12 52 -40 77 -61 25 -22 64 -49 88 -60 23 -12 42 -24 42 -28 0
-14 -171 -69 -235 -75 -50 -5 -75 -3 -110 10 -78 30 -123 110 -75 136 16 9 20
8 20 -5 0 -9 14 -30 31 -47 29 -29 33 -30 92 -25 34 3 74 10 90 16 l27 11 -57
58 c-32 32 -64 61 -72 63 -22 8 -3 29 26 29 13 0 39 -10 56 -22z m-2440 -42
c23 -18 22 -51 -4 -77 -18 -18 -29 -21 -75 -16 -79 8 -82 14 -33 63 45 46 78
55 112 30z m2399 -26 c21 -23 38 -45 38 -49 0 -10 -49 -21 -90 -21 -33 0 -80
35 -80 60 0 9 10 25 23 33 38 27 67 20 109 -23z m-1364 -106 c17 -12 20 -19
12 -34 -13 -24 -13 -86 0 -110 8 -16 6 -22 -14 -36 -37 -23 -81 -10 -138 44
l-49 45 33 35 c66 69 113 86 156 56z m296 6 c31 -11 106 -78 106 -94 0 -14
-66 -79 -97 -95 -31 -16 -57 -14 -82 7 -20 15 -21 20 -10 51 9 25 9 42 0 70
-10 32 -9 38 10 54 24 19 37 21 73 7z m-155 -11 c32 -11 61 -52 61 -88 0 -11
-12 -33 -26 -50 -21 -25 -33 -31 -65 -31 -95 0 -125 119 -41 164 33 19 32 18
71 5z m-2632 -71 c-3 -8 -6 -5 -6 6 -1 11 2 17 5 13 3 -3 4 -12 1 -19z m3737
7 c-4 -8 -8 -15 -10 -15 -2 0 -4 7 -4 15 0 8 4 15 10 15 5 0 7 -7 4 -15z
m-2034 -25 c8 -5 12 -10 10 -12 -3 -2 -18 -10 -34 -18 -21 -10 -34 -29 -44
-60 -8 -25 -23 -57 -34 -72 -29 -42 -16 -51 61 -43 111 12 151 38 151 99 0 29
3 30 31 16 42 -23 8 -114 -56 -151 -44 -26 -150 -40 -215 -30 -66 11 -110 22
-110 27 0 2 17 21 38 42 25 25 43 56 52 86 25 91 99 148 150 116z m1870 -5
c33 -17 64 -64 79 -121 7 -27 25 -54 51 -78 22 -20 40 -38 40 -40 0 -10 -111
-30 -170 -30 -82 0 -149 19 -190 53 -25 21 -33 36 -37 73 -5 40 -2 48 16 57
18 10 21 9 21 -8 0 -36 22 -70 57 -86 33 -16 155 -26 168 -14 5 5 -4 27 -58
138 -10 20 -22 30 -56 48 -1 1 0 6 4 12 9 15 41 14 75 -4z m-3894 -61 c-4 -9
-9 -15 -11 -12 -3 3 -3 13 1 22 4 9 9 15 11 12 3 -3 3 -13 -1 -22z m312 -46
c-3 -72 -3 -72 -36 -82 -18 -5 -35 -6 -38 -3 -4 3 -3 27 0 51 7 44 46 106 67
106 6 0 9 -31 7 -72z m1784 55 c23 -21 23 -64 -1 -94 -15 -19 -30 -24 -85 -27
-36 -2 -66 -3 -66 -1 0 7 45 114 53 127 12 18 77 15 99 -5z m1750 0 c10 -9 18
-22 18 -30 0 -8 9 -32 19 -53 l19 -40 -47 0 c-85 0 -131 30 -131 85 0 46 84
72 122 38z m1098 -4 c0 -5 -4 -9 -10 -9 -5 0 -10 7 -10 16 0 8 5 12 10 9 6 -3
10 -10 10 -16z m645 -28 c8 -16 17 -47 21 -70 7 -45 -1 -50 -50 -31 -25 9 -26
14 -26 80 0 67 1 70 20 60 11 -6 26 -23 35 -39z m275 16 c0 -5 -4 -5 -10 -2
-5 3 -10 14 -10 23 0 15 2 15 10 2 5 -8 10 -19 10 -23z m-6191 -49 c0 -50 -3
-67 -9 -53 -16 37 -11 125 7 125 2 0 3 -33 2 -72z m6520 12 c-1 -72 -18 -77
-18 -5 -1 49 2 65 9 55 5 -8 9 -31 9 -50z m-3169 -37 c0 -34 -22 -72 -65 -113
l-37 -35 -49 53 c-40 44 -49 60 -49 90 0 58 11 68 59 54 32 -10 46 -10 73 2
30 13 34 12 51 -6 9 -11 17 -31 17 -45z m-1494 32 c3 -7 4 -39 2 -71 l-3 -59
-42 53 c-24 30 -43 64 -43 76 0 19 4 21 41 18 22 -2 43 -10 45 -17z m2842 -62
c-49 -69 -60 -67 -56 8 l3 64 40 5 c54 7 57 -15 13 -77z m-3832 40 c-10 -10
-19 5 -10 18 6 11 8 11 12 0 2 -7 1 -15 -2 -18z m4778 12 c3 -8 1 -15 -4 -15
-6 0 -10 7 -10 15 0 8 2 15 4 15 2 0 6 -7 10 -15z m-5385 -67 c0 -45 -3 -57
-9 -43 -16 36 -11 105 7 105 2 0 3 -28 2 -62z m6000 7 c0 -16 -4 -39 -9 -50
-6 -14 -9 0 -9 45 -1 45 2 60 9 50 5 -8 9 -28 9 -45z m-3509 -17 c-11 -18 -20
-47 -20 -64 0 -17 -5 -45 -11 -63 -6 -18 -9 -34 -6 -37 2 -3 31 4 63 15 32 11
61 18 63 16 2 -2 1 -15 -3 -28 -13 -53 -175 -105 -261 -83 l-27 7 24 23 c14
12 33 44 42 72 46 128 81 174 132 174 l24 0 -20 -32z m1059 5 c15 -16 35 -50
45 -78 32 -90 48 -124 68 -141 26 -24 7 -34 -64 -34 -101 0 -198 49 -198 101
0 16 4 16 56 -2 31 -11 58 -18 61 -16 8 8 -19 142 -33 163 -26 43 24 48 65 7z
m-971 -45 c3 -54 1 -58 -25 -71 -15 -8 -38 -18 -51 -21 -22 -7 -22 -6 -16 36
11 82 36 121 74 115 11 -2 16 -18 18 -59z m899 1 c7 -19 12 -49 12 -67 1 -30
-1 -33 -21 -27 -51 15 -68 34 -68 74 0 22 -3 46 -6 54 -7 20 25 28 51 12 11
-7 25 -27 32 -46z m-803 44 l39 -6 -6 -225 c-4 -123 -12 -293 -18 -378 l-12
-154 -33 0 c-21 0 -42 9 -63 29 -35 33 -38 62 -21 181 13 93 40 411 40 475 0
87 3 90 74 78z m700 -24 c3 -17 6 -55 6 -83 0 -43 19 -261 46 -526 6 -65 6
-67 -26 -98 -22 -23 -41 -32 -64 -32 l-33 0 -12 158 c-7 86 -15 257 -18 379
l-6 222 39 4 c21 2 44 4 50 5 6 1 14 -12 18 -29z m-563 11 c25 0 24 -26 -1
-81 -12 -27 -20 -66 -20 -99 0 -33 8 -72 20 -99 24 -51 26 -168 10 -426 -13
-211 -12 -205 -58 -205 -79 0 -84 17 -62 204 14 122 30 442 30 595 l0 124 31
-7 c17 -3 40 -6 50 -6z m443 -232 c3 -134 11 -295 16 -358 24 -279 24 -285 5
-303 -12 -13 -30 -17 -59 -15 l-41 3 -6 60 c-4 33 -10 159 -14 280 -7 211 -7
223 15 293 24 80 23 138 -5 192 -8 16 -15 40 -15 54 0 25 4 27 81 34 14 2 17
-27 23 -240z m-384 228 c0 -3 -4 -8 -10 -11 -5 -3 -10 -1 -10 4 0 6 5 11 10
11 6 0 10 -2 10 -4z m260 -6 c0 -5 -2 -10 -4 -10 -3 0 -8 5 -11 10 -3 6 -1 10
4 10 6 0 11 -4 11 -10z m-2280 -10 c0 -5 -5 -10 -11 -10 -5 0 -7 5 -4 10 3 6
8 10 11 10 2 0 4 -4 4 -10z m4295 0 c3 -5 1 -10 -4 -10 -6 0 -11 5 -11 10 0 6
2 10 4 10 3 0 8 -4 11 -10z m-2226 -24 l23 -25 -21 -26 c-47 -61 -33 -132 43
-218 l33 -37 35 52 c64 96 70 156 21 210 -16 18 -15 20 10 45 22 23 28 25 42
13 35 -29 59 -93 59 -156 0 -49 -7 -74 -37 -135 -42 -84 -125 -195 -137 -183
-47 53 -153 207 -165 242 -27 82 -13 165 37 219 27 29 29 29 57 -1z m2668 -23
c-3 -10 -5 -4 -5 12 0 17 2 24 5 18 2 -7 2 -21 0 -30z m-2609 -35 c8 -8 15 -8
26 1 20 16 35 6 52 -34 16 -39 7 -80 -32 -138 l-26 -39 -24 23 c-35 33 -67
104 -59 131 9 30 33 68 43 68 5 0 13 -5 20 -12z m-3269 -40 c0 -35 -2 -39 -9
-21 -8 19 -3 63 6 63 2 0 4 -19 3 -42z m6568 -20 c-2 -13 -4 -3 -4 22 0 25 2
35 4 23 2 -13 2 -33 0 -45z m-5597 -60 c0 -39 -4 -68 -10 -68 -6 0 -10 34 -10
83 0 56 3 77 10 67 5 -8 10 -45 10 -82z m4640 12 c0 -47 -4 -80 -10 -80 -11 0
-14 142 -3 153 12 13 13 7 13 -73z m-4410 4 c0 -21 -4 -33 -10 -29 -5 3 -10
19 -10 36 0 16 5 29 10 29 6 0 10 -16 10 -36z m180 -1 c0 -26 -3 -34 -11 -26
-9 9 -3 63 7 63 2 0 4 -17 4 -37z m3812 -25 c-9 -9 -12 -4 -11 23 0 32 1 33
11 11 8 -17 8 -26 0 -34z m-4463 -65 c0 -24 -3 -43 -9 -43 -6 0 -10 30 -9 73
1 54 3 65 9 42 4 -16 8 -49 9 -72z m5121 27 c0 -40 -4 -70 -10 -70 -11 0 -13
61 -4 109 10 48 14 37 14 -39z m247 -57 c-2 -21 -4 -4 -4 37 0 41 2 58 4 38 2
-21 2 -55 0 -75z m-5630 -5 c-2 -18 -4 -6 -4 27 0 33 2 48 4 33 2 -15 2 -42 0
-60z m1259 24 c-12 -11 -17 7 -9 34 l8 29 3 -28 c2 -16 1 -31 -2 -35z m3128
26 c4 -17 2 -28 -4 -28 -5 0 -10 14 -10 32 0 36 4 35 14 -4z m-3217 -10 c-3
-8 -6 -5 -6 6 -1 11 2 17 5 13 3 -3 4 -12 1 -19z m4742 -120 c-1 -77 -3 -86
-10 -53 -14 71 -11 145 8 145 2 0 2 -42 2 -92z m-4710 35 c0 -34 -1 -36 -11
-16 -6 12 -8 29 -5 37 11 27 17 18 16 -21z m3232 -15 c-9 -20 -10 -18 -10 17
0 31 2 36 9 23 6 -10 7 -25 1 -40z m-4961 -10 c-1 -28 -2 -30 -11 -15 -6 10
-8 25 -5 33 9 24 16 16 16 -18z m3258 -30 c27 -35 57 -78 66 -96 l17 -34 62
86 c71 100 75 98 76 -34 1 -47 6 -163 13 -258 11 -167 11 -173 -9 -200 -68
-92 -191 -96 -270 -9 l-36 40 7 101 c3 56 9 183 13 284 3 100 7 182 9 182 1 0
25 -28 52 -62z m2662 -84 c0 -54 -4 -83 -10 -79 -15 9 -9 165 6 165 2 0 4 -39
4 -86z m-5141 -19 c0 -22 -4 -47 -9 -55 -7 -10 -9 12 -9 70 1 60 4 76 9 55 4
-16 8 -48 9 -70z m-252 -12 c-2 -21 -4 -6 -4 32 0 39 2 55 4 38 2 -18 2 -50 0
-70z m5630 -10 c-2 -21 -4 -4 -4 37 0 41 2 58 4 38 2 -21 2 -55 0 -75z m-751
50 c-11 -11 -17 4 -9 23 7 18 8 18 11 1 2 -10 1 -21 -2 -24z m-4122 12 c3 -8
1 -15 -4 -15 -6 0 -10 7 -10 15 0 8 2 15 4 15 2 0 6 -7 10 -15z m795 -82 c-1
-45 -1 -46 -10 -18 -8 27 -4 65 7 65 2 0 4 -21 3 -47z m2528 -15 c-2 -13 -4
-5 -4 17 -1 22 1 32 4 23 2 -10 2 -28 0 -40z m-1970 -20 c-3 -22 -4 -21 -11 4
-5 16 -5 36 0 45 7 16 8 15 11 -4 3 -13 3 -33 0 -45z m-307 27 c0 -14 -2 -25
-4 -25 -2 0 -6 11 -8 25 -3 14 -1 25 3 25 5 0 9 -11 9 -25z m2027 -22 c-3 -10
-5 -4 -5 12 0 17 2 24 5 18 2 -7 2 -21 0 -30z m-4080 -90 c-2 -21 -4 -6 -4 32
0 39 2 55 4 38 2 -18 2 -50 0 -70z m2113 16 c0 -17 -4 -28 -10 -24 -5 3 -10
17 -10 31 0 13 5 24 10 24 6 0 10 -14 10 -31z m1920 7 c0 -14 -4 -28 -10 -31
-6 -4 -10 7 -10 24 0 17 5 31 10 31 6 0 10 -11 10 -24z m1357 -103 c-2 -21 -4
-6 -4 32 0 39 2 55 4 38 2 -18 2 -50 0 -70z m-540 65 c-3 -8 -6 -5 -6 6 -1 11
2 17 5 13 3 -3 4 -12 1 -19z m-4110 -70 c-2 -18 -4 -6 -4 27 0 33 2 48 4 33 2
-15 2 -42 0 -60z m1964 13 c29 -6 34 -11 34 -36 0 -28 -2 -30 -38 -29 -44 2
-97 45 -97 79 0 33 10 36 40 13 15 -11 43 -23 61 -27z m819 8 c0 -29 -56 -72
-97 -73 -36 -1 -38 1 -38 29 0 25 5 30 34 36 18 4 45 16 60 27 27 20 41 14 41
-19z m1602 -11 c-7 -7 -12 -8 -12 -2 0 14 12 26 19 19 2 -3 -1 -11 -7 -17z
m-2761 -120 c46 -13 113 -68 134 -109 8 -15 15 -43 15 -62 0 -60 -67 -233
-105 -271 -9 -9 -33 -16 -53 -16 -41 0 -82 -23 -82 -46 0 -8 -11 -19 -25 -24
-39 -15 -29 -29 23 -32 42 -3 47 -6 50 -29 7 -62 -275 -390 -450 -523 -44 -33
-50 -72 -18 -101 25 -23 25 -41 1 -55 -52 -27 -131 0 -131 46 0 13 -4 24 -10
24 -5 0 -10 -13 -10 -29 0 -30 38 -71 66 -71 8 0 14 -5 14 -11 0 -18 68 -39
130 -39 33 0 77 -7 97 -15 19 -8 52 -15 72 -15 45 -1 71 -20 71 -52 0 -70
-159 -116 -238 -68 -22 13 -35 30 -39 51 l-6 32 -19 -27 c-18 -23 -26 -26 -83
-26 -82 0 -119 13 -112 40 7 25 -9 26 -64 0 -32 -14 -66 -20 -122 -20 -69 0
-81 3 -102 24 -23 23 -25 24 -37 7 -22 -30 -79 -53 -144 -59 -57 -4 -65 -2
-88 21 l-25 26 -19 -26 c-16 -22 -31 -28 -83 -34 -87 -11 -114 -4 -129 32 -15
36 -28 37 -32 2 -5 -43 -48 -66 -121 -67 -107 -2 -151 47 -105 116 32 48 82
59 303 67 110 4 179 10 177 16 -1 5 -32 8 -71 6 -63 -2 -70 -1 -81 19 -13 24
-5 70 13 82 7 4 40 8 75 8 58 0 63 -2 57 -19 -3 -11 1 -36 9 -55 12 -30 20
-36 45 -36 41 0 49 18 9 22 -30 3 -33 6 -36 39 -4 46 9 55 86 62 l62 5 0 -30
c0 -16 5 -39 11 -50 14 -26 -2 -38 -48 -38 -18 0 -33 -4 -33 -9 0 -17 24 -18
70 -5 25 8 59 14 75 14 33 0 222 63 238 79 6 6 8 14 4 18 -4 4 -13 1 -19 -5
-31 -31 -118 7 -118 51 0 18 9 24 48 34 26 6 55 14 65 18 11 5 17 2 17 -7 0
-8 9 -23 19 -32 16 -15 29 -16 78 -10 48 6 63 13 88 39 16 18 57 56 90 85 59
51 84 83 85 108 0 6 -4 12 -10 12 -5 0 -10 -7 -10 -15 0 -8 -26 -38 -57 -67
-32 -29 -75 -71 -97 -92 -21 -22 -50 -41 -65 -43 -80 -10 -85 -9 -100 21 -13
28 -13 31 10 45 13 9 36 27 50 41 l26 26 16 -28 c11 -19 24 -28 42 -28 33 0
68 18 60 31 -4 6 -13 5 -25 -1 -28 -15 -48 -12 -59 9 -9 15 -3 24 30 51 30 24
44 29 52 21 18 -18 63 -13 88 10 l24 21 -25 -7 c-96 -26 -102 9 -19 109 4 4
21 -2 37 -14 29 -21 32 -22 63 -6 40 20 39 20 39 -7 0 -13 5 -28 12 -35 17
-17 55 -15 62 3 4 12 -1 15 -22 13 -26 -3 -27 -1 -26 37 0 24 11 57 25 80 53
87 129 233 129 248 0 6 -10 1 -22 -10 -45 -41 -117 -58 -133 -33 -10 17 4 63
28 94 20 25 26 27 44 16 24 -16 73 -6 73 15 0 12 -5 12 -25 3 -30 -14 -55 3
-55 38 0 13 -4 24 -9 24 -5 0 -11 16 -13 35 -4 34 -3 36 35 42 34 5 38 9 34
29 -3 17 2 24 18 28 12 3 43 18 69 32 51 28 51 29 30 100 -4 17 1 24 25 34 18
7 31 20 31 30 0 33 19 37 81 18z m1475 -13 c3 -21 30 -45 52 -45 9 0 11 -6 6
-22 -5 -13 -8 -36 -9 -52 0 -26 7 -33 62 -60 47 -23 63 -36 63 -52 0 -17 8
-23 38 -28 37 -5 38 -7 34 -41 -2 -19 -8 -35 -12 -35 -5 0 -10 -12 -12 -26 -4
-36 -31 -53 -58 -37 -11 8 -21 9 -25 3 -7 -11 26 -30 52 -30 11 0 25 6 32 13
10 10 16 7 31 -13 27 -36 43 -77 36 -95 -11 -31 -85 -16 -132 27 -38 34 -33 6
12 -72 23 -41 50 -90 58 -108 9 -18 24 -46 35 -61 11 -15 20 -36 20 -47 0 -10
2 -30 3 -44 3 -22 -1 -25 -24 -23 -20 1 -25 -2 -21 -13 7 -18 47 -18 63 1 7 8
10 25 8 38 l-4 23 38 -20 39 -19 30 23 c17 12 31 20 32 18 1 -1 17 -22 35 -45
17 -23 32 -49 32 -58 0 -24 -30 -30 -61 -12 -34 19 -48 5 -17 -17 26 -19 69
-21 85 -5 16 16 84 -39 81 -66 -4 -24 -42 -32 -64 -14 -8 6 -18 9 -22 5 -12
-13 32 -37 62 -34 16 2 34 12 40 23 6 11 12 22 13 24 1 2 18 -9 36 -25 19 -16
42 -34 52 -39 16 -10 17 -14 4 -40 -15 -31 -12 -30 -100 -22 -15 1 -45 21 -73
49 -26 26 -68 64 -92 85 -27 22 -47 47 -51 65 -3 15 -9 25 -14 22 -19 -11 -8
-47 24 -77 172 -165 171 -164 231 -171 47 -6 61 -5 77 10 10 9 19 24 19 32 0
10 5 12 18 7 9 -5 38 -13 65 -18 39 -9 47 -15 47 -33 0 -45 -87 -83 -118 -52
-6 6 -15 9 -18 5 -9 -9 15 -37 32 -37 7 0 47 -13 89 -30 42 -16 93 -30 114
-30 21 0 57 -7 80 -15 41 -14 76 -11 65 6 -3 5 -17 9 -32 9 -42 0 -56 13 -43
38 6 11 11 34 11 50 l0 30 63 -5 c70 -6 87 -16 87 -48 0 -41 -11 -55 -42 -55
-17 0 -27 -4 -23 -10 3 -5 19 -10 35 -10 35 0 50 23 50 74 l0 36 63 0 c34 0
67 -4 73 -8 17 -11 24 -52 13 -79 -8 -23 -13 -24 -77 -23 -87 2 -90 2 -72 -10
8 -5 85 -10 171 -10 113 0 168 -4 199 -15 23 -8 52 -15 64 -15 25 -1 68 -63
64 -93 -6 -39 -53 -62 -124 -61 -75 1 -117 24 -122 67 -4 34 -20 35 -32 3 -14
-38 -42 -47 -117 -40 -56 5 -72 11 -89 31 l-22 25 -30 -22 c-26 -20 -39 -22
-90 -18 -63 6 -119 30 -140 60 -13 18 -14 18 -32 -4 -17 -21 -27 -23 -112 -23
-69 0 -102 5 -127 18 -45 23 -60 22 -54 -3 7 -26 -30 -40 -110 -41 -55 -1 -63
2 -83 26 l-21 27 -6 -31 c-9 -41 -58 -71 -118 -71 -87 0 -159 40 -159 88 0 33
26 51 73 52 21 0 48 5 60 12 12 6 61 15 109 18 63 5 93 11 107 24 11 10 35 25
53 34 36 18 56 59 43 88 -6 16 -9 13 -16 -16 -10 -45 -34 -62 -88 -58 -58 4
-74 27 -43 61 37 39 29 68 -30 112 -156 118 -443 454 -436 512 3 26 7 28 51
31 51 3 61 17 22 32 -14 5 -25 16 -25 24 0 23 -41 46 -82 46 -46 0 -68 20 -98
87 -61 138 -73 217 -41 269 52 85 199 148 207 89z m757 0 c-3 -9 -8 -14 -10
-11 -3 3 -2 9 2 15 9 16 15 13 8 -4z m-1770 -23 c45 -4 48 -6 45 -31 -3 -24
-7 -26 -51 -29 -57 -4 -77 9 -77 50 0 25 3 29 18 22 9 -4 39 -9 65 -12z m557
-10 c0 -40 -17 -52 -77 -52 -52 0 -53 0 -53 30 0 29 2 30 43 30 23 0 49 5 57
10 24 15 30 12 30 -18z m-2071 -39 c1 -7 -3 -13 -9 -13 -5 0 -10 17 -9 38 1
33 2 34 9 12 4 -14 8 -31 9 -37z m3517 -11 c-13 -12 -17 8 -10 40 l9 33 3 -33
c2 -19 1 -36 -2 -40z m-1834 -56 c73 -31 149 -18 204 36 l32 30 7 -43 c7 -40
5 -45 -23 -70 -41 -37 -102 -52 -179 -46 -97 7 -160 68 -146 140 l6 28 31 -30
c17 -16 48 -37 68 -45z m-354 -110 c35 -18 39 -32 19 -60 -12 -17 -15 -17 -55
-1 -54 22 -85 64 -76 102 11 45 15 46 48 10 17 -19 46 -42 64 -51z m947 -6
c-24 -46 -117 -85 -129 -54 -12 31 -6 52 17 57 12 4 40 25 62 47 l40 41 13
-31 c10 -25 10 -35 -3 -60z m-1645 -27 c0 -24 -4 -43 -10 -43 -6 0 -10 26 -10
58 0 40 3 53 10 42 5 -8 10 -34 10 -57z m2260 12 c0 -30 -4 -55 -10 -55 -11 0
-14 93 -3 103 12 12 13 8 13 -48z m-1624 -89 c-9 -35 -90 -102 -146 -121 -41
-13 -53 -14 -72 -4 -23 13 -22 13 12 19 20 3 42 10 49 14 12 8 66 115 84 168
5 14 12 11 42 -18 29 -27 36 -40 31 -58z m1044 71 c0 -26 69 -156 89 -166 11
-6 32 -11 48 -11 27 -1 27 -1 8 -16 -46 -35 -203 50 -220 119 -6 22 -1 33 26
60 34 32 49 37 49 14z m-911 -88 c15 -11 46 -23 68 -26 l40 -5 -8 -36 c-4 -19
-14 -39 -21 -43 -25 -17 -120 16 -131 45 -6 15 10 86 19 86 3 0 17 -9 33 -21z
m747 -11 c14 -59 0 -80 -63 -97 -41 -12 -71 -4 -78 20 -3 10 -7 27 -10 38 -5
15 2 19 36 24 23 3 54 15 68 26 35 27 38 26 47 -11z m-1432 -2 c-6 -16 -24
-23 -24 -8 0 10 22 33 27 28 2 -2 1 -11 -3 -20z m2094 -12 c-10 -10 -28 6 -28
24 0 15 1 15 17 -1 9 -9 14 -19 11 -23z m-3218 -4 c11 -11 20 -32 20 -46 0
-20 -9 -29 -43 -44 -38 -17 -52 -18 -106 -9 -89 14 -129 -3 -157 -66 l-13 -30
-1 28 c0 38 24 88 59 121 62 60 201 86 241 46z m123 -18 c16 -15 38 -42 50
-61 17 -29 18 -36 6 -39 -7 -3 -33 -24 -56 -47 l-42 -41 -35 32 c-40 37 -44
53 -20 90 12 18 15 36 10 65 l-7 42 33 -7 c18 -3 45 -19 61 -34z m941 32 c22
-8 21 -72 -1 -96 -10 -11 -30 -18 -55 -18 -37 0 -38 1 -38 38 0 67 9 82 45 82
19 0 40 -3 49 -6z m2281 -45 c8 -57 0 -71 -40 -71 -32 0 -61 26 -70 63 -9 36
16 59 65 59 l38 0 7 -51z m940 24 c-11 -40 -8 -63 9 -82 24 -26 20 -41 -19
-81 l-36 -37 -37 37 c-20 20 -45 41 -56 47 -17 9 -17 12 -3 40 24 45 93 103
123 103 24 0 25 -3 19 -27z m179 13 c88 -27 157 -104 155 -173 l-1 -28 -13 30
c-27 61 -46 69 -150 67 -111 -3 -155 12 -155 53 0 60 66 80 164 51z m-2408
-127 c51 -17 169 -17 218 0 21 7 55 29 76 47 37 34 38 34 44 12 11 -44 6 -64
-27 -96 -17 -17 -52 -38 -76 -47 -88 -31 -244 -13 -314 35 -49 33 -60 55 -52
101 l7 40 42 -39 c24 -22 60 -45 82 -53z m-282 40 c49 -29 49 -65 0 -119 -36
-40 -176 -140 -196 -140 -5 0 8 20 30 45 37 42 122 198 122 224 0 15 3 14 44
-10z m816 7 c0 -27 81 -174 121 -219 22 -26 36 -47 31 -47 -20 0 -160 100
-196 140 -48 53 -49 90 -3 118 39 25 47 26 47 8z m-1560 -77 c0 -42 -57 -71
-104 -53 -21 8 -20 16 4 57 20 34 22 34 60 25 29 -8 40 -16 40 -29z m116 4
l54 6 -20 -39 c-23 -46 -64 -80 -96 -80 -32 0 -57 28 -49 54 4 12 9 32 12 46
10 52 13 55 30 30 14 -20 22 -22 69 -17z m2124 -4 c0 -16 5 -38 12 -49 10 -15
9 -23 -6 -39 -27 -29 -67 -27 -98 7 -28 30 -58 73 -58 83 0 3 22 4 49 1 41 -4
52 -1 67 16 22 26 34 19 34 -19z m121 0 c17 -34 18 -43 7 -50 -38 -25 -108 4
-108 45 0 21 29 39 72 45 4 1 17 -18 29 -40z m-3401 16 c0 -8 18 -32 41 -52
40 -38 85 -119 96 -177 6 -30 34 -86 58 -116 7 -8 15 -32 18 -53 6 -37 5 -39
-18 -33 -14 4 -53 24 -86 46 -34 22 -65 40 -69 40 -4 0 -24 21 -44 47 -31 40
-36 54 -34 88 2 33 7 41 26 43 34 5 16 22 -24 22 -24 0 -43 8 -61 26 -25 25
-26 34 -10 99 3 11 6 22 6 25 1 3 24 6 51 7 39 2 50 -1 50 -12z m4435 2 c1 -1
6 -15 13 -30 18 -42 15 -65 -13 -92 -16 -17 -35 -25 -59 -25 -40 0 -58 -17
-24 -22 20 -3 23 -9 22 -49 0 -37 -7 -54 -35 -87 -18 -23 -38 -42 -42 -42 -4
0 -35 -18 -67 -40 -33 -22 -73 -43 -89 -46 l-30 -6 11 33 c6 19 15 41 19 49
36 62 53 100 66 144 22 74 46 116 92 161 23 21 41 45 41 53 0 11 10 13 48 7
26 -4 47 -8 47 -8z m-4199 -53 c17 -45 17 -47 -2 -57 -10 -6 -34 -25 -52 -43
l-32 -32 -21 39 c-11 22 -17 49 -14 59 7 23 71 80 90 80 7 0 21 -21 31 -46z
m1754 -40 c0 -11 -13 -39 -29 -60 -30 -40 -141 -153 -141 -143 0 4 13 38 29
76 16 39 36 97 45 129 9 33 19 65 21 72 7 20 75 -47 75 -74z m2189 60 c49 -41
54 -56 31 -109 l-20 -47 -24 29 c-13 16 -36 35 -50 42 -30 17 -32 28 -9 76 20
42 32 43 72 9z m-1723 -93 c18 -56 41 -116 50 -134 15 -30 12 -28 -36 18 -64
61 -110 122 -110 146 0 18 49 83 57 75 3 -2 20 -50 39 -105z m-1458 24 c2 -2
-7 -19 -20 -39 -27 -41 -55 -56 -103 -56 -44 0 -45 17 -7 71 27 38 28 38 77
32 28 -3 51 -7 53 -8z m2475 -29 c15 -24 27 -48 27 -55 0 -13 -78 -15 -98 -3
-15 10 -62 73 -62 83 0 4 17 10 38 12 20 2 44 4 52 5 8 1 27 -18 43 -42z
m-2416 -5 c12 -6 33 -11 47 -11 14 0 26 -3 26 -7 0 -10 -51 -77 -74 -95 -40
-33 -86 -17 -86 30 0 28 50 117 59 104 3 -5 16 -14 28 -21z m1177 -2 c33 -39
40 -67 33 -137 -5 -56 -75 -292 -86 -292 -13 0 -91 278 -91 323 0 114 85 176
144 106z m1136 -81 c0 -16 -9 -33 -21 -42 -19 -13 -26 -13 -49 -1 -26 14 -90
90 -90 107 0 4 13 8 29 8 16 0 39 9 52 19 l24 19 27 -41 c16 -23 28 -54 28
-69z m-3089 52 c12 -38 11 -42 -13 -68 -14 -15 -34 -42 -43 -61 l-17 -35 -24
40 c-34 55 -31 80 15 125 50 50 67 50 82 -1z m3840 19 c37 -26 62 -74 53 -101
-3 -12 -14 -35 -24 -50 l-17 -29 -27 46 c-15 25 -35 51 -45 57 -17 11 -18 14
-4 55 17 49 23 51 64 22z m-4394 -29 c29 -17 32 -23 26 -52 -4 -18 -7 -43 -8
-55 0 -18 -6 -23 -28 -23 -51 0 -97 26 -103 59 -4 17 -15 38 -25 47 -34 31
-21 41 61 43 29 1 57 -6 77 -19z m5025 9 c20 -11 20 -11 0 -32 -11 -12 -22
-33 -25 -47 -8 -32 -36 -49 -92 -57 l-45 -6 0 41 c0 22 -3 47 -6 56 -15 38
115 74 168 45z m-5178 -48 c39 -43 -6 -108 -101 -146 -56 -22 -77 -55 -70
-111 6 -53 1 -55 -19 -9 -18 44 -18 88 1 152 30 100 141 167 189 114z m1316 1
c27 1 50 1 50 -3 0 -3 -14 -27 -31 -53 l-30 -48 -50 4 c-28 3 -57 12 -66 21
-14 14 -12 19 18 55 25 30 37 38 46 30 7 -5 35 -8 63 -6z m2690 -65 c0 -9 -5
-19 -11 -23 -19 -12 -81 -23 -96 -17 -13 5 -73 85 -73 97 0 3 24 6 54 6 30 0
58 4 61 10 8 12 65 -52 65 -73z m1305 51 c67 -58 100 -166 75 -242 -17 -51
-28 -53 -23 -3 6 54 -19 88 -93 123 -84 40 -115 94 -77 136 26 29 76 23 118
-14z m-5036 -9 c30 -22 40 -36 36 -48 -4 -9 -9 -31 -12 -48 -7 -39 -24 -42
-70 -13 -29 17 -33 25 -33 64 0 85 13 93 79 45z m4715 15 c3 -9 6 -36 6 -60 0
-39 -4 -47 -32 -64 -49 -29 -65 -26 -72 16 -4 19 -9 41 -12 48 -5 14 70 76 92
76 6 0 15 -7 18 -16z m-4235 -70 l32 -55 -26 -30 c-14 -17 -25 -41 -25 -55 0
-31 -24 -31 -55 1 -37 36 -34 99 5 153 17 23 32 42 34 42 2 0 18 -25 35 -56z
m3733 39 c52 -60 63 -139 23 -178 -31 -32 -55 -32 -55 -1 0 14 -11 38 -25 54
l-25 30 27 56 c16 31 31 56 34 56 3 0 13 -8 21 -17z m-4085 -62 c40 -39 41
-40 30 -85 -8 -38 -14 -46 -32 -46 -32 0 -72 35 -80 70 -8 35 11 100 29 100 6
0 30 -18 53 -39z m4459 12 c3 -16 7 -34 10 -41 6 -21 -22 -79 -44 -91 -42 -22
-58 -14 -69 36 l-11 48 41 37 c48 45 65 47 73 11z m-4726 -23 c14 0 45 -14 69
-30 24 -17 53 -30 65 -30 12 0 33 -15 49 -35 20 -26 38 -37 68 -41 32 -5 42
-13 55 -41 19 -39 36 -50 85 -55 26 -2 44 -12 63 -35 34 -40 26 -43 -108 -43
-91 0 -107 3 -137 23 -22 15 -34 31 -33 46 1 19 -3 21 -28 15 -46 -9 -94 4
-128 36 -27 25 -30 32 -20 50 15 27 6 37 -15 17 -24 -24 -52 -30 -90 -17 -33
11 -85 61 -85 82 0 5 19 29 43 52 l42 42 40 -18 c22 -10 51 -18 65 -18z m5100
-77 c-36 -63 -134 -92 -166 -49 -18 25 -32 11 -16 -15 11 -18 9 -24 -18 -49
-35 -33 -77 -45 -127 -35 -23 4 -33 3 -29 -4 11 -18 -11 -48 -50 -66 -28 -13
-60 -17 -131 -16 -124 2 -129 5 -97 47 22 28 33 34 63 34 41 0 76 26 91 66 6
15 18 24 30 24 31 0 75 26 94 54 9 15 26 26 37 26 25 0 71 23 88 44 8 9 28 16
45 16 17 0 48 8 69 18 l39 17 46 -43 c45 -42 46 -44 32 -69z m-4061 93 c6 -8
32 -19 56 -25 25 -6 45 -15 45 -20 0 -20 -63 -61 -93 -61 -31 0 -97 32 -97 47
0 9 62 73 71 73 3 0 12 -6 18 -14z m2895 -25 l38 -38 -35 -22 c-51 -31 -90
-27 -134 13 l-37 33 52 12 c28 7 56 19 63 27 6 8 12 14 13 14 1 0 19 -17 40
-39z m-3502 -151 c-4 -48 -5 -50 -34 -50 -43 0 -65 15 -78 55 -10 31 -7 85 7
107 2 4 27 -8 56 -27 l52 -34 -3 -51z m323 54 c14 -3 25 -10 25 -15 0 -13 -77
-31 -118 -27 -31 3 -37 7 -40 29 -2 14 6 37 18 52 l22 27 34 -30 c19 -16 46
-33 59 -36z m3543 -13 c-3 -23 -8 -26 -43 -29 -22 -1 -60 3 -85 11 l-45 13 45
21 c25 11 54 30 65 42 l20 23 23 -27 c14 -17 22 -37 20 -54z m302 34 c6 -90
-15 -125 -74 -125 -34 0 -34 0 -38 50 l-3 50 50 34 c28 19 53 31 57 27 3 -3 7
-19 8 -36z m-3627 -2 c23 -15 44 -29 47 -31 13 -10 -54 -52 -83 -52 -42 0 -82
21 -82 42 0 14 58 68 72 68 2 0 22 -12 46 -27z m3057 1 c45 -30 50 -46 18 -68
-35 -25 -92 -20 -125 10 -15 14 -23 27 -17 30 5 2 26 15 45 29 18 13 35 24 37
25 1 0 20 -12 42 -26z m-3457 -71 c4 -2 5 -8 2 -12 -2 -5 2 -33 10 -62 7 -30
10 -58 6 -62 -15 -15 -85 6 -113 34 -23 23 -28 36 -28 77 0 27 3 51 6 55 5 5
98 -18 117 -30z m3895 -29 c-3 -33 -12 -62 -23 -74 -21 -24 -88 -44 -115 -35
-18 6 -19 8 -5 35 8 16 15 45 15 64 0 31 4 36 43 50 89 31 91 31 85 -40z
m-3630 36 c10 -12 35 -27 56 -34 l39 -13 -25 -17 c-13 -9 -45 -19 -70 -22 -41
-6 -49 -3 -72 19 -14 14 -26 32 -26 39 0 10 47 38 78 47 2 1 11 -8 20 -19z
m3305 0 c43 -16 45 -27 15 -65 -19 -25 -26 -27 -68 -22 -48 6 -100 25 -100 37
0 4 14 10 30 14 17 3 40 16 53 30 12 13 24 23 27 22 3 0 22 -8 43 -16z m-3467
-20 c33 0 44 -4 44 -16 0 -8 14 -29 31 -46 31 -32 27 -47 -12 -48 -9 0 -37 -3
-63 -6 -45 -7 -46 -6 -61 29 -21 50 -20 101 1 93 9 -3 36 -6 60 -6z m3641 -36
c-7 -69 -30 -86 -99 -78 -79 9 -85 15 -49 52 17 17 31 37 31 46 0 11 14 16 53
19 28 2 56 4 61 5 5 1 6 -19 3 -44z m1404 -36 c227 -137 465 -370 625 -612
l39 -59 -45 -39 c-25 -22 -65 -56 -89 -76 l-43 -36 -20 24 c-112 140 -198 237
-294 329 -106 102 -282 242 -381 305 -24 14 -43 29 -43 32 0 12 156 174 167
174 7 0 45 -19 84 -42z m-4931 -60 c0 -7 12 -24 26 -39 l26 -28 -38 -16 c-22
-10 -58 -19 -80 -22 -35 -5 -44 -2 -58 18 -9 13 -16 35 -16 50 0 24 5 27 58
36 81 14 82 14 82 1z m3440 -7 c42 -8 51 -38 25 -78 -15 -22 -22 -25 -59 -20
-22 3 -58 12 -80 22 l-38 16 26 28 c14 15 26 32 26 39 0 11 6 11 100 -7z
m-4539 -210 c10 -7 19 -18 19 -24 0 -5 -33 -49 -73 -96 -311 -368 -578 -773
-760 -1151 -44 -91 -81 -167 -83 -169 -4 -4 -274 187 -274 194 0 2 18 46 41
97 160 366 498 880 842 1281 l58 67 105 -92 c58 -51 114 -99 125 -107z m441
142 c3 -35 6 -38 36 -41 18 -2 32 1 32 7 0 6 -11 11 -25 11 -17 0 -25 5 -25
18 0 31 22 42 80 42 l55 0 0 -50 0 -50 -85 0 c-50 0 -103 -7 -129 -16 -24 -8
-49 -13 -56 -10 -7 2 -21 23 -32 45 -17 34 -18 43 -7 52 18 15 68 27 116 28
36 1 37 0 40 -36z m4619 27 c29 -16 25 -50 -6 -50 -14 0 -25 -5 -25 -11 0 -6
14 -9 33 -7 28 3 33 7 37 38 l5 35 60 -3 c33 -1 70 -10 83 -18 21 -14 22 -18
10 -32 -8 -9 -19 -29 -26 -44 -13 -32 -23 -34 -82 -13 -25 9 -77 15 -124 15
l-82 0 0 50 0 50 49 0 c26 0 57 -5 68 -10z m-3364 -38 c4 -9 -4 -24 -21 -39
-31 -27 -110 -32 -141 -10 -17 13 -16 14 13 20 17 4 38 17 46 29 13 20 22 23
56 20 25 -3 44 -10 47 -20z m2297 -32 c21 0 21 -16 0 -24 -26 -10 -91 -7 -118
6 -27 12 -44 45 -29 58 4 5 24 10 43 12 28 2 41 -3 62 -24 14 -16 33 -28 42
-28z m-2137 18 c55 -20 76 -39 53 -46 -8 -3 -24 -16 -36 -29 -14 -15 -25 -20
-29 -13 -3 5 -26 10 -51 10 -25 0 -59 7 -75 16 -29 14 -30 17 -15 33 9 10 16
28 16 40 0 21 3 22 43 16 23 -4 66 -16 94 -27z m1965 5 c3 -16 8 -35 12 -44 9
-21 -32 -39 -87 -39 -24 0 -47 -4 -52 -9 -6 -6 -22 1 -42 20 -18 16 -33 31
-33 34 0 14 135 62 181 64 11 1 18 -9 21 -26z m-3546 -38 c21 -51 10 -83 -29
-87 -27 -2 -36 -11 -54 -48 -27 -52 -29 -106 -7 -138 14 -20 14 -22 0 -22 -24
0 -54 35 -65 77 -34 122 20 253 105 253 31 0 37 -5 50 -35z m5077 24 c67 -37
96 -152 62 -250 -16 -45 -38 -69 -62 -69 -11 0 -11 4 1 22 41 58 -6 188 -68
188 -38 0 -47 68 -14 107 13 16 52 17 81 2z m468 -36 c63 -68 84 -137 67 -218
-9 -45 -21 -61 -131 -172 -67 -68 -123 -123 -126 -123 -4 0 -7 17 -8 38 -1 20
-9 76 -19 124 l-17 86 55 61 c62 69 107 151 115 210 6 46 18 45 64 -6z m-3810
-73 c36 -67 12 -186 -45 -223 l-22 -15 3 51 c4 46 0 58 -31 107 -47 71 -47
102 -1 127 29 16 74 -6 96 -47z m1638 26 c17 -20 8 -53 -30 -115 -27 -44 -31
-57 -27 -101 5 -49 5 -50 -16 -37 -37 25 -66 87 -66 145 0 66 22 109 63 127
33 14 53 9 76 -19z m2361 -85 c5 -11 10 -35 10 -54 0 -32 -3 -35 -37 -41 -21
-4 -46 -9 -55 -12 -15 -4 -16 3 -13 58 2 35 4 64 4 66 1 1 19 2 41 2 29 0 42
-5 50 -19z m-5922 -106 l38 -50 -18 -45 c-23 -62 -23 -164 1 -215 31 -64 58
-90 210 -198 l143 -102 32 -95 c18 -52 36 -103 41 -114 7 -17 6 -17 -16 -6
-106 55 -408 296 -481 383 -81 97 -93 132 -93 262 1 97 4 118 28 174 15 36 35
76 44 90 l17 26 8 -30 c4 -17 25 -52 46 -80z m4955 34 c20 -5 46 -20 57 -31
29 -32 60 -122 67 -197 l6 -66 -24 18 c-13 10 -45 28 -71 40 -39 19 -49 30
-68 74 -23 55 -90 126 -138 144 -25 10 -26 12 -7 19 29 12 134 12 178 -1z
m-162 -45 c48 -24 119 -116 119 -153 0 -5 -26 -11 -58 -15 -42 -5 -70 -2 -102
10 -67 24 -156 23 -207 -2 -24 -12 -43 -18 -43 -14 0 19 90 128 126 151 78 53
101 56 165 23z m395 -77 c27 -25 62 -68 77 -95 l27 -50 -51 -11 c-28 -6 -54
-9 -59 -6 -4 3 -16 -14 -25 -38 l-17 -42 -17 22 c-13 15 -20 46 -23 105 -4 56
-14 104 -30 145 l-25 62 46 -24 c26 -13 69 -43 97 -68z m868 73 c25 -9 26 -13
26 -88 0 -125 -15 -155 -148 -295 -64 -67 -118 -123 -121 -124 -3 -2 -6 46 -6
106 0 60 -3 112 -6 116 -4 3 -59 6 -124 7 l-117 1 129 129 c90 90 141 133 169
143 45 16 161 19 198 5z m-545 -225 c1 -69 -17 -105 -52 -105 -25 0 -117 100
-117 127 0 26 21 57 79 116 l56 58 17 -68 c9 -37 17 -95 17 -128z m-5299 56
c69 -52 128 -99 132 -105 4 -6 8 -40 8 -76 0 -36 5 -96 10 -134 6 -38 8 -71 6
-73 -2 -3 -65 39 -140 93 -182 130 -216 182 -203 307 3 29 11 64 17 79 11 23
15 25 29 15 9 -7 73 -54 141 -106z m6003 22 c11 -6 9 -71 -3 -94 -7 -13 -21
-19 -44 -19 -18 0 -47 -5 -65 -11 -35 -12 -50 -7 -33 13 6 7 16 36 23 63 7 28
17 53 23 58 10 7 82 0 99 -10z m-1516 -13 c26 -6 54 -15 62 -20 24 -14 -43
-80 -132 -127 -88 -48 -129 -74 -171 -112 l-29 -26 7 55 c15 136 65 208 161
231 43 10 49 10 102 -1z m-4856 -127 c49 -145 221 -307 563 -532 103 -67 132
-91 125 -102 -7 -11 -11 -10 -24 8 -8 12 -32 32 -52 44 -21 13 -155 100 -298
193 -284 185 -343 215 -422 216 l-52 0 -16 52 c-8 28 -15 76 -15 105 l0 53 43
1 c23 0 51 4 62 9 45 20 67 8 86 -47z m5578 -85 c64 -66 176 -181 249 -256
l133 -137 -5 -65 c-4 -45 -11 -69 -23 -77 -29 -22 -86 -15 -134 16 -77 50
-336 303 -441 432 -31 38 -38 54 -38 91 0 77 15 106 63 116 23 5 51 7 61 5 11
-3 71 -59 135 -125z m926 48 l58 -38 -60 -29 c-40 -19 -94 -61 -158 -121 l-96
-91 -77 18 c-42 10 -108 21 -145 24 l-68 6 102 108 c133 142 182 168 310 164
70 -2 81 -5 134 -41z m-5860 -104 c18 -149 56 -266 105 -317 l29 -30 -32 -52
c-18 -29 -35 -53 -39 -53 -3 0 -20 11 -35 24 -66 56 -126 254 -139 466 l-7
103 55 -42 c54 -40 56 -44 63 -99z m4204 91 c-4 -21 -11 -60 -14 -88 -7 -54
-12 -59 -167 -197 l-75 -67 -7 52 c-19 158 1 190 180 292 43 25 82 45 85 45 4
0 3 -17 -2 -37z m1097 -9 c9 -63 -3 -173 -25 -209 -11 -20 -26 -31 -44 -33
-24 -3 -41 11 -117 90 -72 75 -89 99 -90 124 0 30 19 55 50 67 8 3 61 6 117 6
l102 1 7 -46z m-296 -14 c0 -5 -4 -10 -10 -10 -5 0 -10 5 -10 10 0 6 5 10 10
10 6 0 10 -4 10 -10z m-4911 -86 c64 -48 115 -112 126 -157 5 -20 -2 -41 -30
-87 -20 -33 -40 -60 -44 -60 -12 0 -47 42 -65 77 -28 56 -73 273 -56 273 4 0
36 -21 69 -46z m4579 -36 c52 -57 55 -64 38 -96 -19 -37 -85 -57 -153 -48 -64
10 -163 37 -163 46 0 4 11 12 24 18 13 6 53 35 88 65 35 30 70 56 78 60 25 9
50 -3 88 -45z m-5323 -22 c45 -20 307 -186 487 -307 l67 -45 -94 -12 -94 -12
-108 76 c-141 99 -226 149 -290 169 -47 15 -56 16 -100 2 -26 -9 -59 -17 -73
-19 -24 -3 -25 -5 -22 -78 5 -125 39 -163 298 -339 l109 -75 31 -80 c17 -45
34 -89 39 -98 10 -25 -435 278 -513 348 -87 78 -94 96 -103 244 -4 69 -12 137
-18 152 -10 26 -10 26 53 37 34 6 94 22 132 36 87 31 136 31 199 1z m1694 -17
c18 -6 38 -24 47 -40 13 -26 33 -140 34 -195 l0 -21 -62 22 c-83 27 -81 26
-122 99 -20 36 -55 80 -77 100 l-41 34 29 5 c59 9 161 7 192 -4z m3155 -90 l7
-77 -113 -60 c-62 -33 -116 -57 -119 -54 -17 19 -17 70 1 99 26 43 203 194
211 179 4 -6 9 -45 13 -87z m-3002 49 c26 -11 54 -28 63 -39 26 -27 28 -94 8
-191 l-18 -87 -48 42 -48 42 -14 108 c-8 59 -19 116 -25 127 -20 37 -10 37 82
-2z m-367 6 c34 -16 65 -55 103 -130 l21 -41 -65 -13 -66 -12 -41 31 c-64 48
-97 64 -156 76 l-54 11 33 24 c42 30 138 69 168 70 13 0 39 -7 57 -16z m4667
-45 l90 -21 -34 -35 c-101 -107 -150 -117 -230 -46 -29 25 -54 52 -56 59 -2 8
8 25 22 39 32 32 84 33 208 4z m-622 -101 c94 -102 103 -127 58 -161 -30 -22
-156 -35 -222 -23 l-36 7 0 77 c1 136 25 192 84 192 26 0 44 -14 116 -92z
m-3510 36 c32 -25 64 -59 70 -75 18 -42 7 -129 -27 -221 l-29 -77 -54 70 -54
71 15 77 c7 42 14 104 14 139 0 34 2 62 3 62 2 0 30 -21 62 -46z m-1994 -14
c84 -41 313 -195 303 -204 -2 -3 -45 -10 -94 -17 -50 -7 -93 -15 -97 -18 -4
-3 2 -43 14 -89 11 -45 18 -85 15 -88 -7 -7 -172 105 -268 182 -75 59 -95 94
-101 176 l-5 57 56 19 c66 24 95 21 177 -18z m1054 8 c29 -47 25 -65 -27 -143
-112 -166 -284 -469 -406 -714 -118 -239 -134 -265 -163 -277 -66 -28 -102
-12 -124 53 -10 27 -5 44 50 164 135 294 487 909 538 939 9 5 38 10 65 10 43
0 49 -3 67 -32z m266 -16 c21 -11 54 -33 72 -49 l34 -28 -56 -30 c-41 -22 -60
-27 -70 -20 -8 6 -34 24 -57 40 -34 24 -53 30 -93 30 -63 0 -69 21 -16 60 31
23 42 26 91 22 30 -3 73 -14 95 -25z m-599 -230 c-116 -193 -376 -683 -399
-752 -3 -8 -9 -12 -13 -8 -20 19 290 604 470 887 130 205 95 127 -58 -127z
m532 110 c25 -20 48 -38 50 -39 7 -5 -32 -44 -73 -74 -54 -40 -112 -40 -149
-1 -15 15 -27 31 -27 35 0 17 73 116 89 121 30 8 64 -5 110 -42z m-196 -29
c-174 -257 -388 -645 -485 -878 -12 -27 -25 -54 -30 -60 -39 -44 67 191 184
409 142 265 352 605 365 593 3 -3 -13 -32 -34 -64z m1131 -48 c32 -59 36 -91
21 -163 -7 -35 -14 -64 -16 -66 -2 -1 -39 4 -82 12 l-79 14 5 42 c2 22 16 74
30 113 15 40 27 94 27 120 l1 48 35 -39 c19 -22 45 -59 58 -81z m-2586 31 c15
-57 90 -139 191 -210 235 -164 530 -360 556 -369 39 -13 38 -11 24 -40 l-12
-26 -21 31 c-13 20 -73 62 -166 116 -80 47 -206 123 -280 170 -184 118 -231
136 -348 136 l-92 0 -11 40 c-9 35 -37 116 -47 137 -1 4 21 16 50 27 76 29 80
30 113 31 28 1 32 -3 43 -43z m1816 -59 c18 -13 15 -17 -43 -66 -148 -122
-271 -142 -366 -57 l-35 31 31 49 30 48 27 -25 c65 -62 130 -55 214 22 l53 49
35 -18 c19 -10 44 -25 54 -33z m4290 21 c53 -42 56 -46 56 -90 0 -34 -5 -40
-60 -78 -34 -23 -76 -55 -95 -71 l-34 -30 -7 37 c-9 46 3 190 18 218 29 54 65
58 122 14z m-5144 1 c80 -17 100 -66 51 -128 l-18 -24 -22 22 c-26 26 -74 27
-190 4 l-83 -16 5 -41 c17 -114 69 -208 123 -222 13 -3 24 -8 24 -10 0 -17
-52 -103 -66 -108 -49 -19 -131 66 -174 182 -21 55 -80 267 -80 287 0 6 71 21
158 34 86 12 164 24 172 26 31 6 50 5 100 -6z m1713 -180 l27 -62 -36 6 c-20
4 -39 8 -41 11 -8 7 8 106 16 106 4 0 20 -28 34 -61z m-1714 25 l21 -27 -29
-51 c-15 -28 -41 -75 -57 -103 -21 -39 -35 -53 -50 -53 -45 0 -97 87 -119 197
l-6 31 63 15 c35 8 84 15 110 16 39 1 50 -3 67 -25z m-869 -48 c30 -12 138
-74 240 -137 102 -64 212 -131 245 -150 58 -33 59 -34 30 -37 -16 -1 -63 -9
-103 -17 l-73 -15 -118 70 c-201 119 -242 135 -341 135 -72 0 -92 -4 -130 -25
l-45 -25 -65 22 c-36 12 -83 23 -105 23 l-40 1 66 63 c122 117 289 152 439 92z
m1342 -11 c60 -40 125 -172 144 -296 5 -31 3 -39 -8 -39 -9 0 -63 -23 -122
-51 -165 -79 -238 -77 -302 6 -24 32 -25 38 -14 65 18 43 26 45 61 16 38 -32
76 -33 176 -4 l75 22 -6 40 c-15 93 -84 186 -140 186 -21 0 -21 3 10 51 23 38
28 41 57 35 17 -4 49 -18 69 -31z m2132 20 c20 -8 36 -22 36 -29 0 -34 40
-929 44 -998 l5 -76 -36 -22 c-35 -21 -89 -22 -119 -2 -7 5 -15 175 -23 502
-16 667 -18 603 22 623 17 8 33 16 33 16 1 1 18 -6 38 -14z m108 -57 c15 -11
19 -56 32 -368 9 -195 18 -413 22 -485 l6 -130 -26 -24 c-14 -14 -29 -22 -32
-19 -3 4 -14 188 -24 410 -10 221 -21 458 -25 526 -7 134 -7 132 47 90z m-228
-265 c3 -159 9 -402 13 -540 4 -158 2 -253 -4 -253 -5 0 -17 6 -27 13 -17 12
-19 55 -34 519 l-16 507 25 20 c13 11 27 20 30 21 3 0 9 -129 13 -287z m446
245 c0 -26 -80 -139 -106 -148 -43 -17 -61 1 -69 72 -6 53 -5 63 11 75 24 18
164 18 164 1z m100 -3 c0 -26 -58 -144 -91 -186 -35 -45 -76 -69 -114 -69 -44
0 -65 17 -65 54 0 32 1 33 39 32 51 -1 78 24 126 115 34 65 38 69 71 69 24 0
34 -5 34 -15z m-2660 -30 c28 -15 71 -90 84 -147 6 -26 3 -28 -60 -48 -36 -11
-79 -20 -94 -20 -35 0 -80 35 -80 62 0 11 19 54 42 94 45 79 57 86 108 59z
m1803 -36 c21 -28 59 -64 85 -80 41 -26 54 -30 95 -25 l48 5 -3 -36 c-2 -30
-9 -39 -40 -55 -73 -38 -146 2 -272 151 l-77 91 63 -1 63 0 38 -50z m221 35
c12 -30 6 -88 -11 -106 -23 -26 -62 -22 -115 11 -40 26 -98 87 -98 104 0 4 49
7 109 7 90 0 110 -3 115 -16z m-3217 -112 c87 -44 253 -140 253 -147 0 -2 -45
-18 -101 -35 l-101 -31 -172 97 c-94 53 -177 102 -185 108 -11 8 -3 15 35 34
76 36 164 27 271 -26z m572 -158 c21 -27 27 -78 13 -102 -7 -9 -13 -8 -27 8
-27 30 -89 26 -201 -15 -114 -42 -130 -42 -192 -11 -95 49 -95 49 4 79 134 41
252 65 321 66 55 1 64 -2 82 -25z m3163 -12 c61 -35 198 -151 198 -168 0 -18
-138 -142 -195 -175 -53 -30 -103 -37 -123 -17 -7 7 -12 27 -12 45 0 31 2 32
29 27 36 -8 78 16 138 78 l43 43 -61 53 c-67 58 -98 70 -135 53 -22 -10 -24
-9 -24 19 0 36 34 70 69 70 14 0 47 -13 73 -28z m-527 -17 c14 -13 25 -36 25
-50 0 -28 -3 -30 -32 -14 -11 6 -31 8 -45 4 -28 -7 -143 -111 -143 -129 1 -12
87 -82 128 -105 14 -7 39 -11 58 -8 30 5 33 3 40 -26 5 -25 2 -34 -16 -49 -47
-38 -127 -9 -250 89 -120 95 -119 82 -12 184 135 129 197 155 247 104z m-2175
-65 c84 -43 121 -128 128 -292 l4 -118 -63 29 -64 29 -7 56 c-12 95 -52 154
-120 178 l-36 13 28 63 c26 57 31 62 60 62 17 0 48 -9 70 -20z m2648 -4 c15
-8 42 -30 61 -49 l33 -35 -23 -26 c-33 -35 -90 -76 -106 -76 -7 0 -22 9 -33
20 -16 16 -20 33 -20 84 0 56 3 67 22 80 27 20 32 20 66 2z m-3130 -28 c10
-22 10 -32 -4 -62 -33 -67 -111 -72 -232 -14 -55 26 -63 33 -47 39 11 4 56 21
100 37 103 39 164 39 183 0z m2660 2 c19 -18 22 -32 22 -93 0 -79 -9 -97 -49
-97 -21 0 -122 67 -137 92 -12 19 100 118 132 118 5 0 20 -9 32 -20z m1952
-133 c0 -94 -23 -130 -112 -177 -34 -18 -75 -42 -90 -52 l-28 -19 0 105 0 105
103 54 c56 30 108 55 115 56 8 1 12 -20 12 -72z m-4221 4 c34 -24 61 -79 68
-138 l5 -50 -73 13 c-62 10 -78 17 -102 44 -30 34 -30 38 5 117 18 40 22 44
46 38 15 -3 38 -14 51 -24z m-333 -98 c15 -14 38 -23 57 -23 l31 0 -70 -68
c-40 -39 -81 -90 -95 -118 l-24 -49 -11 50 c-15 61 -17 157 -5 209 5 21 22 51
37 67 l28 30 13 -38 c7 -21 25 -48 39 -60z m85 -361 l-37 -113 -46 49 c-110
118 -105 179 30 315 l77 78 6 -108 c7 -106 6 -110 -30 -221z m4454 236 c-12
-143 -26 -160 -169 -207 l-87 -28 6 26 c4 14 11 50 17 81 12 67 34 92 118 135
36 18 76 42 90 54 14 11 27 20 29 21 2 0 0 -37 -4 -82z m-1387 45 c38 -17 197
-171 188 -181 -3 -3 -27 -8 -53 -12 l-48 -8 -61 63 c-64 68 -100 85 -145 68
-22 -9 -29 -8 -33 4 -26 68 64 107 152 66z m-544 -44 c19 -15 26 -30 26 -54
l0 -33 -35 11 c-49 15 -96 -9 -138 -70 -65 -94 -66 -94 -130 -91 l-58 3 41 60
c118 169 222 231 294 174z m-2059 -59 c11 -17 25 -11 25 11 0 18 4 20 33 14
17 -4 36 -10 40 -15 4 -4 -6 -30 -23 -57 -18 -28 -34 -69 -37 -91 -3 -23 -12
-43 -20 -46 -34 -13 -83 91 -83 176 l0 49 29 -16 c17 -8 33 -19 36 -25z m2561
-1 c29 -17 94 -88 94 -102 0 -7 -144 -29 -170 -26 -23 4 -25 9 -28 61 -3 49 0
58 20 72 30 21 44 20 84 -5z m-2405 -75 c10 -12 7 -19 -12 -40 -26 -28 -78
-58 -86 -50 -10 10 9 65 39 112 l31 49 8 -28 c4 -16 13 -35 20 -43z m184 31
c114 -24 108 -20 91 -52 -18 -35 -54 -69 -83 -77 -18 -6 -154 32 -169 46 -1 2
9 27 23 56 18 37 30 51 42 48 9 -3 52 -12 96 -21z m1723 -2 c25 -23 40 -121
19 -129 -7 -2 -57 -3 -111 -2 l-97 3 41 57 c59 83 107 106 148 71z m-2425 -68
c42 -39 46 -62 22 -141 -23 -78 -34 -89 -78 -75 -59 20 -62 36 -25 151 18 55
35 100 38 100 3 0 22 -16 43 -35z m4307 -86 c-25 -98 -45 -124 -109 -138 -48
-10 -171 -22 -171 -16 0 18 57 134 73 148 10 9 56 28 101 42 45 14 91 31 102
39 10 8 20 13 22 11 2 -1 -7 -40 -18 -86z m-3085 66 c55 -8 106 -15 113 -15
19 0 14 -19 -13 -45 -14 -15 -36 -25 -52 -25 -32 0 -193 48 -193 57 0 9 32 43
39 43 3 0 51 -7 106 -15z m-999 -11 c46 -22 64 -60 64 -131 0 -69 -27 -134
-64 -159 -49 -31 -181 3 -214 56 -9 16 -7 28 14 69 17 32 28 73 31 115 l6 66
64 0 c39 0 79 -6 99 -16z m382 -30 c42 -14 86 -24 99 -21 12 2 23 1 23 -3 0
-4 -31 -37 -69 -73 -64 -62 -72 -67 -113 -67 -65 0 -228 83 -228 116 0 6 20
14 45 17 25 2 67 16 93 30 26 14 53 26 61 26 8 1 48 -11 89 -25z m555 -39 c43
-14 93 -25 112 -25 21 0 35 -5 35 -12 0 -24 -40 -78 -72 -99 -70 -43 -226 3
-262 78 -10 21 -14 39 -9 40 4 2 22 12 38 22 40 26 66 25 158 -4z m1064 -80
c-10 -143 -13 -144 -91 -28 -36 55 -66 105 -66 111 0 8 27 12 82 12 l81 0 -6
-95z m102 34 c48 -69 51 -87 37 -244 l-8 -90 -50 55 c-80 88 -80 88 -69 166 6
38 12 92 15 119 5 61 3 55 19 55 7 0 32 -27 56 -61z m-1368 -33 c20 -45 24
-110 9 -150 -6 -17 -21 -28 -47 -35 -51 -15 -171 -13 -208 3 l-29 12 3 95 c1
52 8 100 14 108 8 10 28 12 77 7 36 -3 83 -2 105 3 50 9 53 8 76 -43z m-541
-32 c19 -9 53 -23 75 -30 l40 -12 -30 -12 c-16 -7 -72 -15 -124 -18 -89 -4
-94 -3 -87 14 6 16 26 108 26 121 0 2 15 -7 33 -20 17 -14 48 -33 67 -43z
m250 -28 c0 -24 -3 -58 -6 -76 -6 -29 -9 -31 -36 -26 -34 7 -90 44 -86 57 3 9
109 87 121 88 4 1 7 -19 7 -43z m433 -27 c26 -6 47 -15 47 -19 0 -11 -71 -38
-117 -46 l-38 -6 3 56 4 56 27 -15 c16 -8 49 -19 74 -26z m3152 4 c-55 -131
-67 -152 -98 -162 -43 -15 -89 -14 -165 6 -37 9 -68 18 -70 19 -2 1 17 29 43
63 50 66 80 80 170 82 28 0 66 6 85 13 51 20 52 19 35 -21z m-1705 -234 c0
-57 -4 -110 -9 -118 -8 -12 -24 -3 -80 43 -39 32 -74 68 -77 80 -3 12 0 68 5
125 6 57 11 108 11 113 0 5 34 -24 75 -65 l75 -74 0 -104z m-2502 174 c37 -22
61 -28 117 -30 80 -2 98 -21 46 -47 -38 -20 -96 -20 -152 -1 -60 22 -76 39
-71 75 2 16 6 30 9 30 2 0 25 -12 51 -27z m902 -89 c0 -12 -6 -24 -14 -27 -30
-12 -137 -19 -180 -13 -39 6 -46 11 -46 30 0 12 2 25 4 27 3 2 57 4 120 4 112
0 116 -1 116 -21z m-917 -3 l24 -10 -23 -98 c-32 -136 -47 -264 -43 -371 l4
-91 -25 6 c-14 3 -38 13 -55 23 -30 16 -30 18 -27 91 1 41 9 112 18 159 18
100 81 300 94 300 5 0 20 -4 33 -9z m2615 -51 c73 -52 80 -70 84 -201 l3 -87
-30 15 c-16 9 -54 31 -83 50 l-54 34 4 119 c1 66 5 119 8 117 3 -1 33 -22 68
-47z m-2398 -17 c27 -73 42 -239 32 -372 l-7 -104 -45 -13 c-24 -7 -45 -12
-47 -10 -9 8 -7 547 2 550 32 14 44 4 65 -51z m3747 41 c30 -9 78 -14 109 -12
30 1 54 1 54 -2 0 -3 -24 -36 -53 -74 -34 -45 -62 -72 -80 -77 -32 -9 -92 6
-127 31 -14 9 -44 27 -68 39 l-43 22 53 44 c59 49 75 52 155 29z m-3843 -46
c8 -67 6 -433 -3 -473 -6 -29 -9 -30 -64 -33 -54 -3 -58 -1 -67 23 -27 70 6
378 55 523 2 6 20 12 38 12 34 0 34 -1 41 -52z m623 8 c1 -1 -3 -22 -8 -46
-22 -98 -39 -251 -39 -357 0 -62 -4 -113 -8 -113 -5 0 -30 7 -57 16 l-48 17 7
107 c8 128 35 266 66 338 22 51 24 53 54 46 17 -3 32 -7 33 -8z m192 -53 c30
-102 78 -410 65 -422 -2 -2 -27 -12 -56 -22 l-53 -18 -7 167 c-5 97 -16 205
-27 257 -10 50 -17 93 -14 98 2 4 19 7 38 7 33 0 35 -1 54 -67z m-105 -13 c21
-93 36 -233 36 -352 0 -111 -1 -112 -96 -106 l-49 3 -3 104 c-3 99 13 254 38
369 10 45 15 52 35 52 21 0 25 -8 39 -70z m2024 -75 c14 -31 54 -207 48 -213
-2 -2 -42 11 -87 30 -96 38 -95 36 -101 189 l-3 87 65 -33 c43 -22 70 -43 78
-60z m987 36 c38 -23 85 -44 103 -47 31 -6 32 -7 16 -25 -9 -10 -40 -35 -69
-55 -51 -34 -55 -36 -90 -24 -20 7 -60 31 -89 54 -28 24 -64 51 -79 61 l-28
18 58 34 c70 40 84 39 178 -16z m-775 -101 c27 -39 89 -200 76 -200 -21 0
-123 19 -164 29 -45 13 -47 16 -73 126 -10 44 -21 90 -25 101 -6 22 -6 22 81
-4 64 -19 91 -33 105 -52z m532 61 c13 -5 49 -30 79 -56 29 -26 72 -55 93 -65
l39 -18 -44 -22 c-23 -12 -68 -31 -98 -41 -65 -23 -66 -22 -137 78 -24 34 -54
69 -66 77 -16 12 -18 16 -7 20 8 2 34 11 59 19 56 19 54 19 82 8z m-409 -51
c35 0 46 -6 81 -43 23 -24 53 -71 67 -104 l26 -61 -39 -6 c-49 -8 -134 3 -147
18 -8 10 -35 68 -88 195 -5 11 0 13 27 8 18 -4 51 -7 73 -7z m274 -28 c21 -20
55 -62 76 -91 44 -62 42 -67 -43 -77 -109 -13 -101 -17 -145 68 -22 42 -48 85
-57 95 -30 32 -30 32 104 41 19 1 38 -9 65 -36z"/>
<path d="M5961 13632 c-5 -10 -28 -40 -50 -67 -27 -32 -41 -60 -41 -78 0 -31
33 -68 81 -87 25 -11 35 -10 65 6 51 27 77 62 69 94 -4 14 -27 49 -51 79 -24
29 -44 57 -44 62 0 16 -19 10 -29 -9z m102 -131 c6 -25 -16 -57 -54 -76 -27
-14 -32 -14 -68 4 -65 34 -67 60 -8 130 l42 51 41 -44 c23 -25 44 -54 47 -65z"/>
<path d="M5527 12903 c-10 -54 30 -102 73 -88 47 15 51 90 5 100 -14 3 -36 7
-49 10 -19 4 -25 0 -29 -22z m83 -33 c0 -25 -25 -36 -45 -20 -25 21 -18 40 15
40 23 0 30 -4 30 -20z"/>
<path d="M6365 12923 c-39 -6 -55 -20 -55 -49 0 -55 83 -75 107 -24 13 29 6
81 -11 79 -6 -1 -24 -4 -41 -6z m32 -39 c8 -21 -19 -46 -40 -38 -22 8 -22 41
1 47 30 8 32 7 39 -9z"/>
<path d="M5480 12484 c-19 -49 -5 -104 26 -104 13 0 13 2 0 22 -20 28 -20 62
-1 78 8 7 12 16 9 21 -10 16 -24 9 -34 -17z"/>
<path d="M6440 12501 c0 -5 5 -13 10 -16 6 -3 10 -21 10 -40 0 -19 -4 -37 -10
-40 -15 -9 -12 -25 4 -25 24 0 40 64 24 96 -13 28 -38 44 -38 25z"/>
<path d="M5241 6990 c5 -34 49 -57 85 -45 15 6 29 16 32 24 3 10 0 12 -14 6
-44 -18 -54 -16 -80 11 l-26 29 3 -25z"/>
<path d="M5150 6906 c0 -28 33 -56 66 -56 12 0 32 9 45 20 28 22 19 25 -27 8
-37 -13 -64 1 -64 33 0 11 -4 19 -10 19 -5 0 -10 -11 -10 -24z"/>
<path d="M5280 6849 c0 -15 5 -20 22 -17 12 2 24 9 26 17 3 10 0 12 -12 8 -9
-4 -16 -2 -16 3 0 6 -4 10 -10 10 -5 0 -10 -9 -10 -21z"/>
<path d="M5145 6822 c-8 -26 3 -50 26 -57 20 -7 59 10 59 25 0 13 -13 13 -27
-1 -18 -18 -46 -2 -40 21 7 26 -10 36 -18 12z"/>
<path d="M5085 6612 c-12 -40 23 -70 71 -60 33 6 25 24 -9 20 -25 -3 -36 1
-41 13 -3 9 -4 21 -1 25 3 5 1 11 -4 14 -5 4 -12 -2 -16 -12z"/>
<path d="M5010 6515 c0 -43 55 -60 96 -31 27 20 13 28 -25 13 -30 -11 -34 -10
-51 13 -18 23 -20 24 -20 5z"/>
<path d="M4976 6444 c-4 -9 1 -28 9 -41 20 -30 68 -29 74 2 3 17 1 18 -13 6
-22 -19 -46 -6 -46 24 0 28 -15 34 -24 9z"/>
<path d="M4866 6295 c-11 -28 5 -46 38 -43 22 2 32 9 34 23 3 16 1 18 -9 8
-20 -19 -39 -16 -39 7 0 23 -15 27 -24 5z"/>
<path d="M4810 6181 c0 -5 6 -14 14 -20 11 -9 16 -9 21 0 4 6 1 15 -6 20 -18
11 -29 11 -29 0z"/>
<path d="M4515 5957 c-12 -29 16 -51 54 -42 41 9 41 30 1 21 -26 -5 -32 -2
-39 17 -8 20 -10 21 -16 4z"/>
<path d="M4458 5924 c-11 -10 -10 -42 1 -49 12 -7 61 15 61 28 0 5 -11 6 -24
3 -18 -4 -25 -2 -28 10 -2 9 -6 12 -10 8z"/>
<path d="M4603 5873 c-13 -2 -23 -9 -23 -14 0 -15 53 -7 58 9 2 6 0 11 -5 11
-4 -1 -18 -4 -30 -6z"/>
<path d="M4654 5809 c-5 -9 25 -20 37 -13 5 3 9 9 9 14 0 10 -39 9 -46 -1z"/>
<path d="M6742 6993 c-15 -28 -45 -37 -72 -23 -12 7 -25 9 -28 5 -10 -10 29
-35 54 -35 31 0 67 32 62 55 -4 19 -4 19 -16 -2z"/>
<path d="M6823 6899 c-13 -33 -12 -33 -83 -14 l-25 7 24 -21 c13 -12 34 -21
47 -21 29 0 64 33 64 60 0 30 -14 24 -27 -11z"/>
<path d="M6700 6860 c0 -5 -7 -7 -16 -3 -12 4 -15 2 -12 -8 7 -20 42 -17 46 4
2 9 -1 17 -7 17 -6 0 -11 -4 -11 -10z"/>
<path d="M6833 6820 c6 -25 -19 -48 -35 -32 -15 15 -28 15 -28 2 0 -15 39 -32
60 -25 22 7 33 35 24 59 -9 23 -27 20 -21 -4z"/>
<path d="M6888 6598 c-2 -19 -9 -23 -35 -23 -20 0 -33 -5 -33 -12 0 -19 65
-16 85 3 18 18 17 45 -2 51 -6 2 -13 -6 -15 -19z"/>
<path d="M6967 6510 c-6 -22 -28 -26 -59 -9 -27 14 -38 1 -14 -17 40 -29 96
-12 96 28 0 24 -16 23 -23 -2z"/>
<path d="M7000 6435 c0 -30 -24 -43 -45 -25 -20 17 -32 5 -15 -15 15 -18 51
-20 68 -3 14 14 16 68 2 68 -5 0 -10 -11 -10 -25z"/>
<path d="M7110 6290 c0 -23 -19 -26 -39 -7 -10 10 -12 8 -9 -8 2 -14 12 -21
36 -23 30 -3 32 -1 32 27 0 17 -4 31 -10 31 -5 0 -10 -9 -10 -20z"/>
<path d="M7157 6180 c-15 -15 -16 -18 -3 -23 18 -7 43 20 30 32 -5 5 -17 1
-27 -9z"/>
<path d="M7466 5944 c-4 -12 -14 -14 -36 -9 -18 4 -30 2 -30 -3 0 -6 14 -13
30 -17 33 -7 60 7 60 31 0 19 -16 18 -24 -2z"/>
<path d="M7530 5915 c0 -13 -6 -16 -25 -11 -14 4 -25 2 -25 -3 0 -15 39 -33
56 -27 16 6 19 42 4 51 -5 3 -10 -1 -10 -10z"/>
<path d="M7360 5870 c0 -15 26 -23 46 -16 20 8 17 11 -18 20 -17 4 -28 2 -28
-4z"/>
<path d="M7300 5805 c0 -8 6 -15 13 -15 12 0 46 19 37 21 -3 0 -15 2 -27 5
-16 3 -23 -1 -23 -11z"/>
</g>
</svg>
