<?xml version="1.0" standalone="no"?>
<!DOCTYPE svg PUBLIC "-//W3C//DTD SVG 20010904//EN"
 "http://www.w3.org/TR/2001/REC-SVG-20010904/DTD/svg10.dtd">
<svg version="1.0" xmlns="http://www.w3.org/2000/svg"
 width="4846.000000pt" height="3086.000000pt" viewBox="0 0 4846.000000 3086.000000"
 preserveAspectRatio="xMidYMid meet">

<g transform="translate(0.000000,3086.000000) scale(0.100000,-0.100000)"
fill="#000000" stroke="none">
<path d="M23846 25589 c-1056 -60 -2050 -455 -2871 -1140 -147 -123 -420 -394
-557 -552 -603 -699 -995 -1546 -1132 -2447 -45 -294 -51 -388 -51 -750 0
-362 6 -456 51 -750 120 -790 433 -1531 922 -2187 258 -346 624 -712 977 -978
1437 -1081 3358 -1286 4990 -532 811 374 1524 984 2020 1727 773 1159 1016
2561 678 3915 -218 872 -668 1656 -1320 2295 -382 376 -772 655 -1243 891
-766 383 -1608 557 -2464 508z m319 -204 c60 -24 72 -89 26 -136 -35 -35 -77
-38 -114 -9 -51 40 -42 120 17 146 38 16 31 17 71 -1z m8 -412 c20 -109 48
-266 63 -349 l26 -150 -68 -66 -69 -67 -55 52 c-31 29 -63 57 -73 62 -16 9
-12 32 43 305 34 162 66 321 72 353 6 31 14 57 18 57 4 0 23 -89 43 -197z
m-263 -553 c0 -5 38 -34 83 -64 46 -30 94 -71 107 -90 l24 -34 43 49 c24 26
69 62 99 80 30 17 60 40 67 50 20 33 27 21 27 -49 0 -102 -21 -158 -85 -233
-56 -63 -119 -153 -131 -183 -10 -25 -16 -20 -56 42 -20 32 -62 87 -94 122
-31 35 -66 84 -77 109 -24 53 -37 211 -18 211 6 0 11 -4 11 -10z m493 -293
c-6 -53 10 -113 42 -161 l24 -36 -130 0 c-101 0 -129 3 -123 13 33 56 76 112
128 165 33 34 61 62 62 62 1 0 -1 -19 -3 -43z m-480 -25 c52 -55 117 -146 117
-164 0 -4 -56 -8 -125 -8 l-124 0 24 36 c31 46 48 106 43 156 -2 21 -1 38 3
38 3 0 31 -26 62 -58z m650 -253 c38 -19 57 -51 57 -97 0 -35 -6 -49 -29 -73
l-29 -29 -436 0 c-467 0 -476 1 -502 51 -24 48 -18 87 20 125 l34 34 432 0
c298 0 438 -3 453 -11z m-146 -239 c47 0 83 -4 83 -10 0 -5 -29 -42 -65 -81
-35 -39 -72 -91 -82 -115 -21 -50 -26 -53 -40 -21 -6 12 -45 71 -87 131 l-77
109 92 -6 c51 -4 130 -7 176 -7z m-367 -5 c0 -3 -26 -38 -58 -78 -31 -40 -71
-93 -87 -120 -17 -26 -33 -47 -36 -47 -3 0 -11 18 -18 40 -6 22 -41 75 -76
117 -36 43 -65 81 -65 85 0 5 77 8 170 8 94 0 170 -2 170 -5z m145 -201 c21
-33 58 -88 82 -123 l45 -63 30 53 c16 29 57 90 91 135 l62 83 6 -47 c8 -57 27
-104 71 -174 19 -29 37 -57 40 -63 4 -7 -168 -10 -507 -10 l-513 0 32 45 c40
56 61 109 71 179 l7 53 45 -43 c24 -24 72 -79 106 -122 l62 -78 21 26 c34 43
114 181 142 246 l26 61 22 -50 c12 -27 39 -76 59 -108z m515 -276 c41 -18 87
-68 96 -105 10 -40 -19 -89 -67 -114 -41 -20 -50 -21 -223 -14 l-180 7 43 -53
c24 -30 68 -87 98 -126 l55 -73 55 88 c30 48 66 99 80 114 l27 28 28 -58 c16
-31 58 -97 93 -147 35 -49 63 -90 62 -91 -1 0 -47 5 -102 12 -238 31 -480 47
-740 47 -275 1 -420 -10 -579 -42 -51 -10 -82 -13 -78 -6 4 5 23 35 43 65 44
67 94 165 103 204 l7 29 50 -49 c46 -45 121 -146 131 -176 3 -7 20 5 42 30 65
71 156 186 156 196 0 6 -72 7 -184 3 l-183 -7 -54 28 c-32 16 -61 39 -71 58
-17 29 -17 32 5 74 35 69 63 84 170 91 51 4 315 6 587 5 427 -2 500 -4 530
-18z m-730 -599 c36 -54 79 -116 97 -136 l32 -38 26 30 c14 17 58 79 97 139
l73 108 17 -23 c101 -142 191 -259 198 -259 4 0 48 54 98 121 l91 121 26 -54
c15 -29 47 -90 72 -135 l46 -82 43 87 c24 48 59 106 77 129 l34 43 18 -48 c26
-70 62 -128 133 -214 34 -43 58 -78 52 -78 -7 0 -89 11 -183 25 -183 26 -412
50 -591 61 -92 6 -108 5 -100 -7 4 -8 47 -69 94 -136 l87 -122 89 114 c49 63
91 114 94 115 3 0 32 -51 63 -112 32 -62 66 -124 76 -137 l18 -24 83 117 82
116 73 -147 72 -148 28 55 c15 30 51 89 79 132 l50 76 21 -71 c22 -76 54 -143
112 -240 19 -32 33 -60 31 -62 -2 -2 -60 12 -128 31 -481 135 -920 192 -1395
181 -456 -11 -876 -85 -1209 -213 -13 -5 -9 6 17 42 67 95 127 238 127 306 0
15 4 28 9 28 19 0 102 -107 141 -180 l39 -75 51 109 c28 59 57 124 66 144 l14
36 41 -40 c22 -21 66 -69 97 -106 31 -38 58 -68 62 -68 4 0 70 109 131 217 13
24 28 43 32 43 10 0 42 -36 123 -137 36 -46 67 -83 69 -83 2 0 38 56 79 125
l75 125 -82 0 c-162 0 -463 -33 -651 -71 -54 -11 -100 -18 -102 -16 -2 1 12
25 32 52 47 67 82 143 103 227 l18 70 47 -57 c26 -32 65 -90 88 -129 23 -39
44 -73 46 -76 8 -10 32 36 75 139 25 58 48 115 52 126 6 18 10 17 41 -19 18
-21 62 -79 96 -127 34 -49 65 -89 68 -89 3 0 37 61 75 135 39 74 72 135 75
134 3 0 34 -45 70 -100z m251 -519 c387 -20 761 -87 1137 -202 121 -37 131
-49 111 -133 -32 -138 -170 -311 -380 -479 -41 -33 -80 -65 -87 -72 -11 -9 -3
-17 40 -41 29 -17 78 -51 108 -75 l54 -45 36 56 c20 31 55 78 78 104 56 64 65
82 57 120 -12 56 16 15 40 -60 l22 -67 18 27 c14 23 16 37 10 80 -13 82 -8
128 20 202 67 173 68 178 73 293 2 62 8 110 12 105 13 -14 79 -224 100 -318
27 -118 36 -309 21 -400 -7 -41 -31 -110 -57 -166 -24 -52 -44 -104 -44 -114
0 -15 -7 -11 -32 19 -59 72 -118 78 -206 18 -81 -54 -140 -161 -171 -307 -21
-101 -41 -271 -41 -350 l0 -44 54 6 c134 14 239 -73 291 -242 l12 -40 41 86
c55 114 87 241 77 305 -8 56 -58 114 -98 114 -32 0 -75 -44 -83 -86 -8 -44
-17 -43 -40 4 -13 26 -19 60 -19 117 0 68 4 89 28 137 16 32 44 77 64 100 29
35 34 48 31 80 -2 21 1 38 6 38 14 0 76 -70 76 -86 0 -27 15 -14 33 30 10 25
45 86 77 136 72 113 92 169 99 285 l6 90 33 -83 c112 -283 119 -617 21 -900
-40 -114 -148 -334 -244 -497 -130 -220 -185 -377 -200 -573 l-7 -89 58 -7
c101 -12 175 -35 284 -88 92 -44 115 -62 192 -139 49 -49 83 -81 77 -70 -10
15 -7 25 19 57 67 83 98 218 73 311 -33 121 -152 159 -226 71 -26 -30 -27 -37
-23 -109 l5 -77 -41 14 c-102 36 -161 89 -204 182 -82 179 44 395 222 380 l53
-4 2 50 c1 68 34 162 83 238 59 92 259 286 333 325 33 17 71 34 85 38 22 7 19
2 -18 -36 -89 -90 -120 -207 -103 -385 5 -54 5 -124 1 -155 -8 -60 -40 -142
-67 -171 -9 -10 -12 -18 -7 -18 5 0 34 27 65 60 36 39 63 60 78 60 l22 0 -20
-26 c-29 -37 -35 -100 -17 -190 25 -129 28 -184 17 -274 -14 -103 -71 -228
-159 -347 -73 -98 -87 -110 -107 -93 -10 8 -7 -6 9 -41 14 -30 37 -94 52 -144
36 -123 44 -339 19 -499 -38 -245 -137 -529 -258 -740 -83 -145 -254 -407
-339 -520 -78 -102 -365 -391 -478 -480 -124 -98 -197 -131 -285 -131 -87 1
-152 32 -238 114 -79 74 -124 146 -236 381 -52 107 -97 199 -101 203 -4 4 -17
-20 -30 -55 -61 -169 -211 -420 -310 -518 -93 -93 -208 -140 -341 -140 -255 0
-646 239 -865 529 -73 97 -182 311 -213 416 -25 87 -41 184 -41 251 l0 51 -75
37 c-182 90 -342 320 -406 583 -53 216 -12 502 96 673 14 22 25 42 25 44 0 3
-21 33 -48 68 -58 77 -114 191 -137 278 -23 86 -23 241 -1 349 20 95 15 156
-15 195 l-20 26 22 0 c16 0 42 -20 79 -60 31 -33 59 -60 63 -60 3 0 -6 21 -22
46 -45 70 -55 128 -48 284 4 75 2 163 -3 195 -13 77 -51 153 -103 206 -36 36
-39 41 -17 34 81 -24 150 -74 270 -195 164 -164 229 -277 233 -405 l2 -51 55
4 c46 3 64 -1 110 -25 67 -35 104 -86 126 -171 12 -51 13 -73 4 -115 -27 -127
-114 -221 -239 -257 l-28 -8 5 77 c4 72 3 79 -22 108 -74 88 -194 51 -227 -70
-17 -61 -5 -165 26 -230 38 -82 47 -86 93 -45 130 118 313 194 510 214 l72 7
0 36 c-1 55 -18 168 -40 252 -27 107 -76 217 -150 339 -88 145 -211 389 -250
496 -107 296 -103 623 12 924 l33 85 6 -90 c7 -116 27 -172 99 -285 32 -50 67
-111 77 -136 10 -24 20 -44 23 -44 3 0 14 16 25 36 10 19 31 44 46 55 l26 19
-4 -43 c-5 -38 -1 -48 30 -85 20 -23 48 -68 64 -100 24 -48 28 -70 28 -137 0
-58 -5 -90 -19 -117 -23 -47 -32 -48 -40 -4 -8 41 -50 86 -82 86 -52 0 -104
-75 -104 -151 0 -43 48 -198 87 -279 l35 -75 18 50 c59 172 152 246 288 232
l55 -6 -7 113 c-19 321 -84 507 -207 590 -84 57 -149 51 -207 -20 -24 -29 -32
-34 -32 -20 0 11 -18 59 -40 107 -58 125 -73 207 -66 354 6 138 29 254 80 410
49 150 56 157 56 59 0 -108 15 -184 55 -274 43 -100 60 -181 46 -222 -16 -47
-13 -93 8 -119 l19 -24 7 30 c10 46 36 114 45 120 5 3 8 -12 7 -33 -1 -34 7
-49 61 -116 34 -43 72 -95 84 -116 l22 -38 56 42 c30 23 72 52 93 65 20 12 37
24 37 26 0 1 -40 34 -89 73 -170 137 -301 295 -343 416 -18 52 -24 161 -10
183 4 6 42 25 85 42 265 106 639 181 992 200 206 12 204 12 406 1z"/>
<path d="M23710 23790 c-11 -11 -20 -24 -20 -30 0 -5 9 -19 20 -30 17 -17 33
-20 100 -20 l80 0 -12 25 c-8 19 -8 31 0 50 l12 25 -80 0 c-67 0 -83 -3 -100
-20z"/>
<path d="M23970 23791 c-14 -27 -13 -47 6 -65 12 -13 41 -16 153 -16 147 0
161 4 161 50 0 46 -14 50 -167 50 -130 0 -143 -2 -153 -19z"/>
<path d="M24372 23785 c8 -19 8 -31 0 -50 l-12 -25 80 0 c67 0 83 3 100 20 11
11 20 25 20 30 0 6 -9 19 -20 30 -17 17 -33 20 -100 20 l-80 0 12 -25z"/>
<path d="M23858 23079 c-35 -26 -38 -71 -6 -93 19 -13 62 -16 264 -16 229 0
243 1 268 21 35 27 34 62 -3 88 -27 20 -42 21 -263 21 -219 -1 -235 -2 -260
-21z"/>
<path d="M23531 23064 c-38 -32 -39 -56 -5 -83 24 -18 41 -21 141 -21 l114 0
-15 22 c-18 26 -20 61 -6 89 10 18 6 19 -94 19 -98 0 -106 -2 -135 -26z"/>
<path d="M24485 23063 c16 -30 12 -58 -13 -85 -14 -17 -9 -18 104 -18 136 0
164 10 164 61 0 22 -8 34 -32 49 -27 16 -51 20 -135 20 l-102 0 14 -27z"/>
<path d="M23936 22888 c4 -7 48 -61 97 -120 l89 -107 35 26 c35 27 157 163
174 196 9 16 -3 17 -196 17 -162 0 -205 -3 -199 -12z"/>
<path d="M23963 22334 c-7 -3 16 -46 60 -114 40 -59 77 -116 82 -125 9 -14 27
2 119 107 l108 123 -73 6 c-90 8 -279 9 -296 3z"/>
<path d="M24035 21891 c-57 -15 -115 -52 -144 -91 l-28 -39 -33 34 c-19 19
-54 43 -79 52 -58 23 -168 22 -238 -1 -57 -19 -130 -78 -163 -132 l-22 -35
-42 34 c-68 56 -98 67 -179 67 -84 0 -127 -12 -175 -48 -47 -34 -72 -79 -72
-130 0 -36 6 -49 38 -83 31 -33 45 -41 87 -45 108 -13 279 58 319 131 27 52
28 52 33 37 12 -31 87 -56 185 -60 135 -6 215 18 292 89 l55 50 31 -34 c16
-19 55 -47 85 -63 77 -40 71 -58 -20 -61 -348 -11 -629 -54 -873 -134 -79 -26
-91 -33 -81 -46 23 -26 190 -163 245 -200 l55 -36 102 32 c104 32 274 71 315
71 25 0 27 -12 9 -54 -12 -26 -21 -31 -97 -46 -91 -19 -200 -57 -200 -69 0 -9
133 -73 195 -94 38 -13 40 -16 43 -62 3 -46 3 -47 -22 -41 -74 18 -203 72
-256 107 l-61 39 -14 -35 c-8 -19 -15 -61 -15 -94 0 -57 -2 -60 -34 -80 -35
-22 -76 -75 -98 -126 -20 -49 -24 -601 -4 -704 27 -145 75 -225 165 -273 37
-20 42 -57 10 -89 -32 -32 -83 -10 -142 63 -68 84 -113 201 -125 326 -7 64 -8
67 -40 76 -80 23 -157 -37 -192 -150 -33 -109 -24 -215 54 -639 9 -44 15 -107
16 -141 l0 -61 81 -11 c220 -31 500 -172 711 -359 112 -99 198 -200 300 -353
199 -298 301 -583 331 -923 l12 -136 130 -147 c243 -275 328 -354 383 -354 53
0 186 99 347 257 202 198 344 405 478 698 136 295 182 524 143 705 -8 40 -15
54 -26 51 -148 -39 -317 31 -404 167 -22 34 -43 62 -46 62 -16 0 -83 -76 -105
-119 -43 -85 -50 -156 -31 -326 36 -330 10 -453 -121 -595 -79 -86 -164 -143
-287 -195 -98 -41 -176 -68 -176 -60 0 2 16 45 37 96 31 81 37 108 41 199 4
97 1 119 -36 275 -57 240 -66 296 -58 391 20 266 182 491 433 600 42 18 108
38 147 44 128 21 116 12 116 83 1 34 7 98 15 142 83 452 92 575 45 683 -39 90
-117 138 -187 115 -26 -9 -29 -15 -35 -76 -16 -168 -106 -344 -199 -393 -37
-19 -45 -18 -69 6 -31 31 -26 68 11 88 91 49 135 119 164 257 13 64 16 135 15
365 0 157 -4 302 -9 322 -13 57 -57 124 -101 155 -38 27 -40 30 -40 86 0 32
-7 73 -14 92 -14 34 -38 46 -51 25 -11 -17 -137 -88 -223 -124 l-83 -36 3 51
3 51 57 23 c59 24 168 92 168 104 0 11 -118 50 -195 64 l-69 13 -13 42 c-11
41 -11 42 13 42 37 0 242 -45 313 -70 l64 -21 85 57 c80 55 207 163 199 170
-2 2 -61 20 -133 39 -263 73 -582 125 -761 125 -74 0 -82 2 -88 21 -8 24 8 39
43 39 38 0 93 28 128 66 19 19 34 30 34 24 0 -22 92 -109 138 -131 103 -48
242 -22 328 62 l42 41 11 -35 c19 -57 67 -114 123 -147 129 -74 278 -12 278
116 0 54 -33 103 -90 132 -38 20 -57 23 -126 20 -67 -2 -91 -8 -142 -34 l-60
-32 -7 25 c-3 13 -24 44 -46 67 -107 117 -296 120 -411 5 -26 -27 -48 -42 -48
-34 0 26 -73 97 -120 118 -48 22 -192 32 -245 18z m145 -286 c72 -209 73 -220
50 -482 -19 -213 -23 -300 -13 -260 3 11 15 17 36 17 18 1 50 7 72 15 22 8 41
15 43 15 1 0 2 -22 2 -49 0 -56 -7 -61 -102 -61 -46 0 -57 3 -60 18 -2 9 -7
-23 -11 -72 -4 -48 -10 -92 -13 -97 -3 -5 -34 -9 -70 -9 l-64 0 0 76 c0 105
-18 345 -36 494 -9 69 -13 147 -9 173 5 41 98 346 112 370 7 12 7 14 63 -148z
m-192 -376 c4 -43 -9 -49 -98 -49 -54 0 -56 1 -68 33 -7 18 -12 36 -12 40 0
10 41 15 110 13 l65 -1 3 -36z m418 33 l42 -7 -15 -37 -15 -38 -79 0 -79 0 0
35 c0 28 5 38 23 45 26 10 66 11 123 2z m-576 -132 c48 -142 50 -166 37 -450
-11 -235 -6 -220 -70 -220 l-53 0 -19 223 c-11 122 -18 247 -17 278 2 32 18
102 37 160 19 57 35 112 35 123 0 31 6 18 50 -114z m650 104 c0 -8 16 -63 35
-121 41 -123 42 -141 19 -413 -22 -264 -14 -240 -77 -240 l-53 0 -13 248 c-7
137 -10 262 -6 278 11 56 80 263 88 264 4 0 7 -7 7 -16z m-498 -341 l46 -6 4
-44 3 -45 -62 4 c-35 2 -67 8 -72 13 -6 6 -7 29 -4 53 5 34 9 42 22 37 9 -4
37 -9 63 -12z m285 -295 c22 -24 46 -54 53 -68 21 -41 40 -122 40 -176 l0 -51
-41 38 c-22 20 -53 42 -68 49 -25 10 -29 18 -35 72 -8 84 -8 178 2 178 4 0 26
-19 49 -42z m-254 -23 c4 -22 6 -62 5 -90 l-3 -50 -73 73 -73 72 43 20 c65 30
90 24 101 -25z m181 -57 l-2 -93 -79 0 c-65 0 -77 3 -74 15 11 37 12 112 2
124 -6 7 -9 21 -5 30 5 13 21 16 83 16 l78 0 -3 -92z m178 65 c19 -17 24 -48
10 -57 -7 -4 -42 54 -42 69 0 10 14 5 32 -12z m-662 -90 c0 -62 -9 -73 -56
-73 -24 0 -44 3 -44 7 0 10 82 93 92 93 4 0 8 -12 8 -27z m220 -43 c26 -17 55
-39 65 -50 17 -19 17 -20 -2 -20 -11 0 -41 -11 -66 -24 -38 -21 -46 -22 -51
-9 -8 20 -8 133 1 133 3 0 27 -14 53 -30z m629 -8 c11 -21 23 -56 27 -77 6
-33 8 -36 15 -20 4 11 8 32 8 48 1 15 5 27 10 27 14 0 48 -60 61 -108 15 -59
1 -99 -61 -166 -32 -35 -49 -63 -49 -79 0 -38 13 -40 53 -9 50 38 86 85 106
137 l17 45 22 -38 c51 -91 49 -159 -9 -252 -34 -54 -29 -64 11 -25 l30 29 0
-30 c-1 -46 -35 -112 -72 -134 -41 -25 -95 -40 -161 -45 -32 -2 -53 -9 -59
-19 -24 -42 126 -56 202 -18 24 12 45 20 47 18 11 -10 -74 -150 -109 -181 -36
-30 -49 -35 -92 -35 -47 -1 -49 -2 -32 -15 11 -8 30 -15 43 -15 20 0 22 -3 13
-19 -16 -30 -78 -64 -119 -64 -49 0 -96 25 -157 85 -54 52 -87 60 -92 23 -3
-26 30 -79 64 -101 14 -10 49 -25 76 -35 l49 -16 -26 -17 c-38 -25 -102 -46
-141 -46 -26 0 -32 -3 -28 -15 4 -8 2 -21 -4 -28 -6 -7 -12 -33 -14 -57 l-3
-45 -74 -3 c-85 -3 -91 1 -91 65 0 23 -4 44 -10 48 -19 12 3 35 34 35 l31 0
-41 19 c-75 34 -137 139 -120 205 12 49 -16 73 -48 40 -28 -28 -20 -115 19
-206 7 -17 4 -17 -36 -3 -106 38 -159 89 -177 171 l-9 39 -9 -33 c-5 -17 -13
-33 -18 -35 -19 -5 -56 85 -56 137 0 61 35 143 75 174 29 23 31 55 3 60 -23 4
-102 -70 -124 -116 -10 -20 -21 -53 -24 -72 l-7 -35 -26 55 c-47 98 -48 197
-2 264 28 41 23 44 -23 16 l-33 -20 7 37 c11 65 45 133 78 156 37 27 111 29
149 4 28 -18 37 -14 37 20 0 52 -125 85 -178 47 -30 -21 -37 -13 -23 28 19 54
62 108 106 134 80 46 115 22 115 -81 0 -40 6 -72 18 -95 19 -34 19 -35 -2 -80
-16 -36 -20 -66 -21 -155 0 -103 2 -114 32 -177 108 -228 401 -310 611 -171
67 45 112 101 154 189 30 62 33 78 33 159 -1 70 -5 100 -22 137 l-21 47 21 43
c19 37 22 60 22 166 0 67 1 122 2 122 2 0 11 -17 22 -38z m-704 -72 l0 -55
-54 -3 c-65 -4 -90 3 -73 20 15 15 16 55 2 63 -5 3 -10 13 -10 21 0 12 13 14
68 12 l67 -3 0 -55z m665 46 c0 -8 -4 -18 -10 -21 -14 -8 -13 -48 2 -63 17
-17 -8 -24 -73 -20 l-54 3 -3 44 c-5 67 -1 71 73 71 50 0 65 -3 65 -14z m-314
-51 c4 -8 1 -22 -5 -29 -7 -8 -11 -38 -9 -72 3 -61 23 -86 78 -99 39 -9 93 31
104 78 l10 37 62 0 c66 0 81 -8 65 -37 -5 -10 -14 -38 -21 -62 -15 -57 -83
-129 -160 -170 -97 -52 -120 -76 -120 -125 0 -63 -21 -78 -106 -74 l-69 3 -6
63 c-7 77 -21 93 -114 136 -81 38 -136 93 -161 165 -9 25 -20 54 -25 63 -5 10
-9 20 -9 23 0 3 33 5 74 5 l74 0 6 -35 c7 -37 46 -75 78 -75 28 0 76 27 88 49
14 26 13 114 -1 128 -7 7 -9 19 -6 27 9 23 165 23 173 1z m-176 -69 c-1 -10
-114 -81 -129 -81 -12 0 -12 47 0 61 7 9 33 26 58 39 42 22 47 22 59 7 6 -9
12 -21 12 -26z m263 3 c50 -42 61 -63 41 -83 -14 -15 -19 -13 -57 19 -22 19
-44 35 -49 35 -10 0 -11 44 -1 53 12 13 28 7 66 -24z m-504 -223 c18 -19 21
-31 16 -58 -9 -49 12 -156 41 -205 76 -130 263 -192 391 -128 62 31 127 100
156 163 13 29 22 76 25 125 4 69 8 80 30 98 l26 20 9 -22 c4 -13 8 -57 8 -99
0 -115 -27 -178 -115 -265 -85 -83 -133 -105 -258 -112 -81 -5 -90 -4 -151 25
-76 35 -134 85 -175 150 -35 54 -62 139 -62 193 0 48 19 139 29 139 4 0 18
-11 30 -24z m401 -341 l0 -55 -80 0 -80 0 0 55 0 55 80 0 80 0 0 -55z m-15
-651 c21 -52 20 -62 -25 -160 l-41 -88 -17 30 c-30 49 -72 150 -72 171 0 11 7
34 16 51 14 30 19 32 70 32 52 0 54 -1 69 -36z"/>
<path d="M24070 19361 c0 -6 7 -25 15 -41 14 -26 21 -30 58 -30 l42 0 -30 16
c-16 8 -42 27 -57 42 -16 14 -28 20 -28 13z"/>
<path d="M23165 20975 c-28 -19 -61 -46 -74 -59 l-24 -26 25 -55 25 -55 38 55
c21 31 43 59 50 63 13 7 29 112 17 112 -4 -1 -30 -16 -57 -35z"/>
<path d="M25018 20958 c3 -35 11 -57 23 -66 10 -7 32 -35 50 -62 l32 -50 25
55 c21 47 23 57 11 72 -17 20 -128 103 -139 103 -4 0 -5 -24 -2 -52z"/>
<path d="M22920 19040 c0 -15 10 -20 48 -25 320 -42 697 -295 934 -626 158
-221 299 -592 314 -829 7 -99 7 -99 46 -137 l40 -38 -7 80 c-23 275 -64 421
-192 680 -149 302 -340 517 -629 710 -183 123 -337 184 -496 198 -52 5 -58 4
-58 -13z"/>
<path d="M22680 19035 c-89 -18 -216 -61 -270 -92 -181 -104 -332 -300 -392
-509 -20 -68 -23 -101 -22 -234 1 -139 3 -164 28 -244 73 -240 201 -417 364
-504 54 -29 62 -31 62 -15 0 11 -20 29 -53 48 -28 17 -86 65 -129 107 -92 92
-154 207 -195 363 -35 135 -37 339 -5 457 38 139 117 264 239 379 141 131 269
190 466 214 38 5 47 10 47 26 0 23 -39 24 -140 4z"/>
<path d="M25420 19022 c0 -17 9 -21 63 -27 286 -33 500 -225 578 -520 58 -220
20 -556 -97 -859 -53 -137 -186 -400 -249 -495 -117 -174 -375 -483 -508 -606
-104 -97 -269 -222 -326 -248 -81 -36 -169 -2 -261 100 -37 42 -74 105 -135
230 -151 308 -351 651 -452 775 -92 113 -268 274 -380 348 -119 78 -237 130
-255 112 -14 -14 -24 -8 112 -74 189 -92 335 -217 485 -413 79 -104 232 -368
369 -640 177 -351 240 -436 363 -492 65 -30 136 -28 206 6 129 63 459 372 613
576 305 404 450 690 551 1090 45 179 56 384 28 530 -42 226 -186 440 -354 529
-90 47 -203 84 -284 92 -63 6 -67 6 -67 -14z"/>
<path d="M25198 19015 c-197 -48 -391 -201 -458 -360 -72 -174 -74 -270 -14
-560 32 -154 37 -199 37 -315 1 -104 -3 -145 -16 -179 -10 -24 -16 -46 -14
-48 7 -6 87 26 149 59 86 46 212 167 249 240 61 120 71 214 44 413 -8 61 -15
137 -15 170 0 125 60 267 142 339 36 31 49 49 44 61 -5 14 -12 13 -56 -11 -65
-36 -115 -91 -151 -168 -43 -91 -52 -154 -38 -266 15 -124 16 -340 2 -410 -31
-150 -105 -256 -223 -319 -34 -18 -63 -31 -65 -29 -2 1 3 28 12 58 17 65 12
222 -11 310 -8 30 -26 100 -40 155 -21 78 -27 123 -27 205 1 186 55 323 176
446 84 84 193 143 315 171 63 14 80 22 80 35 0 22 -39 23 -122 3z"/>
<path d="M22730 18854 c-128 -29 -255 -107 -355 -217 -115 -125 -175 -285
-175 -463 0 -122 13 -180 64 -289 50 -104 105 -178 178 -236 44 -34 53 -38 60
-24 7 12 -7 34 -64 94 -81 86 -117 145 -154 253 -34 98 -42 237 -20 333 55
232 235 425 459 490 46 13 58 21 63 41 4 14 5 26 3 28 -2 2 -29 -3 -59 -10z"/>
<path d="M22900 18861 c0 -5 -2 -16 -5 -23 -5 -11 10 -15 69 -16 362 -7 743
-362 860 -802 14 -51 28 -120 32 -154 6 -57 32 -106 56 -106 13 0 9 70 -8 160
-30 162 -109 345 -221 515 -141 212 -369 373 -595 419 -85 18 -188 21 -188 7z"/>
<path d="M25450 18857 c0 -8 24 -17 64 -24 85 -14 190 -67 247 -123 91 -91
147 -257 134 -400 -40 -452 -369 -1047 -779 -1410 -102 -90 -182 -140 -233
-146 -77 -9 -107 18 -378 333 -332 387 -405 465 -546 583 -162 136 -248 198
-349 253 -84 45 -208 93 -217 83 -3 -2 -2 -13 1 -24 5 -13 22 -24 53 -31 149
-38 306 -141 522 -340 159 -148 285 -290 468 -530 165 -216 274 -336 333 -366
93 -48 219 -4 375 133 381 333 670 803 776 1262 30 125 32 317 5 405 -41 140
-121 237 -240 295 -102 50 -236 76 -236 47z"/>
<path d="M25470 18792 c0 -13 45 -70 73 -92 38 -30 103 -50 164 -50 67 0 66
11 -8 62 -72 50 -229 104 -229 80z"/>
<path d="M22865 18752 c-13 -43 -94 -139 -141 -169 -76 -48 -145 -66 -226 -61
l-69 5 -34 -51 c-115 -173 -123 -380 -23 -584 38 -77 130 -192 153 -192 6 0
26 25 45 56 59 94 194 205 300 245 25 9 45 21 45 25 0 16 -69 44 -105 44 -34
0 -81 -9 -129 -25 -24 -7 -24 -7 -19 52 15 163 130 270 299 281 99 6 169 -15
247 -72 67 -50 144 -150 162 -213 13 -41 13 -42 99 -68 96 -30 189 -75 270
-129 30 -20 56 -35 58 -32 7 7 -25 168 -48 243 -63 203 -231 419 -427 550
-117 78 -200 105 -338 111 -107 4 -112 3 -119 -16z"/>
<path d="M22645 18701 c-33 -16 -69 -36 -80 -45 -19 -15 -18 -15 15 -9 42 7
121 46 139 67 21 25 -5 20 -74 -13z"/>
<path d="M22900 18331 c-76 -25 -136 -78 -169 -151 -11 -25 -21 -50 -21 -55 0
-6 32 -10 78 -11 56 0 89 -6 123 -21 150 -67 156 -286 11 -414 -40 -35 -133
-79 -167 -79 -13 0 -32 -37 -23 -45 2 -2 29 2 59 9 118 27 212 103 264 212 56
118 17 282 -82 344 -52 33 -129 52 -174 43 -29 -6 -31 -5 -20 14 6 12 25 33
43 48 116 98 254 83 366 -40 72 -78 97 -152 96 -280 0 -165 -41 -255 -167
-377 -102 -100 -287 -172 -393 -155 -29 5 -34 3 -34 -14 0 -17 7 -19 70 -19
96 0 162 15 255 60 234 112 364 350 325 595 -23 146 -97 251 -217 307 -68 32
-172 46 -223 29z"/>
<path d="M22855 17957 c-231 -112 -351 -301 -371 -583 -16 -215 46 -410 205
-652 196 -298 568 -543 851 -559 73 -5 95 -2 156 19 101 35 177 90 244 174 92
115 189 302 250 479 l20 57 -21 41 -21 41 -23 -90 c-69 -272 -232 -538 -388
-632 -145 -87 -297 -78 -517 33 -181 91 -397 275 -522 445 -257 349 -272 788
-36 1064 47 55 172 139 234 157 42 13 54 31 23 37 -8 1 -45 -13 -84 -31z"/>
<path d="M22893 17861 c-195 -93 -299 -317 -272 -589 21 -206 109 -383 265
-533 83 -79 141 -119 237 -164 218 -103 386 -82 523 66 124 136 196 300 244
563 25 139 25 164 -5 200 l-24 30 -5 -25 c-2 -13 -7 -55 -11 -92 -14 -163 -78
-392 -140 -502 -53 -94 -140 -192 -196 -221 -106 -53 -231 -39 -404 46 -224
109 -370 289 -431 527 -73 289 37 593 248 683 55 24 73 40 46 40 -7 0 -41 -13
-75 -29z"/>
<path d="M22921 17797 c-42 -21 -151 -128 -151 -148 0 -16 79 30 127 74 36 33
83 97 71 97 -2 0 -23 -10 -47 -23z"/>
<path d="M23365 17708 c-75 -232 -303 -397 -576 -416 l-96 -7 19 -80 c37 -159
135 -315 253 -404 73 -55 204 -125 274 -145 78 -23 175 -21 228 5 91 44 196
187 248 336 33 95 74 305 82 416 l6 93 -69 56 c-38 31 -94 72 -124 92 -63 42
-192 106 -214 106 -9 0 -21 -21 -31 -52z"/>
<path d="M26061 11500 c-140 -28 -237 -53 -242 -61 -4 -7 -15 -44 -25 -82 -24
-100 -17 -244 17 -317 49 -104 159 -184 314 -226 82 -22 324 -30 455 -15 395
46 859 221 1094 414 l30 24 -43 104 c-24 57 -54 128 -67 157 l-23 53 -53 -31
c-104 -62 -281 -141 -411 -184 -202 -67 -317 -89 -482 -90 -131 -1 -143 1
-196 25 -74 35 -111 83 -117 153 -2 28 0 68 6 89 9 32 8 37 -6 36 -9 -1 -122
-22 -251 -49z"/>
<path d="M14565 11273 c-215 -11 -621 -60 -798 -96 -57 -12 -62 -15 -60 -37 1
-14 7 -99 13 -190 6 -91 13 -170 15 -176 2 -8 21 -7 67 2 253 53 507 75 925
81 475 7 739 -8 1198 -68 88 -11 164 -22 170 -22 9 -2 14 40 29 289 l7 110
-138 27 c-171 34 -400 63 -601 76 -138 10 -673 12 -827 4z"/>
<path d="M34620 11269 c-275 -19 -771 -87 -792 -108 -5 -4 -1 -90 7 -191 8
-102 15 -190 15 -196 0 -7 29 -5 93 7 276 54 604 79 1025 79 407 0 714 -21
1095 -74 104 -15 157 -19 158 -12 0 6 6 94 13 196 7 102 11 188 7 192 -21 23
-471 89 -733 108 -168 11 -717 11 -888 -1z"/>
<path d="M6204 10320 c-23 -5 -59 -13 -81 -19 l-39 -11 -33 -157 c-18 -87 -35
-167 -37 -178 -4 -18 0 -20 49 -20 66 0 114 -32 146 -98 21 -44 21 -45 19
-943 l-3 -899 -22 -42 c-35 -65 -84 -97 -148 -97 -32 0 -51 -4 -49 -11 2 -5
17 -77 34 -160 17 -82 33 -157 36 -166 15 -52 272 -73 386 -31 155 56 253 179
283 354 l6 38 78 -68 c317 -274 711 -400 1036 -333 262 54 467 205 576 425 83
168 79 102 79 1314 l0 1072 -260 0 -260 0 -2 -1052 -3 -1053 -29 -59 c-117
-238 -437 -296 -754 -137 -116 58 -244 149 -357 250 l-100 91 -5 827 -5 828
-23 60 c-49 131 -138 220 -255 257 -71 22 -203 31 -263 18z"/>
<path d="M9240 10324 c-14 -2 -52 -11 -85 -20 l-61 -15 -33 -162 c-18 -89 -35
-170 -37 -180 -5 -15 -1 -17 20 -11 65 16 140 -25 176 -97 20 -37 20 -66 20
-1184 l0 -1145 265 0 265 0 0 715 c0 564 3 716 13 719 6 2 95 20 197 39 213
42 531 130 665 185 88 37 93 38 133 24 51 -17 134 -90 167 -146 14 -24 35 -69
47 -102 23 -59 23 -62 26 -746 l3 -688 260 0 260 0 -3 683 -3 682 -32 95 c-18
52 -49 124 -70 160 -50 86 -182 218 -250 249 -29 14 -53 27 -53 30 0 4 25 26
56 51 130 103 247 249 309 384 49 106 65 177 72 319 l6 127 -262 0 -261 0 0
-45 c0 -61 -27 -188 -53 -250 -123 -298 -470 -504 -1072 -640 -60 -14 -120
-28 -132 -30 l-23 -5 0 237 c-1 377 -17 483 -95 600 -45 68 -113 117 -195 143
-63 20 -190 33 -240 24z"/>
<path d="M12580 10323 c-148 -14 -243 -29 -355 -58 -156 -40 -337 -105 -332
-120 2 -5 24 -77 47 -160 24 -82 44 -151 45 -153 1 -1 38 9 81 22 181 57 285
77 429 83 111 4 154 2 205 -11 88 -22 166 -77 207 -145 64 -108 63 -81 63
-1230 l0 -1041 260 0 260 0 0 1109 c0 1233 1 1203 -66 1340 -24 48 -61 99
-107 148 -61 64 -86 82 -172 123 -55 26 -131 55 -170 64 -122 28 -283 40 -395
29z"/>
<path d="M14755 10320 c-251 -27 -526 -125 -752 -269 l-62 -40 95 -163 c53
-90 97 -164 99 -166 1 -2 27 12 56 31 227 145 506 205 750 162 244 -42 426
-158 553 -349 123 -185 176 -379 176 -647 0 -312 -92 -546 -288 -731 -129
-121 -297 -197 -482 -218 -231 -26 -499 45 -716 191 l-41 28 -88 -152 c-49
-84 -97 -166 -108 -184 l-19 -32 71 -46 c295 -191 664 -288 979 -257 552 55
964 375 1131 879 107 320 103 740 -9 1083 -133 407 -412 696 -791 820 -165 54
-384 78 -554 60z"/>
<path d="M16793 10319 c-29 -5 -67 -15 -85 -22 l-32 -13 -36 -175 -37 -176 46
4 c74 7 146 -53 170 -142 8 -28 11 -382 11 -1162 l0 -1123 260 0 260 0 0 935
0 935 43 47 c134 146 379 332 526 400 84 39 215 73 278 73 160 0 307 -90 371
-228 l27 -57 3 -1052 2 -1053 260 0 260 0 0 1093 c0 1206 2 1164 -64 1300 -94
195 -288 342 -521 398 -77 18 -110 20 -230 16 -96 -3 -164 -11 -217 -25 -235
-63 -451 -191 -650 -384 l-86 -84 -7 65 c-18 184 -99 327 -219 386 -97 47
-218 63 -333 44z"/>
<path d="M20335 10319 c-237 -34 -444 -171 -528 -349 -51 -109 -62 -167 -60
-305 5 -316 134 -520 376 -590 64 -18 74 -40 25 -50 -18 -4 -66 -23 -106 -42
-136 -64 -236 -195 -284 -370 -17 -63 -21 -107 -22 -228 0 -178 17 -254 91
-399 39 -76 64 -108 147 -191 109 -108 192 -162 343 -223 192 -77 392 -108
628 -99 493 20 889 240 1051 582 82 176 79 121 79 1240 l0 990 -257 3 -257 2
-3 -977 -3 -978 -24 -70 c-88 -266 -338 -423 -637 -402 -247 18 -442 136 -538
328 -45 91 -59 161 -54 283 3 87 8 110 34 166 46 97 102 161 196 223 80 52
198 107 233 107 12 0 15 7 10 33 -8 45 -25 170 -25 183 0 7 -35 20 -77 29
-180 39 -296 114 -350 223 -25 51 -28 68 -28 157 0 81 4 109 21 146 62 134
182 199 372 199 50 0 92 3 92 8 0 4 -14 78 -32 165 -29 149 -33 159 -59 173
-76 39 -219 52 -354 33z"/>
<path d="M23115 10323 c-183 -14 -378 -56 -563 -122 -63 -22 -116 -42 -119
-44 -2 -3 17 -78 43 -166 38 -130 50 -161 63 -156 57 22 262 76 340 89 114 19
288 21 356 2 130 -34 206 -104 248 -228 22 -63 22 -67 25 -1125 l3 -1063 260
0 260 0 -4 1138 c-3 1058 -4 1141 -21 1196 -69 229 -236 385 -479 446 -124 31
-280 44 -412 33z"/>
<path d="M25580 10314 c-144 -20 -313 -59 -452 -104 -221 -73 -498 -205 -498
-238 0 -24 81 -386 89 -394 3 -4 76 28 161 70 221 109 405 174 634 224 84 18
134 22 296 23 175 0 203 -2 274 -23 124 -36 202 -79 276 -152 110 -109 153
-217 163 -409 l5 -93 -162 6 c-88 4 -247 3 -352 -3 -792 -42 -1213 -282 -1309
-746 -19 -94 -22 -282 -5 -375 49 -273 261 -507 545 -602 61 -20 90 -23 215
-23 126 0 154 3 213 23 37 13 67 25 67 27 0 2 18 97 40 211 22 114 40 209 40
210 0 1 -17 -2 -37 -7 -58 -13 -181 -10 -251 6 -118 28 -196 84 -248 177 -28
51 -29 58 -28 178 0 140 10 175 70 265 90 136 281 232 552 279 115 19 415 38
542 34 l95 -3 3 -682 2 -683 260 0 261 0 -3 1028 -3 1027 -23 73 c-100 326
-352 546 -739 646 -176 46 -480 59 -693 30z"/>
<path d="M28331 10315 c-297 -56 -490 -219 -553 -466 -18 -72 -20 -102 -15
-209 7 -137 23 -213 68 -307 57 -121 183 -226 308 -258 63 -16 67 -40 9 -55
-127 -34 -258 -140 -317 -259 -63 -123 -76 -190 -76 -376 0 -193 14 -256 86
-395 104 -202 302 -358 564 -445 270 -91 638 -98 913 -19 234 68 374 147 523
294 94 94 110 116 157 210 93 188 86 90 90 1243 l3 1017 -261 0 -260 0 0 -963
c0 -929 -1 -967 -20 -1041 -25 -101 -69 -176 -144 -251 -239 -238 -701 -229
-938 19 -162 168 -204 429 -100 619 63 116 192 220 339 272 43 16 80 30 82 31
6 5 -22 215 -30 219 -4 3 -50 16 -102 29 -168 43 -267 109 -318 212 -19 38
-25 69 -27 140 -4 106 6 153 49 218 65 97 180 146 347 146 84 0 93 2 88 18 -2
9 -12 55 -21 102 -9 47 -23 115 -31 152 l-15 67 -62 21 c-79 28 -232 35 -336
15z"/>
<path d="M30805 10323 c-37 -5 -135 -32 -135 -37 0 -2 -16 -79 -35 -170 -19
-92 -35 -170 -35 -174 0 -4 24 -7 53 -7 68 0 111 -30 143 -99 l24 -51 -1 -760
c0 -418 -4 -826 -7 -906 -7 -137 -9 -148 -35 -188 -35 -53 -102 -86 -153 -76
-39 7 -40 33 10 -205 l31 -145 55 -18 c151 -51 335 -22 458 71 73 56 135 169
150 279 l7 46 84 -73 c153 -131 336 -236 516 -295 450 -146 914 19 1095 390
80 164 74 69 78 1293 l3 1092 -261 0 -260 0 -2 -1047 -3 -1048 -27 -57 c-51
-110 -145 -187 -272 -223 -82 -24 -254 -16 -346 15 -160 54 -329 158 -492 304
l-103 92 -5 825 c-5 810 -6 825 -26 880 -34 87 -53 119 -106 175 -89 94 -242
138 -403 117z"/>
<path d="M33800 10319 c-66 -12 -120 -29 -120 -37 0 -4 -16 -81 -35 -171 -19
-90 -35 -166 -35 -170 0 -3 19 -5 43 -3 55 4 103 -22 142 -77 l30 -43 3 -1154
2 -1154 260 0 260 0 2 717 3 716 110 19 c235 39 691 166 809 225 l48 25 64
-32 c96 -47 162 -133 202 -263 14 -45 16 -146 19 -729 l4 -678 260 0 260 0 -4
673 c-4 762 0 725 -87 904 -42 85 -64 116 -128 181 -45 46 -101 90 -134 107
-32 17 -58 32 -58 35 0 3 34 34 76 70 175 149 288 317 336 499 11 43 22 128
25 194 l6 117 -260 0 -259 0 -11 -93 c-21 -176 -80 -302 -198 -422 -193 -197
-541 -346 -1052 -450 l-33 -7 0 299 c0 325 -8 389 -55 484 -34 69 -106 144
-169 176 -89 45 -219 62 -326 42z"/>
<path d="M37950 10320 c-313 -38 -585 -160 -789 -355 -191 -182 -321 -422
-382 -703 -27 -125 -37 -422 -20 -573 68 -595 385 -1055 816 -1185 79 -24 106
-27 220 -27 75 1 153 7 184 15 l55 13 208 675 c114 371 213 701 219 732 49
244 -184 478 -477 478 -136 0 -124 12 -190 -184 -31 -94 -59 -176 -61 -182 -2
-7 16 -13 47 -17 62 -7 121 -39 143 -77 32 -53 22 -100 -109 -510 -69 -217
-129 -398 -133 -402 -9 -10 -96 49 -150 103 -204 203 -312 626 -256 1005 51
340 230 598 506 728 128 61 182 71 379 71 153 0 185 -3 254 -23 241 -70 416
-234 483 -452 16 -50 18 -148 20 -997 l4 -943 260 0 260 0 -4 953 c-3 1041 0
983 -62 1147 -133 350 -487 614 -932 695 -105 19 -387 27 -493 15z"/>
<path d="M40995 10315 c-290 -41 -554 -124 -822 -259 -95 -47 -133 -71 -133
-84 1 -23 86 -391 92 -398 3 -3 48 18 99 45 210 112 448 199 679 248 111 24
146 27 320 27 184 0 200 -2 285 -28 124 -38 179 -70 260 -151 108 -108 148
-206 161 -397 l7 -101 -164 7 c-182 8 -496 -6 -659 -29 -233 -34 -480 -112
-623 -196 -216 -128 -348 -320 -387 -563 -19 -112 -8 -322 20 -411 85 -270
294 -466 570 -536 161 -41 441 -7 455 54 7 35 75 385 75 390 0 3 -48 2 -107 0
-279 -14 -446 107 -460 329 -21 329 217 529 705 592 137 18 504 33 545 22 l27
-6 0 -680 0 -680 260 0 260 0 0 943 c0 581 -4 976 -10 1032 -15 123 -34 196
-81 292 -127 264 -386 444 -754 523 -132 28 -469 36 -620 15z"/>
<path d="M25915 5603 c-27 -49 -64 -77 -176 -134 -156 -78 -208 -146 -217
-286 -3 -40 -3 -73 0 -73 2 0 78 -13 168 -30 90 -16 165 -30 166 -30 1 0 4 26
7 59 7 83 31 127 96 175 61 45 191 170 191 183 -1 4 -49 45 -109 90 l-107 81
-19 -35z"/>
<path d="M27075 5394 c-198 -15 -551 -63 -559 -76 -1 -2 2 -63 7 -136 l10
-134 31 7 c361 75 922 81 1425 15 80 -11 146 -18 148 -16 2 2 8 61 13 132 6
88 6 131 -2 135 -12 8 -232 45 -348 60 -85 10 -631 20 -725 13z"/>
<path d="M28905 5394 c-201 -16 -546 -62 -560 -75 -4 -5 15 -261 20 -267 1 -1
37 5 81 13 345 66 935 66 1413 0 57 -8 105 -14 107 -12 1 1 6 62 11 135 7 114
6 133 -7 137 -37 10 -195 37 -305 51 -115 14 -643 27 -760 18z"/>
<path d="M18235 4841 c-7 -68 -40 -187 -53 -195 -5 -3 -48 11 -96 31 -147 59
-254 76 -441 70 -193 -5 -283 -26 -430 -97 -117 -57 -197 -118 -277 -214 -60
-72 -135 -213 -162 -306 -43 -144 -58 -369 -36 -525 56 -388 282 -694 570
-770 82 -22 262 -17 287 8 2 3 33 184 68 404 35 219 71 412 79 430 22 47 57
67 111 60 40 -4 46 -2 50 17 4 22 25 207 25 225 0 18 -94 59 -163 72 -126 23
-230 -22 -288 -126 -24 -42 -38 -105 -89 -380 -33 -182 -62 -334 -64 -340 -8
-22 -124 112 -160 186 -59 121 -77 197 -83 350 -11 270 54 462 199 594 110
101 237 148 398 148 224 1 394 -92 477 -261 l38 -76 3 -653 3 -653 174 0 175
0 0 638 c0 603 -1 643 -20 716 -20 81 -88 222 -120 251 -19 17 -18 18 10 69
34 59 86 211 95 276 l6 45 -139 36 -140 36 -7 -66z"/>
<path d="M21626 4858 c-7 -53 -36 -133 -62 -173 -15 -23 -18 -24 -44 -10 -56
29 -203 65 -309 75 -188 19 -423 -13 -635 -87 -115 -40 -305 -130 -312 -147
-2 -6 9 -72 26 -145 16 -73 30 -135 30 -136 0 -2 35 16 78 40 163 93 389 167
563 185 344 35 579 -121 579 -385 l0 -62 -222 -6 c-403 -11 -642 -70 -813
-200 -254 -192 -278 -603 -50 -832 135 -135 344 -193 505 -138 l55 18 26 137
25 137 -80 0 c-131 0 -223 39 -276 118 -22 32 -25 47 -25 127 0 79 4 98 28
148 81 165 320 248 714 248 l113 0 0 -465 0 -465 181 0 180 0 -3 683 c-4 614
-6 688 -21 742 -23 76 -61 160 -92 201 -24 31 -24 32 -5 49 26 24 95 158 114
224 29 98 34 92 -123 133 l-139 36 -6 -50z"/>
<path d="M27760 4863 c0 -60 -28 -178 -48 -203 l-17 -21 -67 30 c-137 63 -213
76 -423 76 -145 -1 -206 -5 -257 -18 -366 -92 -592 -327 -671 -697 -26 -126
-28 -356 -3 -484 43 -221 126 -385 266 -527 102 -104 184 -155 297 -184 67
-18 186 -20 246 -4 l43 10 63 397 c35 218 69 411 76 428 7 17 25 41 41 53 24
19 37 22 77 17 43 -5 47 -3 47 17 1 12 7 71 14 130 l12 108 -38 20 c-46 23
-141 49 -183 49 -100 0 -205 -68 -244 -159 -12 -29 -45 -184 -78 -368 -31
-175 -60 -322 -64 -327 -15 -18 -117 102 -159 186 -66 136 -83 217 -83 398 0
173 17 258 72 373 69 142 187 245 334 293 143 46 337 34 461 -28 72 -36 142
-95 178 -150 69 -103 68 -90 68 -800 l0 -638 180 0 181 0 -3 653 -3 652 -24
70 c-27 83 -63 155 -102 210 l-29 40 39 78 c41 81 81 212 81 264 l0 31 -140
35 -140 35 0 -45z"/>
<path d="M34491 4688 c-13 -101 -48 -205 -98 -296 -38 -69 -138 -197 -182
-235 l-29 -24 65 -64 c113 -112 181 -220 224 -359 33 -107 34 -293 1 -397 -36
-116 -111 -195 -212 -225 -66 -19 -194 -16 -259 6 -65 22 -136 89 -168 156
-77 166 -49 425 72 650 154 288 191 395 183 534 -10 182 -112 290 -297 316
-83 12 -198 -3 -268 -35 -57 -25 -52 -15 -73 -155 -15 -97 -16 -93 34 -86 82
13 166 -27 201 -95 22 -41 19 -144 -5 -216 -12 -33 -58 -124 -104 -202 -53
-89 -96 -177 -117 -238 -32 -94 -34 -104 -34 -243 1 -220 44 -345 164 -473 52
-55 82 -77 155 -112 128 -61 219 -80 391 -79 110 1 157 6 219 23 166 44 301
136 382 258 21 32 54 103 74 158 35 100 35 100 35 275 -1 170 -1 177 -32 265
-43 124 -75 177 -161 267 l-74 78 81 85 c93 99 158 217 191 349 20 80 26 156
13 156 -5 1 -87 11 -184 23 l-176 23 -12 -88z"/>
<path d="M25055 4750 c-164 -19 -301 -76 -395 -166 -104 -99 -144 -206 -138
-369 3 -94 6 -108 41 -178 73 -148 201 -227 550 -342 226 -74 304 -108 365
-160 113 -98 111 -243 -6 -332 -62 -47 -129 -65 -267 -70 -188 -8 -382 35
-584 128 -46 22 -85 38 -86 37 -6 -7 -95 -285 -95 -295 0 -15 190 -94 303
-127 410 -119 807 -68 1018 131 162 153 204 394 106 605 -86 184 -232 279
-626 407 -304 99 -361 136 -361 232 0 90 41 148 135 190 136 62 441 19 694
-97 41 -19 75 -33 77 -32 1 2 19 61 39 133 43 152 51 135 -99 194 -234 92
-484 133 -671 111z"/>
<path d="M29110 4749 c-288 -33 -485 -200 -521 -440 -23 -156 23 -293 133
-394 83 -77 210 -138 461 -220 241 -80 317 -115 379 -176 128 -127 70 -303
-122 -366 -44 -14 -87 -18 -210 -18 -134 1 -169 4 -261 27 -108 28 -223 69
-311 114 -27 14 -52 23 -54 21 -3 -2 -27 -70 -54 -151 l-49 -148 82 -37 c312
-144 682 -187 956 -111 159 44 300 139 371 250 113 177 98 444 -35 612 -96
120 -240 201 -525 293 -259 84 -307 104 -358 151 -45 40 -46 43 -45 96 2 100
56 166 162 198 154 48 426 5 669 -106 41 -19 76 -33 77 -32 1 2 17 57 35 123
18 66 35 126 37 132 6 16 -95 63 -233 108 -193 64 -424 93 -584 74z"/>
<path d="M30940 4749 c-163 -19 -300 -79 -390 -169 -66 -66 -104 -134 -125
-221 -41 -177 0 -325 125 -443 86 -81 178 -125 458 -220 230 -78 277 -98 349
-148 98 -67 127 -188 67 -284 -24 -39 -43 -56 -94 -82 -79 -39 -144 -52 -265
-52 -170 0 -379 50 -544 130 -46 22 -87 37 -91 33 -4 -4 -27 -66 -50 -138 -24
-71 -45 -135 -47 -142 -13 -33 284 -143 487 -179 114 -21 367 -24 455 -5 353
74 535 260 535 546 0 159 -41 266 -144 373 -111 116 -225 173 -564 282 -283
92 -343 137 -328 248 9 67 50 121 121 157 58 29 61 30 204 29 169 -1 264 -22
456 -100 61 -25 114 -46 119 -47 5 -1 25 58 46 131 l38 133 -52 23 c-266 117
-551 171 -766 145z"/>
<path d="M45136 4749 c-115 -12 -226 -36 -351 -76 -109 -35 -327 -131 -338
-150 -5 -7 49 -271 58 -281 1 -1 51 22 111 52 222 111 438 168 634 167 125 0
199 -15 281 -56 125 -64 199 -198 199 -361 l0 -43 -122 6 c-224 10 -519 -24
-683 -78 -171 -57 -312 -161 -373 -276 -89 -170 -94 -383 -11 -552 93 -188
332 -313 536 -281 115 19 117 21 143 157 12 65 24 127 26 138 5 19 1 20 -74
17 -113 -6 -179 15 -241 76 -42 40 -51 56 -61 107 -22 108 10 217 88 292 110
108 330 163 647 163 l125 0 0 -465 0 -465 175 0 175 0 0 673 c0 741 -1 750
-62 875 -46 95 -167 214 -268 264 -98 48 -224 84 -343 97 -107 12 -156 12
-271 0z"/>
<path d="M3119 4735 c-319 -60 -558 -249 -669 -530 -52 -132 -65 -212 -65
-410 0 -202 13 -283 71 -444 51 -144 106 -233 209 -337 70 -71 107 -99 165
-127 130 -64 250 -82 369 -56 46 10 51 14 56 42 3 18 32 200 65 405 33 205 67
386 75 403 24 45 58 62 110 57 51 -6 46 -18 65 151 12 109 11 112 -67 141
-162 61 -319 15 -383 -110 -11 -22 -43 -166 -75 -341 -70 -381 -65 -359 -75
-359 -18 0 -79 62 -115 116 -43 64 -89 184 -105 272 -17 94 -14 305 5 392 22
98 82 222 140 287 60 69 164 136 255 167 306 102 632 -51 689 -322 7 -35 11
-258 11 -672 l0 -620 175 0 175 0 0 638 c0 605 -1 643 -20 716 -63 249 -280
451 -565 527 -104 28 -380 36 -496 14z"/>
<path d="M5216 4734 c-135 -26 -281 -86 -386 -157 -60 -41 -174 -151 -217
-210 l-36 -48 42 -43 c23 -23 51 -67 64 -97 21 -53 22 -66 27 -594 l5 -540 28
-60 c48 -103 102 -144 215 -165 59 -10 170 -1 199 18 5 4 22 60 35 125 l25
117 -39 0 c-49 0 -91 38 -107 96 -7 25 -11 195 -11 488 0 311 -4 461 -12 487
-6 22 -27 57 -45 79 l-35 40 30 40 c61 84 171 149 295 174 94 20 142 20 230 1
131 -27 226 -97 279 -204 23 -46 23 -50 29 -541 5 -441 7 -501 23 -550 69
-210 215 -340 418 -372 103 -15 217 6 343 66 85 40 205 127 270 195 l29 31 13
-62 c26 -130 120 -215 248 -226 73 -5 145 3 169 21 9 7 25 54 39 120 l24 107
-29 0 c-37 0 -82 23 -102 52 -14 20 -16 113 -16 815 l0 793 -175 0 -175 0 0
-655 0 -655 -77 -78 c-149 -149 -310 -231 -430 -219 -106 11 -189 88 -212 198
-7 31 -11 217 -11 487 0 347 -3 448 -15 491 -58 221 -272 390 -559 440 -82 15
-306 12 -390 -5z"/>
<path d="M10170 4737 c-34 -12 -34 -13 -57 -117 -12 -58 -23 -111 -23 -117 0
-8 14 -13 36 -13 29 0 44 -8 70 -36 19 -19 35 -45 36 -57 1 -12 2 -267 2 -567
1 -493 3 -551 19 -604 66 -219 208 -360 404 -401 86 -18 130 -18 218 0 146 31
288 128 361 246 20 32 38 59 39 59 1 0 18 -26 38 -58 182 -295 592 -349 831
-110 73 73 126 172 156 292 19 75 20 112 20 778 l0 698 -175 0 -174 0 -3 -707
-3 -708 -23 -47 c-29 -58 -89 -113 -139 -127 -114 -32 -237 3 -292 82 -68 100
-66 70 -69 825 l-3 682 -162 -2 -162 -3 -5 -685 c-4 -497 -9 -695 -18 -720
-20 -60 -69 -128 -113 -157 -39 -25 -51 -28 -133 -28 -108 0 -153 19 -203 84
-58 75 -58 72 -58 716 l0 590 -29 63 c-34 73 -87 124 -154 146 -54 19 -182 20
-232 3z"/>
<path d="M12751 4737 c-34 -12 -35 -14 -57 -117 -13 -58 -23 -111 -24 -117 0
-8 14 -13 36 -13 29 0 44 -7 69 -34 18 -19 35 -49 39 -66 3 -18 6 -374 6 -791
l0 -759 175 0 175 0 0 637 0 636 74 72 c194 188 374 282 525 273 78 -5 131
-28 182 -80 71 -73 69 -50 69 -835 l0 -703 175 0 175 0 -2 773 -3 772 -36 76
c-50 104 -123 176 -231 228 -97 46 -162 61 -261 61 -195 0 -411 -98 -585 -265
l-79 -75 -7 61 c-13 131 -87 234 -190 264 -59 18 -177 19 -225 2z"/>
<path d="M15132 4735 c-131 -36 -243 -119 -292 -214 -38 -76 -53 -172 -40
-272 15 -127 43 -193 111 -261 46 -46 68 -60 118 -75 67 -20 78 -37 29 -47
-52 -10 -133 -61 -172 -109 -63 -77 -88 -155 -94 -286 -6 -138 6 -199 60 -303
55 -107 146 -191 270 -252 153 -76 221 -90 438 -90 219 -1 291 14 455 94 172
83 285 209 338 375 22 69 22 75 22 750 l0 680 -175 0 -175 0 -5 -680 -5 -680
-29 -60 c-59 -119 -166 -194 -309 -217 -196 -30 -393 64 -472 226 -40 81 -46
196 -16 277 38 100 148 199 256 229 l48 13 -7 60 c-3 33 -6 68 -6 78 0 13 -13
20 -57 30 -121 25 -209 82 -241 159 -21 51 -18 158 6 206 42 83 104 116 224
122 83 4 88 5 83 26 -3 11 -13 62 -23 111 -16 82 -21 91 -47 105 -42 21 -224
24 -293 5z"/>
<path d="M19170 4743 c-145 -22 -385 -96 -377 -117 2 -6 17 -55 32 -109 26
-90 30 -98 49 -93 161 46 223 59 313 63 168 9 250 -24 300 -120 l28 -52 3
-737 3 -738 175 0 174 0 -2 793 -3 792 -32 67 c-43 91 -101 151 -187 193 -97
48 -186 65 -331 63 -66 0 -131 -2 -145 -5z"/>
<path d="M22850 4724 c-345 -117 -539 -365 -591 -752 -15 -109 -7 -331 16
-436 78 -367 287 -631 555 -701 71 -19 240 -17 274 2 29 16 305 917 306 996 0
64 -15 109 -55 161 -52 68 -176 126 -271 126 -79 0 -85 -6 -126 -132 -21 -63
-38 -116 -38 -120 0 -3 18 -8 41 -12 51 -8 99 -53 99 -92 0 -24 -165 -561
-177 -574 -9 -10 -78 37 -114 79 -121 137 -177 329 -166 574 11 273 96 458
259 567 l61 41 26 -25 c14 -14 49 -35 76 -48 44 -20 66 -23 180 -23 115 0 136
3 180 23 28 13 62 34 76 48 l26 25 49 -34 c65 -44 126 -121 155 -194 l24 -58
3 -662 3 -663 175 0 175 0 -3 678 -3 677 -24 65 c-55 156 -155 284 -289 371
-74 48 -197 102 -263 114 -32 6 -39 4 -57 -22 -11 -16 -44 -42 -74 -59 -48
-26 -62 -29 -148 -29 -108 0 -165 21 -224 81 -18 19 -39 34 -47 34 -8 0 -48
-12 -89 -26z"/>
<path d="M32350 4743 c-76 -11 -226 -49 -298 -75 -64 -24 -82 -34 -78 -47 54
-189 59 -202 80 -197 161 46 223 59 313 63 171 9 250 -24 300 -126 l28 -56 3
-732 3 -733 175 0 175 0 -3 793 -3 793 -38 76 c-84 171 -246 249 -512 246 -66
0 -131 -2 -145 -5z"/>
<path d="M35189 4738 l-36 -9 -25 -120 -24 -119 27 0 c39 0 76 -19 96 -49 17
-24 18 -73 23 -601 6 -569 6 -576 29 -640 50 -141 113 -231 203 -293 247 -170
590 -101 763 152 l49 71 36 -57 c187 -296 592 -351 830 -113 43 43 71 84 104
152 76 158 76 154 76 933 l0 685 -175 0 -174 0 -3 -702 -3 -703 -24 -53 c-27
-60 -88 -117 -140 -132 -20 -5 -65 -10 -100 -10 -113 0 -186 53 -234 170 -22
55 -22 60 -27 740 l-5 685 -162 3 -163 2 0 -657 c0 -731 -1 -743 -65 -839 -45
-68 -113 -104 -199 -104 -93 0 -135 16 -187 69 -82 85 -82 84 -78 746 l4 570
-24 59 c-32 79 -93 140 -162 160 -58 17 -173 19 -230 4z"/>
<path d="M38103 4735 c-137 -37 -243 -120 -296 -233 -31 -65 -32 -71 -32 -197
1 -111 4 -138 23 -186 44 -111 121 -185 220 -212 54 -14 54 -30 -1 -44 -97
-26 -183 -113 -227 -231 -31 -79 -38 -242 -16 -336 38 -162 154 -300 318 -380
140 -68 224 -88 408 -93 128 -4 171 -1 250 15 183 38 335 116 441 228 65 69
99 124 131 214 l23 65 3 693 3 692 -176 0 -175 0 0 -617 c0 -340 -5 -651 -10
-691 -24 -181 -149 -303 -342 -333 -200 -32 -392 62 -471 229 -28 60 -32 77
-32 157 0 108 23 163 97 238 43 43 150 105 208 120 15 4 20 11 16 24 -2 10 -8
44 -11 75 -7 54 -9 57 -39 63 -136 27 -230 88 -261 170 -27 70 -18 172 20 227
45 63 109 92 213 97 80 3 83 4 78 25 -2 11 -13 62 -22 113 l-18 92 -45 16
c-56 19 -207 19 -278 0z"/>
<path d="M39915 4734 c-79 -14 -287 -76 -313 -93 -11 -7 -8 -28 16 -112 24
-86 32 -104 48 -103 10 1 64 14 119 30 86 25 118 28 230 29 121 0 133 -2 174
-25 24 -14 57 -41 72 -60 58 -72 59 -87 59 -857 l0 -703 175 0 175 0 0 755 c0
516 -4 771 -11 807 -37 174 -165 292 -361 332 -95 20 -273 20 -383 0z"/>
<path d="M41100 4739 c-19 -6 -36 -12 -37 -13 -2 -1 -12 -47 -23 -102 -11 -54
-22 -108 -25 -120 -4 -18 -1 -20 22 -16 15 3 40 -3 59 -13 65 -35 64 -28 64
-597 0 -566 2 -587 62 -702 19 -35 64 -93 108 -137 61 -62 93 -85 170 -122
155 -75 225 -90 430 -91 153 -1 186 2 260 22 266 72 449 235 505 448 13 49 15
161 15 746 l0 688 -175 0 -174 0 -3 -687 -3 -688 -29 -59 c-58 -118 -171 -195
-317 -218 -199 -30 -385 59 -463 222 l-31 65 -1 555 c0 305 -4 573 -8 595 -17
86 -77 169 -151 208 -46 24 -196 33 -255 16z"/>
<path d="M43289 4735 c-87 -15 -164 -35 -266 -71 l-71 -26 19 -66 c11 -37 24
-86 30 -109 6 -24 16 -43 23 -43 6 0 40 10 76 21 159 50 334 64 425 33 26 -9
65 -34 85 -54 72 -72 70 -48 70 -857 l0 -723 180 0 180 0 0 738 c0 451 -4 762
-10 802 -29 183 -162 312 -366 355 -84 18 -270 18 -375 0z"/>
<path d="M8730 3785 l0 -945 175 0 175 0 0 945 0 945 -175 0 -175 0 0 -945z"/>
<path d="M9390 3785 l0 -945 175 0 175 0 0 945 0 945 -175 0 -175 0 0 -945z"/>
<path d="M7738 4502 l-148 -26 -12 -36 c-6 -19 -11 -67 -11 -106 0 -163 96
-246 284 -245 140 0 283 43 485 144 l112 56 -35 113 c-20 62 -37 114 -38 116
-2 2 -50 -20 -107 -47 -110 -54 -231 -86 -284 -76 -18 3 -44 15 -58 26 -21 17
-26 29 -26 65 0 24 -3 44 -7 43 -5 -1 -74 -13 -155 -27z"/>
<path d="M7725 3436 c-66 -12 -126 -25 -132 -29 -20 -13 -35 -137 -23 -191 20
-90 52 -130 135 -168 72 -33 205 -31 337 5 98 27 277 101 361 150 l46 27 -35
103 c-19 56 -36 108 -39 114 -3 9 -31 -1 -92 -31 -121 -60 -186 -80 -265 -81
-57 0 -70 3 -92 24 -19 18 -26 35 -26 63 0 46 0 46 -175 14z"/>
</g>
</svg>
